SplineFontDB: 3.0
FontName: Parts
FullName: Parts
FamilyName: Parts
Weight: Regular
Copyright: Copyright (c) 2018, Yuansheng Zhao
UComments: "2018-4-11: Created with FontForge (http://fontforge.org)"
Version: 001.000
ItalicAngle: 0
UnderlinePosition: -100
UnderlineWidth: 50
Ascent: 800
Descent: 200
InvalidEm: 0
LayerCount: 2
Layer: 0 0 "Back" 1
Layer: 1 0 "Fore" 0
XUID: [1021 70 263418660 6791]
OS2Version: 0
OS2_WeightWidthSlopeOnly: 0
OS2_UseTypoMetrics: 1
CreationTime: 1523435059
ModificationTime: 1540051793
OS2TypoAscent: 0
OS2TypoAOffset: 1
OS2TypoDescent: 0
OS2TypoDOffset: 1
OS2TypoLinegap: 0
OS2WinAscent: 0
OS2WinAOffset: 1
OS2WinDescent: 0
OS2WinDOffset: 1
HheadAscent: 0
HheadAOffset: 1
HheadDescent: 0
HheadDOffset: 1
OS2Vendor: 'PfEd'
MarkAttachClasses: 1
DEI: 91125
Encoding: UnicodeFull
UnicodeInterp: none
NameList: AGL For New Fonts
DisplaySize: -48
AntiAlias: 1
FitToEm: 0
WinInfo: 936 26 9
BeginPrivate: 0
EndPrivate
BeginChars: 1114112 905

StartChar: uni0001
Encoding: 1 1 0
Width: 0
Flags: W
HStem: 556 74
VStem: -107.5 214.37
LayerCount: 2
Fore
SplineSet
-100 447 m 4
 -108 447 -111 459 -103 477 c 4
 -86 516 -36 603 -21 630 c 4
 -16 639 -8 648 0 648 c 4
 8 648 15 639 20 630 c 4
 35 603 83 515 102 477 c 4
 111 459 107 447 99 447 c 4
 91 447 76 460 69 469 c 4
 57 485 28 523 3 553 c 4
 0 557 -1 557 -4 553 c 4
 -27 522 -58 485 -70 469 c 4
 -77 460 -92 447 -100 447 c 4
EndSplineSet
EndChar

StartChar: uni0002
Encoding: 2 2 1
Width: 1496
Flags: W
HStem: 556 74
VStem: -107.5 214.37
LayerCount: 2
Fore
SplineSet
210 527 m 1
 206 500 l 1
 0 622 l 5
 -206 500 l 1
 -210 527 l 1
 0 704 l 1
 210 527 l 1
EndSplineSet
EndChar

StartChar: uni0003
Encoding: 3 3 2
Width: 1496
Flags: W
HStem: 556 74
VStem: -107.5 214.37
LayerCount: 2
Fore
SplineSet
317 527 m 1
 313 500 l 1
 0 626 l 5
 -313 500 l 1
 -317 527 l 1
 0 703 l 1
 317 527 l 1
EndSplineSet
EndChar

StartChar: uni0004
Encoding: 4 4 3
Width: 1496
Flags: W
HStem: 556 74
VStem: -107.5 214.37
LayerCount: 2
Fore
SplineSet
425 527 m 1
 421 500 l 1
 0 629 l 5
 -421 500 l 1
 -425 527 l 1
 0 702 l 1
 425 527 l 1
EndSplineSet
EndChar

StartChar: uni0005
Encoding: 5 5 4
Width: 1496
Flags: W
HStem: 556 74
VStem: -107.5 214.37
LayerCount: 2
Fore
SplineSet
533 527 m 1
 529 500 l 1
 0 632 l 5
 -529 500 l 1
 -533 527 l 1
 0 702 l 1
 533 527 l 1
EndSplineSet
EndChar

StartChar: uni0006
Encoding: 6 6 5
Width: 1496
Flags: W
HStem: 556 74
VStem: -107.5 214.37
LayerCount: 2
Fore
SplineSet
640 527 m 1
 636 500 l 1
 0 637 l 5
 -636 500 l 1
 -640 527 l 1
 0 702 l 1
 640 527 l 1
EndSplineSet
EndChar

StartChar: uni0007
Encoding: 7 7 6
Width: 1496
Flags: W
HStem: 556 74
VStem: -107.5 214.37
LayerCount: 2
Fore
SplineSet
748 527 m 1
 744 500 l 1
 0 641 l 5
 -744 500 l 1
 -748 527 l 1
 0 702 l 1
 748 527 l 1
EndSplineSet
EndChar

StartChar: uni0008
Encoding: 8 8 7
Width: 0
Flags: W
HStem: 592 66<41 68.5> 600 67<-58.5 -44>
VStem: -140 287<568 693>
LayerCount: 2
Fore
SplineSet
-124 558 m 0x60
 -134 558 -140 563 -140 573 c 0
 -140 583 -71 667 -46 667 c 0x60
 -24 667 -14 664 5 662 c 0
 27 660 43 658 61 658 c 0
 76 658 90 667 100 677 c 0
 114 691 124 705 128 705 c 0
 138 705 147 698 147 688 c 4
 147 684 139 676 125 662 c 0
 109 647 91 622 78 606 c 0
 70 596 53 592 49 592 c 0xa0
 33 592 -26 600 -62 600 c 0
 -76 600 -90 588 -101 578 c 0
 -110 570 -120 558 -124 558 c 0x60
EndSplineSet
EndChar

StartChar: uni0009
Encoding: 9 9 8
Width: 500
Flags: W
HStem: 568 59<23.7919 135.981> 628 61<-144.009 -21.4619>
LayerCount: 2
Fore
SplineSet
-46 667 m 1024,0,-1
86 568 m 0,1,-1
 51 568 21 584 -8 599 c 0,4,-1
 -35 614 -62 628 -91 628 c 0,7,-1
 -141 628 -177 573 -182 573 c 0,10,-1
 -190 573 -201 580 -201 587 c 0,13,-1
 -201 614 -150 689 -80 689 c 0,16,-1
 -46 689 -18 673 8 658 c 0,19,-1
 34 642 59 627 86 627 c 0,22,-1
 131 627 174 690 179 690 c 0,25,-1
 184 690 199 683 199 670 c 4,28,-1
 199 629 135 568 86 568 c 0,1,-1
EndSplineSet
EndChar

StartChar: uni000A
Encoding: 10 10 9
Width: 720
Flags: HW
LayerCount: 2
Fore
SplineSet
308.385742188 681.686523438 m 1
 268.991955744 610.098456231 229.859471163 559.795921517 162.491210938 547.092773438 c 0
 154.03125 545.072265625 145.130859375 544 136.485351562 544 c 0
 83.857421875 544 34.564453125 572.650390625 -11.57421875 601.703125 c 0
 -51.0224609375 626.76171875 -92.1376953125 653 -134.819335938 653 c 0
 -141.030273438 653 -147.733398438 652.025390625 -154.184570312 651.0625 c 0
 -210.697976973 639.641022954 -251.374597341 616.804914069 -284.956054688 555.654296875 c 1
 -308.434570312 574.346679688 l 1
 -268.244968773 645.841424449 -229.047448631 696.191642911 -162.4609375 708.915039062 c 0
 -153.134765625 710.939453125 -144.333984375 712 -135.65625 712 c 0
 -83.865234375 712 -34.529296875 683.322265625 11.52734375 654.321289062 c 0
 51.8447265625 629.245117188 92.9912109375 603 134.811523438 603 c 0
 141.026367188 603 147.716796875 603.973632812 154.182617188 604.938476562 c 0
 211.522450089 616.351522296 251.346002146 639.157241396 284.948242188 700.345703125 c 1
 308.385742188 681.686523438 l 1
EndSplineSet
EndChar

StartChar: uni000B
Encoding: 11 11 10
Width: 863
Flags: HW
LayerCount: 2
Fore
SplineSet
417.826171875 681.877929688 m 1
 364.195234813 610.855610627 308.745949613 560.676713811 216.494140625 547.068359375 c 0
 205.041015625 545.0546875 194.108398438 544 182.466796875 544 c 0
 115.546875 544 51.3359375 572.493164062 -10.2529296875 600.490234375 c 0
 -65.3271484375 625.541015625 -121.439453125 652 -179.51953125 652 c 0
 -187.551757812 652 -197.125 651.01171875 -206.309570312 650.04296875 c 0
 -287.844507914 637.603306706 -344.158844061 614.916469628 -390.918945312 552.4765625 c 1
 -415.826171875 574.122070312 l 1
 -362.195234813 645.144389373 -306.745949613 695.323286189 -214.494140625 708.931640625 c 0
 -203.041015625 710.9453125 -192.108398438 712 -180.466796875 712 c 0
 -113.5625 712 -48.38671875 683.506835938 12.2666015625 655.50390625 c 0
 67.2841796875 630.478515625 124.407226562 604 181.51953125 604 c 0
 190.529296875 604 199.067382812 604.981445312 208.314453125 605.958007812 c 0
 290.790768404 618.391412882 346.13187659 641.047520048 392.918945312 703.5234375 c 1
 417.826171875 681.877929688 l 1
EndSplineSet
EndChar

StartChar: uni000C
Encoding: 12 12 11
Width: 1037
Flags: HW
LayerCount: 2
Fore
SplineSet
527.066637823 684.412940543 m 1
 461.65095805 612.640131232 388.03589709 562.304602927 268.899114063 547.013289053 c 0
 253.919244693 546.014631095 239.7879599 545 225.5 545 c 0
 145.174685875 545 65.5911800005 571.31074551 -10.5359408365 598.35590686 c 0
 -81.564988661 624.366544091 -152.8371486 649 -225.5 649 c 0
 -237.566161057 649 -249.041160686 649 -261.678447539 647.055802023 c 0
 -371.601804225 633.574635637 -442.560529006 611.161880122 -501.194638403 547.473106123 c 1
 -526.915779318 571.681238749 l 1
 -462.501332253 643.490124988 -388.981732199 693.672542766 -268.9274823 708.984752199 c 0
 -254.927786777 709.984730451 -240.785681988 711 -226.5 711 c 0
 -145.168342683 711 -66.6082676885 684.694839466 10.5374205104 657.643753994 c 0
 80.6005450701 631.620307729 151.821969094 607 224.5 607 c 0
 237.593057175 607 249.003424818 607 260.641215582 608.939631794 c 0
 370.651534428 622.43146335 442.447226589 644.77944134 500.04100627 708.435724146 c 1
 527.066637823 684.412940543 l 1
EndSplineSet
EndChar

StartChar: uni000D
Encoding: 13 13 12
Width: 1241
Flags: HW
LayerCount: 2
Fore
SplineSet
628.234215674 685.791797754 m 1
 554.628590381 615.296269305 467.325338365 563.972880512 319.106257039 548.533392874 c 0
 301.979756561 546.518510464 284.70446475 545.5 268.5 545.5 c 0
 174.483429733 545.5 81.9492983498 571.723129801 -9.05191478195 598.723489741 c 0
 -94.0455002263 623.721603107 -180.538706984 648.5 -267.5 648.5 c 0
 -282.17710484 648.5 -297.292388065 647.501632124 -312.013149472 646.52024803 c 0
 -450.673609784 631.113530217 -537.875729364 609.992441535 -604.58939236 546.311217767 c 1
 -628.36301742 570.084842827 l 1
 -554.696190886 640.63898655 -467.430647558 692.016149781 -319.106257039 707.466607126 c 0
 -301.979756561 709.481489536 -284.70446475 710.5 -268.5 710.5 c 0
 -173.502816611 710.5 -80.9254020505 684.269705308 9.05191478195 657.276510259 c 0
 94.0455002263 632.278396893 180.538706984 607.5 267.5 607.5 c 0
 282.17710484 607.5 297.292388065 608.498367876 312.013149472 609.47975197 c 0
 450.721312729 624.89177011 537.975184476 646.056078245 605.745179296 709.780103224 c 1
 628.234215674 685.791797754 l 1
EndSplineSet
EndChar

StartChar: uni000E
Encoding: 14 14 13
Width: 1491
Flags: HW
LayerCount: 2
Fore
SplineSet
-317 710 m 0
 -101.323408936 710 103.495866732 609 317 609 c 0
 335.84198018 609 354.612596573 609.986845211 373.506711499 611.975699414 c 0
 549.518009528 628.348843417 654.544819879 649.184588412 730.481712467 713.984070087 c 1
 753.13701555 688.496854118 l 1
 671.120796086 618.938794573 564.624040107 566.412387893 379.497518595 549.024814049 c 0
 359.317244696 547.006786659 338.166550814 546 318 546 c 0
 208.190202443 546 99.8647761044 572.130577797 -7.16395753656 597.137291264 c 0
 -109.217367815 622.150382019 -212.781811409 647 -316 647 c 0
 -334.840459444 647 -354.633242765 646.010981505 -373.505370606 644.024441732 c 0
 -548.581626889 627.643037636 -654.530482177 606.795488491 -729.460039096 541.991547372 c 1
 -752.13701555 567.503145882 l 1
 -670.127679334 637.055367735 -564.64276278 689.585940377 -379.474045463 706.977477363 c 0
 -358.332606551 708.990947736 -338.158906414 710 -317 710 c 0
EndSplineSet
EndChar

StartChar: uni000F
Encoding: 15 15 14
Width: 0
Flags: W
HStem: 657 55<-30 30>
VStem: -107 32 75 32
LayerCount: 2
Fore
SplineSet
-92 572 m 0
 -102 572 -107 583 -107 596 c 4
 -107 671 -70 712 0 712 c 0
 70 712 107 660 107 596 c 0
 107 583 102 572 92 572 c 0
 82 572 80 584 75 593 c 0
 63 615 60 657 0 657 c 0
 -60 657 -63 615 -75 593 c 0
 -80 584 -82 572 -92 572 c 0
EndSplineSet
EndChar

StartChar: uni0010
Encoding: 16 16 15
Width: 620
Flags: W
HStem: 661 45<250.5 369.5>
LayerCount: 2
Fore
SplineSet
223.5 585 m 1
 187.5 579 l 5
 152.5 655 119 657 0 657 c 0
 -119 657 -152.5 655 -187.5 579 c 1
 -223.5 585 l 5
 -184.5 673 -130 712 0 712 c 0
 130 712 184.5 673 223.5 585 c 1
EndSplineSet
EndChar

StartChar: uni0011
Encoding: 17 17 16
Width: 740
Flags: W
HStem: 660 47<299.5 440.5>
LayerCount: 2
Fore
SplineSet
332 585 m 1
 296 579 l 5
 261 654 141 656 0 656 c 0
 -141 656 -261 654 -296 579 c 1
 -332 585 l 5
 -286 692 -153 713 0 713 c 0
 153 713 286 692 332 585 c 1
EndSplineSet
EndChar

StartChar: uni0012
Encoding: 18 18 17
Width: 885
Flags: W
HStem: 659 48<358 526.5>
LayerCount: 2
Fore
SplineSet
440.5 585 m 1
 403.5 579 l 5
 368.5 654 169 655 0 655 c 0
 -168 655 -367.5 654 -402.5 579 c 1
 -439.5 585 l 5
 -390.5 702 -179 713 0 713 c 0
 180 713 391.5 702 440.5 585 c 1
EndSplineSet
EndChar

StartChar: uni0013
Encoding: 19 19 18
Width: 1058
Flags: W
HStem: 658 50<429 629>
LayerCount: 2
Fore
SplineSet
549 586 m 1
 511 578 l 5
 476 653 200 654 0 654 c 0
 -200 654 -476 653 -511 578 c 1
 -549 586 l 5
 -500 703 -213 714 0 714 c 0
 212 714 500 703 549 586 c 1
EndSplineSet
EndChar

StartChar: uni0014
Encoding: 20 20 19
Width: 1266
Flags: W
HStem: 658 51<513.5 752.5>
LayerCount: 2
Fore
SplineSet
657.5 586 m 5
 619.5 578 l 1
 584.5 652 239 654 0 654 c 0
 -239 654 -584.5 652 -619.5 578 c 5
 -657.5 586 l 1
 -608.5 703 -252 715 0 715 c 0
 252 715 608.5 703 657.5 586 c 5
EndSplineSet
EndChar

StartChar: uni0015
Encoding: 21 21 20
Width: 1515
Flags: W
HStem: 657 53<-142.5 143>
LayerCount: 2
Fore
SplineSet
766 586 m 1
 727 578 l 5
 693 651 286 653 0 653 c 0
 -285 653 -692 651 -726 578 c 1
 -765 586 l 5
 -715 704 -298 716 0 716 c 0
 299 716 716 704 766 586 c 1
EndSplineSet
EndChar

StartChar: uni0016
Encoding: 22 22 21
Width: 746
Flags: W
HStem: -296 40<154.363 229.231> 758 41<446.985 527.741>
LayerCount: 2
Fore
SplineSet
169 -296 m 0
 118 -296 80 -278 80 -244 c 0
 80 -224 102 -204 114 -204 c 0
 124 -204 134 -218 149 -232 c 0
 163 -245 180 -256 204 -256 c 0
 242 -256 268 -235 278 -121 c 2
 347 586 l 1
 365 732 435 799 507 799 c 0
 571 799 610 765 610 719 c 0
 610 692 591 678 575 678 c 0
 565 678 555 695 543 717 c 0
 528 744 508 758 486 758 c 0
 441 758 424 705 415 639 c 0
 411 608 356 40 341 -116 c 0
 331 -223 225 -296 169 -296 c 0
558.62109375 229.594726562 m 0xfc
 547.328125 112.3046875 443.583984375 26.78515625 326.294921875 38.0791015625 c 0
 209.004882812 49.3720703125 123.485351562 153.116210938 134.779296875 270.405273438 c 0
 146.072265625 387.6953125 249.81640625 473.21484375 367.10546875 461.920898438 c 4
 484.395507812 450.627929688 569.915039062 346.883789062 558.62109375 229.594726562 c 0xfc
518.8046875 233.428710938 m 0
 527.962890625 328.538085938 458.381835938 412.946289062 363.271484375 422.104492188 c 0
 268.162109375 431.262695312 183.75390625 361.681640625 174.595703125 266.571289062 c 0
 165.4375 171.461914062 235.018554688 87.0537109375 330.12890625 77.8955078125 c 0
 425.23828125 68.7373046875 509.646484375 138.318359375 518.8046875 233.428710938 c 0
EndSplineSet
EndChar

StartChar: uni0017
Encoding: 23 23 22
Width: 746
Flags: W
HStem: -296 40<154.363 229.231> 758 41<446.985 527.741>
LayerCount: 2
Fore
SplineSet
169 -296 m 0
 118 -296 80 -278 80 -244 c 0
 80 -224 102 -204 114 -204 c 0
 124 -204 134 -218 149 -232 c 0
 163 -245 180 -256 204 -256 c 0
 242 -256 268 -235 278 -121 c 2
 347 586 l 1
 365 732 435 799 507 799 c 0
 571 799 610 765 610 719 c 0
 610 692 591 678 575 678 c 0
 565 678 555 695 543 717 c 0
 528 744 508 758 486 758 c 0
 441 758 424 705 415 639 c 0
 411 608 356 40 341 -116 c 0
 331 -223 225 -296 169 -296 c 0
134.796875 270.33984375 m 2
 146.090820312 387.629882812 249.834960938 473.149414062 367.123046875 461.85546875 c 0
 484.412109375 450.561523438 569.931640625 346.818359375 558.637695312 229.528320312 c 0
 557.81640625 220.995117188 556.506835938 212.629882812 554.736328125 204.45703125 c 1
 515.6484375 213.002929688 l 1
 517.08984375 219.640625 518.15625 226.43359375 518.822265625 233.36328125 c 0
 527.981445312 328.47265625 458.3984375 412.880859375 363.2890625 422.0390625 c 0
 268.180664062 431.196289062 183.770507812 361.616210938 174.612304688 266.505859375 c 0
 134.796875 270.33984375 l 2
522.37109375 232.608398438 m 1
 554.47265625 229.516601562 l 1
 573.900390625 245.051757812 591.913085938 257.883789062 627.895507812 271.096679688 c 0
 628.958984375 271.487304688 633.080078125 268.907226562 633.865234375 266.841796875 c 0
 635.647460938 264.681640625 635.916015625 257.626953125 635.629882812 254.653320312 c 0
 635.176757812 249.950195312 631.9609375 243.931640625 628.522460938 241.098632812 c 0
 594.822265625 214.279296875 562.962890625 195.623046875 538.184570312 157.396484375 c 0
 535.119140625 152.944335938 533.922851562 151.477539062 530.787109375 151.779296875 c 0
 527.650390625 152.08203125 527.129882812 152.131835938 524.647460938 159.227539062 c 0
 507.619140625 201.477539062 479.837890625 225.17578125 451.873046875 257.931640625 c 0
 449.040039062 261.369140625 447.030273438 267.891601562 447.483398438 272.595703125 c 0
 447.78515625 275.73046875 449.419921875 282.325195312 451.580078125 284.10546875 c 0
 453.741210938 285.885742188 456.688476562 286.025390625 459.671875 284.155273438 c 0
 490.0390625 265.407226562 505.268554688 252.186523438 522.37109375 232.608398438 c 1
EndSplineSet
EndChar

StartChar: uni0018
Encoding: 24 24 23
Width: 746
Flags: W
HStem: -296 44<183.668 207.668 183.668 215.168> 752 44<537.668 561.668>
VStem: 551.668 114<703 703>
LayerCount: 2
Fore
SplineSet
169 -296 m 0
 118 -296 80 -278 80 -244 c 0
 80 -224 102 -204 114 -204 c 0
 124 -204 134 -218 149 -232 c 0
 163 -245 180 -256 204 -256 c 0
 242 -256 268 -235 278 -121 c 2
 347 586 l 1
 365 732 435 799 507 799 c 0
 571 799 610 765 610 719 c 0
 610 692 591 678 575 678 c 0
 565 678 555 695 543 717 c 0
 528 744 508 758 486 758 c 0
 441 758 424 705 415 639 c 0
 411 608 356 40 341 -116 c 0
 331 -223 225 -296 169 -296 c 0
522.366210938 232.674804688 m 1
 554.46875 229.583007812 l 1
 573.895507812 245.1171875 591.908203125 257.950195312 627.890625 271.163085938 c 0
 628.956054688 271.553710938 633.461914062 262.390625 634.194335938 260.305664062 c 0
 635.91796875 258.099609375 636.002929688 251.041015625 635.638671875 248.076171875 c 0
 635.0625 243.385742188 631.956054688 243.997070312 628.518554688 241.1640625 c 0
 594.818359375 214.345703125 562.958007812 195.688476562 538.180664062 157.461914062 c 0
 535.114257812 153.010742188 533.918945312 151.54296875 530.783203125 151.845703125 c 0
 527.647460938 152.147460938 527.125 152.197265625 524.643554688 159.29296875 c 0
 507.615234375 201.544921875 479.833984375 225.241210938 451.869140625 257.997070312 c 0
 449.036132812 261.434570312 447.026367188 267.958007812 447.479492188 272.662109375 c 0
 447.78125 275.796875 449.416015625 282.390625 451.576171875 284.170898438 c 0
 453.736328125 285.952148438 456.684570312 286.090820312 459.668945312 284.220703125 c 0
 490.036132812 265.474609375 505.264648438 252.252929688 522.366210938 232.674804688 c 1
456.729492188 116.576171875 m 2
 469.6640625 126.453125 l 2
 471.84765625 128.251953125 477.65625 130.72265625 480.901367188 128.384765625 c 0
 492.17578125 120.266601562 498.603515625 99.1298828125 482.234375 85.63671875 c 0
 440.2265625 50.9931640625 384.961914062 32.4306640625 326.307617188 38.0791015625 c 0
 209.01953125 49.3720703125 123.499023438 153.116210938 134.791992188 270.40625 c 0
 146.086914062 387.6953125 249.831054688 473.21484375 367.120117188 461.921875 c 0
 484.409179688 450.627929688 569.928710938 346.883789062 558.634765625 229.594726562 c 0
 557.8125 221.060546875 556.501953125 212.696289062 554.732421875 204.5234375 c 1
 515.64453125 213.069335938 l 1
 517.0859375 219.70703125 518.151367188 226.5 518.819335938 233.428710938 c 0
 527.977539062 328.538085938 458.395507812 412.946289062 363.28515625 422.104492188 c 0
 268.176757812 431.262695312 183.767578125 361.681640625 174.609375 266.572265625 c 0
 165.451171875 171.461914062 235.033203125 87.0537109375 330.141601562 77.8955078125 c 0
 377.705078125 73.3154296875 422.591796875 88.427734375 456.729492188 116.576171875 c 2
EndSplineSet
EndChar

StartChar: uni0019
Encoding: 25 25 24
Width: 746
Flags: W
HStem: -296 44<183.668 207.668 183.668 215.168> 752 44<537.668 561.668>
VStem: 551.668 114
LayerCount: 2
Fore
SplineSet
169 -296 m 0
 118 -296 80 -278 80 -244 c 0
 80 -224 102 -204 114 -204 c 0
 124 -204 134 -218 149 -232 c 0
 163 -245 180 -256 204 -256 c 0
 242 -256 268 -235 278 -121 c 2
 347 586 l 1
 365 732 435 799 507 799 c 0
 571 799 610 765 610 719 c 0
 610 692 591 678 575 678 c 0
 565 678 555 695 543 717 c 0
 528 744 508 758 486 758 c 0
 441 758 424 705 415 639 c 0
 411 608 356 40 341 -116 c 0
 331 -223 225 -296 169 -296 c 0
522.444335938 233.48828125 m 1
 501.920898438 217.532226562 484.450195312 207.4609375 451.063476562 194.8515625 c 0
 447.77734375 193.586914062 444.91015625 194.28515625 443.129882812 196.4453125 c 0
 441.348632812 198.60546875 441.001953125 205.390625 441.303710938 208.524414062 c 0
 441.756835938 213.228515625 444.973632812 219.249023438 448.411132812 222.083007812 c 0
 482.111328125 248.900390625 513.904296875 266.861328125 538.681640625 305.086914062 c 0
 542.471679688 311.578125 542.994140625 311.528320312 546.129882812 311.225585938 c 0
 549.265625 310.923828125 550.159179688 309.255859375 552.3203125 304.301757812 c 0
 569.348632812 262.049804688 597.063476562 237.65625 625.02734375 204.899414062 c 0
 627.861328125 201.462890625 629.869140625 194.940429688 629.416992188 190.236328125 c 0
 629.130859375 187.263671875 627.520507812 180.390625 625.360351562 178.610351562 c 0
 624.194335938 176.732421875 619.657226562 174.985351562 618.6875 175.572265625 c 0
 585.88671875 195.407226562 570.653320312 211.442382812 554.546875 230.397460938 c 1
 522.444335938 233.48828125 l 1
480.166992188 359.977539062 m 2
 452.02734375 394.123046875 410.84765625 417.521484375 363.28515625 422.1015625 c 0
 268.176757812 431.259765625 183.766601562 361.678710938 174.609375 266.569335938 c 0
 165.451171875 171.458984375 235.033203125 87.05078125 330.141601562 77.892578125 c 0
 425.251953125 68.734375 509.661132812 138.315429688 518.819335938 233.42578125 c 0
 519.485351562 240.353515625 519.735351562 247.225585938 519.586914062 254.015625 c 1
 559.586914062 254.946289062 l 1
 559.764648438 246.586914062 559.456054688 238.125 558.634765625 229.591796875 c 0
 547.341796875 112.301757812 443.59765625 26.7822265625 326.30859375 38.076171875 c 0
 209.01953125 49.369140625 123.5 153.11328125 134.791992188 270.403320312 c 0
 146.0859375 387.692382812 249.831054688 473.211914062 367.119140625 461.918945312 c 0
 425.772460938 456.270507812 476.481445312 427.50390625 511.106445312 385.483398438 c 0
 524.599609375 369.114257812 514.256835938 349.590820312 501.641601562 343.7734375 c 0
 498.009765625 342.098632812 492.778320312 345.631835938 490.979492188 347.814453125 c 2
 480.166992188 359.977539062 l 2
EndSplineSet
EndChar

StartChar: uni001A
Encoding: 26 26 25
Width: 746
Flags: W
HStem: -296 44<183.668 207.668 183.668 215.168> 752 44<537.668 561.668>
VStem: 161.427 39.7031 551.668 114
LayerCount: 2
Fore
SplineSet
169 -296 m 0
 118 -296 80 -278 80 -244 c 0
 80 -224 102 -204 114 -204 c 0
 124 -204 134 -218 149 -232 c 0
 163 -245 180 -256 204 -256 c 0
 242 -256 268 -235 278 -121 c 2
 347 586 l 1
 365 732 435 799 507 799 c 0
 571 799 610 765 610 719 c 0
 610 692 591 678 575 678 c 0
 565 678 555 695 543 717 c 0
 528 744 508 758 486 758 c 0
 441 758 424 705 415 639 c 0
 411 608 356 40 341 -116 c 0
 331 -223 225 -296 169 -296 c 0
135.883789062 281.346679688 m 2
 136.458984375 287.318359375 142.203125 294.802734375 148.174804688 294.227539062 c 0
 158.12890625 293.268554688 176.370117188 284.48046875 174.616210938 266.573242188 c 0
 165.458007812 171.462890625 235.0390625 87.0537109375 330.1484375 77.896484375 c 0
 425.258789062 68.73828125 509.666992188 138.319335938 518.825195312 233.4296875 c 0
 519.493164062 240.357421875 519.741210938 247.229492188 519.59375 254.01953125 c 1
 559.59375 254.950195312 l 1
 559.772460938 246.590820312 559.462890625 238.12890625 558.641601562 229.595703125 c 0
 547.34765625 112.305664062 443.604492188 26.7861328125 326.315429688 38.080078125 c 0
 209.026367188 49.373046875 123.505859375 153.1171875 134.798828125 270.407226562 c 2
 135.883789062 281.346679688 l 2
522.452148438 233.4921875 m 1
 501.927734375 217.536132812 484.45703125 207.463867188 451.0703125 194.85546875 c 0
 447.784179688 193.58984375 444.916992188 194.2890625 443.135742188 196.44921875 c 0
 441.35546875 198.609375 441.008789062 205.39453125 441.310546875 208.529296875 c 0
 441.763671875 213.232421875 444.98046875 219.251953125 448.41796875 222.0859375 c 0
 482.118164062 248.904296875 513.911132812 266.865234375 538.688476562 305.08984375 c 0
 542.478515625 311.58203125 543.000976562 311.532226562 546.13671875 311.229492188 c 0
 549.272460938 310.927734375 550.166015625 309.258789062 552.327148438 304.305664062 c 0
 569.35546875 262.053710938 597.0703125 237.66015625 625.034179688 204.903320312 c 0
 627.8671875 201.465820312 629.876953125 194.944335938 629.424804688 190.240234375 c 0
 629.137695312 187.266601562 627.52734375 180.39453125 625.3671875 178.61328125 c 0
 624.201171875 176.735351562 619.6640625 174.989257812 618.693359375 175.576171875 c 0
 585.89453125 195.411132812 570.661132812 211.4453125 554.553710938 230.400390625 c 1
 522.452148438 233.4921875 l 1
EndSplineSet
EndChar

StartChar: uni001B
Encoding: 27 27 26
Width: 1046
Flags: W
HStem: -296 40<154.363 229.231> 758 41<446.985 527.741>
LayerCount: 2
Fore
SplineSet
469 -296 m 0
 418 -296 380 -278 380 -244 c 0
 380 -224 402 -204 414 -204 c 0
 424 -204 434 -218 449 -232 c 0
 463 -245 480 -256 504 -256 c 0
 542 -256 568 -235 578 -121 c 2
 647 586 l 1
 665 732 735 799 807 799 c 0
 871 799 910 765 910 719 c 0
 910 692 891 678 875 678 c 0
 865 678 855 695 843 717 c 0
 828 744 808 758 786 758 c 0
 741 758 724 705 715 639 c 0
 711 608 656 40 641 -116 c 0
 631 -223 525 -296 469 -296 c 0
169 -296 m 0
 118 -296 80 -278 80 -244 c 0
 80 -224 102 -204 114 -204 c 0
 124 -204 134 -218 149 -232 c 0
 163 -245 180 -256 204 -256 c 0
 242 -256 268 -235 278 -121 c 2
 347 586 l 1
 365 732 435 799 507 799 c 0
 571 799 610 765 610 719 c 0
 610 692 591 678 575 678 c 0
 565 678 555 695 543 717 c 0
 528 744 508 758 486 758 c 0
 441 758 424 705 415 639 c 0
 411 608 356 40 341 -116 c 0
 331 -223 225 -296 169 -296 c 0
816.052734375 250 m 0
 816.052734375 132.16796875 673.448242188 37.0986328125 496.700195312 37.0986328125 c 0
 319.952148438 37.0986328125 177.34765625 132.16796875 177.34765625 250 c 0
 177.34765625 367.83203125 319.952148438 462.901367188 496.700195312 462.901367188 c 0
 673.448242188 462.901367188 816.052734375 367.83203125 816.052734375 250 c 0
766.05078125 250 m 0
 766.05078125 345.549804688 640.025390625 422.900390625 496.700195312 422.900390625 c 0
 353.375 422.900390625 227.349609375 345.549804688 227.349609375 250 c 0
 227.349609375 154.450195312 353.375 77.099609375 496.700195312 77.099609375 c 0
 640.025390625 77.099609375 766.05078125 154.450195312 766.05078125 250 c 0
EndSplineSet
EndChar

StartChar: uni001C
Encoding: 28 28 27
Width: 1346
Flags: W
HStem: -296 40<154.363 229.231> 758 41<446.985 527.741>
LayerCount: 2
Fore
SplineSet
769 -296 m 0
 718 -296 680 -278 680 -244 c 0
 680 -224 702 -204 714 -204 c 0
 724 -204 734 -218 749 -232 c 0
 763 -245 780 -256 804 -256 c 0
 842 -256 868 -235 878 -121 c 2
 947 586 l 1
 965 732 1035 799 1107 799 c 0
 1171 799 1210 765 1210 719 c 0
 1210 692 1191 678 1175 678 c 0
 1165 678 1155 695 1143 717 c 0
 1128 744 1108 758 1086 758 c 0
 1041 758 1024 705 1015 639 c 0
 1011 608 956 40 941 -116 c 0
 931 -223 825 -296 769 -296 c 0
469 -296 m 0
 418 -296 380 -278 380 -244 c 0
 380 -224 402 -204 414 -204 c 0
 424 -204 434 -218 449 -232 c 0
 463 -245 480 -256 504 -256 c 0
 542 -256 568 -235 578 -121 c 2
 647 586 l 1
 665 732 735 799 807 799 c 0
 871 799 910 765 910 719 c 0
 910 692 891 678 875 678 c 0
 865 678 855 695 843 717 c 0
 828 744 808 758 786 758 c 0
 741 758 724 705 715 639 c 0
 711 608 656 40 641 -116 c 0
 631 -223 525 -296 469 -296 c 0
169 -296 m 0
 118 -296 80 -278 80 -244 c 0
 80 -224 102 -204 114 -204 c 0
 124 -204 134 -218 149 -232 c 0
 163 -245 180 -256 204 -256 c 0
 242 -256 268 -235 278 -121 c 2
 347 586 l 1
 365 732 435 799 507 799 c 0
 571 799 610 765 610 719 c 0
 610 692 591 678 575 678 c 0
 565 678 555 695 543 717 c 0
 528 744 508 758 486 758 c 0
 441 758 424 705 415 639 c 0
 411 608 356 40 341 -116 c 0
 331 -223 225 -296 169 -296 c 0
1104.43847656 250 m 0
 1104.43847656 132.16796875 900.0390625 37.0986328125 646.700195312 37.0986328125 c 0
 393.361328125 37.0986328125 188.961914062 132.16796875 188.961914062 250 c 0
 188.961914062 367.83203125 393.361328125 462.901367188 646.700195312 462.901367188 c 0
 900.0390625 462.901367188 1104.43847656 367.83203125 1104.43847656 250 c 0
1053.43554688 250 m 0
 1053.43554688 345.549804688 852.131835938 422.900390625 646.700195312 422.900390625 c 0
 441.268554688 422.900390625 239.963867188 345.549804688 239.963867188 250 c 0
 239.963867188 154.450195312 441.268554688 77.099609375 646.700195312 77.099609375 c 0
 852.131835938 77.099609375 1053.43554688 154.450195312 1053.43554688 250 c 0
EndSplineSet
EndChar

StartChar: uni001D
Encoding: 29 29 28
Width: 1007
Flags: W
HStem: -717.024 54<186.823 280.673> 1165.68 55.3496<686.914 783.854>
LayerCount: 2
Fore
SplineSet
200.150390625 -717.024414062 m 0
 131.30078125 -717.024414062 80 -692.724609375 80 -646.82421875 c 0
 80 -619.82421875 109.700195312 -592.82421875 125.900390625 -592.82421875 c 0
 139.400390625 -592.82421875 152.900390625 -611.724609375 173.150390625 -630.624023438 c 0
 192.049804688 -648.174804688 215 -663.024414062 247.400390625 -663.024414062 c 0
 298.700195312 -663.024414062 364.75 -605 380.299804688 -450.774414062 c 2
 513.450195312 903.475585938 l 1
 537.75 1100.57519531 635.25 1221.02539062 762.450195312 1221.02539062 c 0
 848.850585938 1221.02539062 901.5 1175.125 901.5 1113.02539062 c 0
 901.5 1076.57519531 875.849609375 1057.67578125 854.25 1057.67578125 c 0
 840.75 1057.67578125 827.25 1080.625 811.049804688 1110.32519531 c 0
 790.799804688 1146.77539062 763.799804688 1165.67578125 734.099609375 1165.67578125 c 0
 673.349609375 1165.67578125 617.400390625 1064.125 605.25 975.025390625 c 0
 599.849609375 933.17578125 485.599609375 -233.424804688 465.349609375 -444.024414062 c 0
 451.849609375 -588.474609375 305.75 -717.024414062 200.150390625 -717.024414062 c 0
224.553710938 275.642578125 m 1
 174.784179688 280.434570312 l 1
 191.653320312 455.625 346.609375 583.360351562 521.798828125 566.491210938 c 0
 695.299804688 549.78515625 822.258789062 397.640625 808.303710938 224.53515625 c 1
 834.814453125 245.01953125 866.630859375 264.749023438 911.115234375 277.219726562 c 0
 912.626953125 277.80078125 917.375 277.072265625 919.918945312 273.986328125 c 0
 922.463867188 270.901367188 923.396484375 266.512695312 922.987304688 262.263671875 c 0
 922.340820312 255.544921875 917.745117188 246.9453125 912.833984375 242.897460938 c 0
 864.690429688 204.5859375 818.903320312 175.087890625 783.505859375 120.479492188 c 0
 779.125976562 114.12109375 777.416992188 112.0234375 772.9375 112.456054688 c 0
 768.458007812 112.88671875 767.711914062 112.958007812 764.16796875 123.094726562 c 0
 739.840820312 183.455078125 700.426757812 220.151367188 660.478515625 266.9453125 c 0
 656.4296875 271.85546875 653.55859375 281.174804688 654.206054688 287.892578125 c 0
 654.637695312 292.372070312 656.8359375 300.370117188 659.921875 302.9140625 c 0
 663.008789062 305.458007812 667.081054688 304.234375 671.344726562 301.563476562 c 0
 711.092773438 277.026367188 735.919921875 255.190429688 758.591796875 230.193359375 c 1
 769.380859375 375.181640625 662.453125 502.715820312 517.006835938 516.721679688 c 0
 369.583007812 530.916992188 238.749023438 423.065429688 224.553710938 275.642578125 c 1
EndSplineSet
EndChar

StartChar: uni001E
Encoding: 30 30 29
Width: 1007
Flags: W
HStem: -717 49<194.432 221.432 194.432 225.932> 1168 49<786.432 813.432>
LayerCount: 2
Fore
SplineSet
200.150390625 -717.024414062 m 0
 131.30078125 -717.024414062 80 -692.724609375 80 -646.82421875 c 0
 80 -619.82421875 109.700195312 -592.82421875 125.900390625 -592.82421875 c 0
 139.400390625 -592.82421875 152.900390625 -611.724609375 173.150390625 -630.624023438 c 0
 192.049804688 -648.174804688 215 -663.024414062 247.400390625 -663.024414062 c 0
 298.700195312 -663.024414062 364.75 -605 380.299804688 -450.774414062 c 2
 513.450195312 903.475585938 l 1
 537.75 1100.57519531 635.25 1221.02539062 762.450195312 1221.02539062 c 0
 848.850585938 1221.02539062 901.5 1175.125 901.5 1113.02539062 c 0
 901.5 1076.57519531 875.849609375 1057.67578125 854.25 1057.67578125 c 0
 840.75 1057.67578125 827.25 1080.625 811.049804688 1110.32519531 c 0
 790.799804688 1146.77539062 763.799804688 1165.67578125 734.099609375 1165.67578125 c 0
 673.349609375 1165.67578125 617.400390625 1064.125 605.25 975.025390625 c 0
 599.849609375 933.17578125 485.599609375 -233.424804688 465.349609375 -444.024414062 c 0
 451.849609375 -588.474609375 305.75 -717.024414062 200.150390625 -717.024414062 c 0
224.52734375 275.6484375 m 1
 210.333007812 128.224609375 318.18359375 -2.609375 465.607421875 -16.8046875 c 0
 611.052734375 -30.8095703125 740.3515625 73.9794921875 757.42578125 218.36328125 c 1
 730.400390625 198.150390625 701.862304688 181.454101562 658.1640625 164.951171875 c 0
 653.469726562 163.143554688 649.23828125 162.719726562 646.693359375 165.803710938 c 0
 644.1484375 168.890625 643.517578125 177.161132812 643.948242188 181.640625 c 0
 644.595703125 188.359375 649.190429688 196.958984375 654.1015625 201.006835938 c 0
 702.245117188 239.319335938 747.9375 267.8203125 783.333984375 322.4296875 c 0
 788.748046875 331.704101562 789.494140625 331.630859375 793.973632812 331.19921875 c 0
 798.453125 330.768554688 799.731445312 328.384765625 802.81640625 321.307617188 c 0
 827.142578125 260.946289062 866.4609375 223.255859375 906.41015625 176.461914062 c 0
 910.458007812 171.55078125 913.328125 162.233398438 912.681640625 155.513671875 c 0
 912.272460938 151.264648438 910.51953125 147.135742188 907.43359375 144.590820312 c 0
 904.345703125 142.046875 899.546875 142.237304688 898.174804688 143.09765625 c 0
 856.885742188 163.828125 829.41796875 189.265625 807.302734375 214.431640625 c 1
 787.97265625 41.8447265625 634.315429688 -83.2802734375 460.814453125 -66.57421875 c 0
 285.625976562 -49.705078125 157.888671875 105.250976562 174.7578125 280.440429688 c 1
 224.52734375 275.6484375 l 1
EndSplineSet
EndChar

StartChar: uni001F
Encoding: 31 31 30
Width: 1007
Flags: W
HStem: -717.024 54<186.823 280.673> 1165.68 55.3496<686.914 783.854>
LayerCount: 2
Fore
SplineSet
200.150390625 -717.024414062 m 0
 131.30078125 -717.024414062 80 -692.724609375 80 -646.82421875 c 0
 80 -619.82421875 109.700195312 -592.82421875 125.900390625 -592.82421875 c 0
 139.400390625 -592.82421875 152.900390625 -611.724609375 173.150390625 -630.624023438 c 0
 192.049804688 -648.174804688 215 -663.024414062 247.400390625 -663.024414062 c 0
 298.700195312 -663.024414062 364.75 -605 380.299804688 -450.774414062 c 2
 513.450195312 903.475585938 l 1
 537.75 1100.57519531 635.25 1221.02539062 762.450195312 1221.02539062 c 0
 848.850585938 1221.02539062 901.5 1175.125 901.5 1113.02539062 c 0
 901.5 1076.57519531 875.849609375 1057.67578125 854.25 1057.67578125 c 0
 840.75 1057.67578125 827.25 1080.625 811.049804688 1110.32519531 c 0
 790.799804688 1146.77539062 763.799804688 1165.67578125 734.099609375 1165.67578125 c 0
 673.349609375 1165.67578125 617.400390625 1064.125 605.25 975.025390625 c 0
 599.849609375 933.17578125 485.599609375 -233.424804688 465.349609375 -444.024414062 c 0
 451.849609375 -588.474609375 305.75 -717.024414062 200.150390625 -717.024414062 c 0
661.802734375 43.052734375 m 1
 693.701171875 4.3564453125 l 1
 630.955078125 -47.3681640625 548.41796875 -75.083984375 460.823242188 -66.6513671875 c 0
 285.6328125 -49.78125 157.896484375 105.174804688 174.766601562 280.365234375 c 0
 191.634765625 455.5546875 346.590820312 583.290039062 521.78125 566.421875 c 0
 695.282226562 549.71484375 822.240234375 397.569335938 808.284179688 224.46484375 c 1
 834.794921875 244.94921875 866.611328125 264.678710938 911.09765625 277.150390625 c 0
 912.609375 277.731445312 917.356445312 277.002929688 919.901367188 273.916992188 c 0
 922.446289062 270.830078125 923.37890625 266.443359375 922.969726562 262.194335938 c 0
 922.323242188 255.474609375 917.7265625 246.875976562 912.815429688 242.827148438 c 0
 864.672851562 204.514648438 818.884765625 175.018554688 783.487304688 120.409179688 c 0
 779.108398438 114.049804688 777.3984375 111.955078125 772.919921875 112.385742188 c 0
 768.440429688 112.817382812 767.694335938 112.888671875 764.1484375 123.025390625 c 0
 739.822265625 183.384765625 700.408203125 220.081054688 660.458984375 266.875976562 c 0
 656.412109375 271.786132812 653.541015625 281.103515625 654.188476562 287.823242188 c 0
 654.619140625 292.302734375 656.817382812 300.299804688 659.904296875 302.84375 c 0
 662.990234375 305.387695312 667.063476562 304.1640625 671.327148438 301.493164062 c 0
 711.073242188 276.95703125 735.900390625 255.123046875 758.572265625 230.124023438 c 1
 769.362304688 375.11328125 662.43359375 502.647460938 516.98828125 516.65234375 c 0
 369.565429688 530.846679688 238.731445312 422.99609375 224.536132812 275.571289062 c 0
 210.33984375 128.1484375 318.192382812 -2.685546875 465.615234375 -16.880859375 c 0
 539.327148438 -23.978515625 608.891601562 -0.564453125 661.802734375 43.052734375 c 1
EndSplineSet
EndChar

StartChar: space
Encoding: 32 32 31
Width: 1007
Flags: W
HStem: -717 49<194.432 221.432 194.432 225.932> 1168 49<786.432 813.432>
LayerCount: 2
Fore
SplineSet
200.150390625 -717.024414062 m 0
 131.30078125 -717.024414062 80 -692.724609375 80 -646.82421875 c 0
 80 -619.82421875 109.700195312 -592.82421875 125.900390625 -592.82421875 c 0
 139.400390625 -592.82421875 152.900390625 -611.724609375 173.150390625 -630.624023438 c 0
 192.049804688 -648.174804688 215 -663.024414062 247.400390625 -663.024414062 c 0
 298.700195312 -663.024414062 364.75 -605 380.299804688 -450.774414062 c 2
 513.450195312 903.475585938 l 1
 537.75 1100.57519531 635.25 1221.02539062 762.450195312 1221.02539062 c 0
 848.850585938 1221.02539062 901.5 1175.125 901.5 1113.02539062 c 0
 901.5 1076.57519531 875.849609375 1057.67578125 854.25 1057.67578125 c 0
 840.75 1057.67578125 827.25 1080.625 811.049804688 1110.32519531 c 0
 790.799804688 1146.77539062 763.799804688 1165.67578125 734.099609375 1165.67578125 c 0
 673.349609375 1165.67578125 617.400390625 1064.125 605.25 975.025390625 c 0
 599.849609375 933.17578125 485.599609375 -233.424804688 465.349609375 -444.024414062 c 0
 451.849609375 -588.474609375 305.75 -717.024414062 200.150390625 -717.024414062 c 0
698.16015625 420.5 m 2
 654.54296875 473.411132812 590.724609375 509.66796875 517.013671875 516.765625 c 0
 369.588867188 530.961914062 238.755859375 423.110351562 224.560546875 275.686523438 c 0
 210.365234375 128.262695312 318.216796875 -2.5712890625 465.639648438 -16.765625 c 0
 611.0859375 -30.7705078125 740.383789062 74.017578125 757.458007812 218.401367188 c 1
 730.43359375 198.188476562 701.895507812 181.491210938 658.196289062 164.990234375 c 0
 653.501953125 163.181640625 649.270507812 162.755859375 646.7265625 165.842773438 c 0
 644.180664062 168.928710938 643.549804688 177.200195312 643.981445312 181.678710938 c 0
 644.627929688 188.397460938 649.223632812 196.997070312 654.133789062 201.045898438 c 0
 702.27734375 239.356445312 747.969726562 267.858398438 783.3671875 322.466796875 c 0
 788.780273438 331.7421875 789.526367188 331.668945312 794.005859375 331.23828125 c 0
 798.485351562 330.806640625 799.763671875 328.423828125 802.848632812 321.344726562 c 0
 827.174804688 260.985351562 866.494140625 223.293945312 906.442382812 176.499023438 c 0
 910.490234375 171.588867188 913.360351562 162.271484375 912.713867188 155.551757812 c 0
 912.3046875 151.302734375 910.551757812 147.173828125 907.465820312 144.62890625 c 0
 904.37890625 142.084960938 899.580078125 142.275390625 898.20703125 143.134765625 c 0
 856.91796875 163.866210938 829.451171875 189.3046875 807.336914062 214.470703125 c 1
 788.005859375 41.8828125 634.349609375 -83.2421875 460.84765625 -66.537109375 c 0
 285.658203125 -49.6669921875 157.921875 105.290039062 174.791015625 280.478515625 c 0
 191.659179688 455.668945312 346.615234375 583.405273438 521.805664062 566.53515625 c 0
 609.400390625 558.1015625 685.131835938 515.145507812 736.856445312 452.397460938 c 0
 698.16015625 420.5 l 2
EndSplineSet
EndChar

StartChar: exclam
Encoding: 33 33 32
Width: 1007
Flags: HW
LayerCount: 2
Fore
SplineSet
200.150390625 -717.024414062 m 0
 131.30078125 -717.024414062 80 -692.724609375 80 -646.82421875 c 0
 80 -619.82421875 109.700195312 -592.82421875 125.900390625 -592.82421875 c 0
 139.400390625 -592.82421875 152.900390625 -611.724609375 173.150390625 -630.624023438 c 0
 192.049804688 -648.174804688 215 -663.024414062 247.400390625 -663.024414062 c 0
 298.700195312 -663.024414062 364.75 -605 380.299804688 -450.774414062 c 2
 513.450195312 903.475585938 l 1
 537.75 1100.57519531 635.25 1221.02539062 762.450195312 1221.02539062 c 0
 848.850585938 1221.02539062 901.5 1175.125 901.5 1113.02539062 c 0
 901.5 1076.57519531 875.849609375 1057.67578125 854.25 1057.67578125 c 0
 840.75 1057.67578125 827.25 1080.625 811.049804688 1110.32519531 c 0
 790.799804688 1146.77539062 763.799804688 1165.67578125 734.099609375 1165.67578125 c 0
 673.349609375 1165.67578125 617.400390625 1064.125 605.25 975.025390625 c 0
 599.849609375 933.17578125 485.599609375 -233.424804688 465.349609375 -444.024414062 c 0
 451.849609375 -588.474609375 305.75 -717.024414062 200.150390625 -717.024414062 c 0
807.836914062 219.521484375 m 0
 790.967773438 44.3310546875 636.01171875 -83.4052734375 460.822265625 -66.5361328125 c 0
 285.631835938 -49.6669921875 157.895507812 105.2890625 174.764648438 280.478515625 c 0
 191.633789062 455.668945312 346.58984375 583.405273438 521.779296875 566.536132812 c 0
 696.969726562 549.666992188 824.706054688 394.7109375 807.836914062 219.521484375 c 0
758.067382812 224.313476562 m 0
 772.262695312 371.737304688 664.411132812 502.571289062 516.987304688 516.766601562 c 0
 369.563476562 530.961914062 238.729492188 423.110351562 224.534179688 275.686523438 c 0
 210.338867188 128.262695312 318.190429688 -2.5712890625 465.614257812 -16.7666015625 c 0
 613.038085938 -30.9619140625 743.872070312 76.8896484375 758.067382812 224.313476562 c 0
EndSplineSet
EndChar

StartChar: quotedbl
Encoding: 34 34 33
Width: 1405
Flags: W
HStem: -717.024 54<186.823 280.673> 1165.68 55.3496<686.914 783.854>
LayerCount: 2
Fore
SplineSet
600.150390625 -717.024414062 m 4
 531.30078125 -717.024414062 480 -692.724609375 480 -646.82421875 c 4
 480 -619.82421875 509.700195312 -592.82421875 525.900390625 -592.82421875 c 4
 539.400390625 -592.82421875 552.900390625 -611.724609375 573.150390625 -630.624023438 c 4
 592.049804688 -648.174804688 615 -663.024414062 647.400390625 -663.024414062 c 4
 698.700195312 -663.024414062 764.75 -605 780.299804688 -450.774414062 c 6
 913.450195312 903.475585938 l 5
 937.75 1100.57519531 1035.25 1221.02539062 1162.45019531 1221.02539062 c 4
 1248.85058594 1221.02539062 1301.5 1175.125 1301.5 1113.02539062 c 4
 1301.5 1076.57519531 1275.84960938 1057.67578125 1254.25 1057.67578125 c 4
 1240.75 1057.67578125 1227.25 1080.625 1211.04980469 1110.32519531 c 4
 1190.79980469 1146.77539062 1163.79980469 1165.67578125 1134.09960938 1165.67578125 c 4
 1073.34960938 1165.67578125 1017.40039062 1064.125 1005.25 975.025390625 c 4
 999.849609375 933.17578125 885.599609375 -233.424804688 865.349609375 -444.024414062 c 4
 851.849609375 -588.474609375 705.75 -717.024414062 600.150390625 -717.024414062 c 4
200.150390625 -717.024414062 m 4
 131.30078125 -717.024414062 80 -692.724609375 80 -646.82421875 c 4
 80 -619.82421875 109.700195312 -592.82421875 125.900390625 -592.82421875 c 4
 139.400390625 -592.82421875 152.900390625 -611.724609375 173.150390625 -630.624023438 c 4
 192.049804688 -648.174804688 215 -663.024414062 247.400390625 -663.024414062 c 4
 298.700195312 -663.024414062 364.75 -605 380.299804688 -450.774414062 c 6
 513.450195312 903.475585938 l 5
 537.75 1100.57519531 635.25 1221.02539062 762.450195312 1221.02539062 c 4
 848.850585938 1221.02539062 901.5 1175.125 901.5 1113.02539062 c 4
 901.5 1076.57519531 875.849609375 1057.67578125 854.25 1057.67578125 c 4
 840.75 1057.67578125 827.25 1080.625 811.049804688 1110.32519531 c 4
 790.799804688 1146.77539062 763.799804688 1165.67578125 734.099609375 1165.67578125 c 4
 673.349609375 1165.67578125 617.400390625 1064.125 605.25 975.025390625 c 4
 599.849609375 933.17578125 485.599609375 -233.424804688 465.349609375 -444.024414062 c 4
 451.849609375 -588.474609375 305.75 -717.024414062 200.150390625 -717.024414062 c 4
1168.30078125 250 m 0
 1168.30078125 74 955.30078125 -68 691.30078125 -68 c 0
 427.30078125 -68 214.30078125 74 214.30078125 250 c 0
 214.30078125 426 427.30078125 568 691.30078125 568 c 0
 955.30078125 568 1168.30078125 426 1168.30078125 250 c 0
1106.3984375 250 m 0
 1106.3984375 398.10546875 913.458984375 518 691.30078125 518 c 0
 469.142578125 518 276.203125 398.10546875 276.203125 250 c 0
 276.203125 101.89453125 469.142578125 -18 691.30078125 -18 c 0
 913.458984375 -18 1106.3984375 101.89453125 1106.3984375 250 c 0
EndSplineSet
EndChar

StartChar: numbersign
Encoding: 35 35 34
Width: 1805
Flags: W
HStem: -717.024 54<186.823 280.673> 1165.68 55.3496<686.914 783.854>
LayerCount: 2
Fore
SplineSet
1000.15039062 -717.024414062 m 0
 931.30078125 -717.024414062 880 -692.724609375 880 -646.82421875 c 0
 880 -619.82421875 909.700195312 -592.82421875 925.900390625 -592.82421875 c 0
 939.400390625 -592.82421875 952.900390625 -611.724609375 973.150390625 -630.624023438 c 0
 992.049804688 -648.174804688 1015 -663.024414062 1047.40039062 -663.024414062 c 0
 1098.70019531 -663.024414062 1164.75 -605 1180.29980469 -450.774414062 c 2
 1313.45019531 903.475585938 l 1
 1337.75 1100.57519531 1435.25 1221.02539062 1562.45019531 1221.02539062 c 0
 1648.85058594 1221.02539062 1701.5 1175.125 1701.5 1113.02539062 c 0
 1701.5 1076.57519531 1675.84960938 1057.67578125 1654.25 1057.67578125 c 0
 1640.75 1057.67578125 1627.25 1080.625 1611.04980469 1110.32519531 c 0
 1590.79980469 1146.77539062 1563.79980469 1165.67578125 1534.09960938 1165.67578125 c 0
 1473.34960938 1165.67578125 1417.40039062 1064.125 1405.25 975.025390625 c 0
 1399.84960938 933.17578125 1285.59960938 -233.424804688 1265.34960938 -444.024414062 c 0
 1251.84960938 -588.474609375 1105.75 -717.024414062 1000.15039062 -717.024414062 c 0
600.150390625 -717.024414062 m 0
 531.30078125 -717.024414062 480 -692.724609375 480 -646.82421875 c 0
 480 -619.82421875 509.700195312 -592.82421875 525.900390625 -592.82421875 c 0
 539.400390625 -592.82421875 552.900390625 -611.724609375 573.150390625 -630.624023438 c 0
 592.049804688 -648.174804688 615 -663.024414062 647.400390625 -663.024414062 c 0
 698.700195312 -663.024414062 764.75 -605 780.299804688 -450.774414062 c 2
 913.450195312 903.475585938 l 1
 937.75 1100.57519531 1035.25 1221.02539062 1162.45019531 1221.02539062 c 0
 1248.85058594 1221.02539062 1301.5 1175.125 1301.5 1113.02539062 c 0
 1301.5 1076.57519531 1275.84960938 1057.67578125 1254.25 1057.67578125 c 0
 1240.75 1057.67578125 1227.25 1080.625 1211.04980469 1110.32519531 c 0
 1190.79980469 1146.77539062 1163.79980469 1165.67578125 1134.09960938 1165.67578125 c 0
 1073.34960938 1165.67578125 1017.40039062 1064.125 1005.25 975.025390625 c 0
 999.849609375 933.17578125 885.599609375 -233.424804688 865.349609375 -444.024414062 c 0
 851.849609375 -588.474609375 705.75 -717.024414062 600.150390625 -717.024414062 c 0
200.150390625 -717.024414062 m 0
 131.30078125 -717.024414062 80 -692.724609375 80 -646.82421875 c 0
 80 -619.82421875 109.700195312 -592.82421875 125.900390625 -592.82421875 c 0
 139.400390625 -592.82421875 152.900390625 -611.724609375 173.150390625 -630.624023438 c 0
 192.049804688 -648.174804688 215 -663.024414062 247.400390625 -663.024414062 c 0
 298.700195312 -663.024414062 364.75 -605 380.299804688 -450.774414062 c 2
 513.450195312 903.475585938 l 1
 537.75 1100.57519531 635.25 1221.02539062 762.450195312 1221.02539062 c 0
 848.850585938 1221.02539062 901.5 1175.125 901.5 1113.02539062 c 0
 901.5 1076.57519531 875.849609375 1057.67578125 854.25 1057.67578125 c 0
 840.75 1057.67578125 827.25 1080.625 811.049804688 1110.32519531 c 0
 790.799804688 1146.77539062 763.799804688 1165.67578125 734.099609375 1165.67578125 c 0
 673.349609375 1165.67578125 617.400390625 1064.125 605.25 975.025390625 c 0
 599.849609375 933.17578125 485.599609375 -233.424804688 465.349609375 -444.024414062 c 0
 451.849609375 -588.474609375 305.75 -717.024414062 200.150390625 -717.024414062 c 0
1574.00097656 250 m 0
 1574.00097656 74 1268.70117188 -68 890.30078125 -68 c 0
 511.900390625 -68 206.600585938 74 206.600585938 250 c 0
 206.600585938 426 511.900390625 568 890.30078125 568 c 0
 1268.70117188 568 1574.00097656 426 1574.00097656 250 c 0
1512.34375 250 m 0
 1512.34375 398.10546875 1208.7265625 518 890.30078125 518 c 0
 571.875 518 268.2578125 398.10546875 268.2578125 250 c 0
 268.2578125 101.89453125 571.875 -18 890.30078125 -18 c 0
 1208.7265625 -18 1512.34375 101.89453125 1512.34375 250 c 0
EndSplineSet
EndChar

StartChar: dollar
Encoding: 36 36 35
Width: 746
Flags: W
HStem: -296 44<183.668 207.668 183.668 215.168> 37.0986 40.001 422.9 40.001 752 44<537.668 561.668>
VStem: 159.799 40.001 545.601 40.001 551.668 114
LayerCount: 2
Fore
SplineSet
585.6015625 250 m 0xfc
 585.6015625 132.16796875 490.532226562 37.0986328125 372.700195312 37.0986328125 c 0
 254.868164062 37.0986328125 159.798828125 132.16796875 159.798828125 250 c 0
 159.798828125 367.83203125 254.868164062 462.901367188 372.700195312 462.901367188 c 0
 490.532226562 462.901367188 585.6015625 367.83203125 585.6015625 250 c 0xfc
545.600585938 250 m 0
 545.600585938 345.549804688 468.25 422.900390625 372.700195312 422.900390625 c 0
 277.150390625 422.900390625 199.799804688 345.549804688 199.799804688 250 c 0
 199.799804688 154.450195312 277.150390625 77.099609375 372.700195312 77.099609375 c 0
 468.25 77.099609375 545.600585938 154.450195312 545.600585938 250 c 0
665.66796875 703 m 0xfa
 662.66796875 670 638.66796875 645 602.66796875 645 c 0
 570.66796875 645 547.66796875 664 551.66796875 703 c 0
 552.66796875 708 555.66796875 720 563.66796875 727 c 0
 568.66796875 734 571.66796875 738 572.66796875 743 c 0
 572.66796875 747 567.66796875 752 555.66796875 752 c 0
 519.66796875 752 482.66796875 712 460.66796875 611 c 0
 448.66796875 556 429.66796875 370 416.66796875 250 c 0
 408.66796875 171 398.66796875 91 383.66796875 12 c 0
 334.66796875 -243 267.66796875 -296 162.66796875 -296 c 0
 109.66796875 -296 74.66796875 -258 80.66796875 -203 c 0
 83.66796875 -170 107.66796875 -145 143.66796875 -145 c 0
 175.66796875 -145 198.66796875 -164 194.66796875 -203 c 0
 193.66796875 -208 189.66796875 -220 181.66796875 -227 c 0
 176.66796875 -234 173.66796875 -238 172.66796875 -243 c 0
 172.66796875 -247 177.66796875 -252 189.66796875 -252 c 0
 225.66796875 -252 262.66796875 -212 284.66796875 -111 c 0
 296.66796875 -56 315.66796875 130 328.66796875 250 c 0
 336.66796875 329 346.66796875 409 361.66796875 488 c 0
 410.66796875 743 478.66796875 796 583.66796875 796 c 0
 636.66796875 796 671.66796875 758 665.66796875 703 c 0xfa
EndSplineSet
EndChar

StartChar: percent
Encoding: 37 37 36
Width: 1046
Flags: W
HStem: -296 44<183.668 207.668 183.668 215.168 483.668 507.668> 37.0986 40.001 422.9 40.001 752 44<537.668 561.668 837.668 861.668>
VStem: 203.348 50.002 551.668 114 792.051 50.002 851.668 114
LayerCount: 2
Fore
SplineSet
842.052734375 250 m 0
 842.052734375 132.16796875 699.448242188 37.0986328125 522.700195312 37.0986328125 c 0
 345.952148438 37.0986328125 203.34765625 132.16796875 203.34765625 250 c 0
 203.34765625 367.83203125 345.952148438 462.901367188 522.700195312 462.901367188 c 0
 699.448242188 462.901367188 842.052734375 367.83203125 842.052734375 250 c 0
792.05078125 250 m 0
 792.05078125 345.549804688 666.025390625 422.900390625 522.700195312 422.900390625 c 0
 379.375 422.900390625 253.349609375 345.549804688 253.349609375 250 c 0
 253.349609375 154.450195312 379.375 77.099609375 522.700195312 77.099609375 c 0
 666.025390625 77.099609375 792.05078125 154.450195312 792.05078125 250 c 0
965.66796875 703 m 0
 962.66796875 670 938.66796875 645 902.66796875 645 c 0
 870.66796875 645 847.66796875 664 851.66796875 703 c 0
 852.66796875 708 855.66796875 720 863.66796875 727 c 0
 868.66796875 734 871.66796875 738 872.66796875 743 c 0
 872.66796875 747 867.66796875 752 855.66796875 752 c 0
 819.66796875 752 782.66796875 712 760.66796875 611 c 0
 748.66796875 556 729.66796875 370 716.66796875 250 c 0
 708.66796875 171 698.66796875 91 683.66796875 12 c 0
 634.66796875 -243 567.66796875 -296 462.66796875 -296 c 0
 409.66796875 -296 374.66796875 -258 380.66796875 -203 c 0
 383.66796875 -170 407.66796875 -145 443.66796875 -145 c 0
 475.66796875 -145 498.66796875 -164 494.66796875 -203 c 0
 493.66796875 -208 489.66796875 -220 481.66796875 -227 c 0
 476.66796875 -234 473.66796875 -238 472.66796875 -243 c 0
 472.66796875 -247 477.66796875 -252 489.66796875 -252 c 0
 525.66796875 -252 562.66796875 -212 584.66796875 -111 c 0
 596.66796875 -56 615.66796875 130 628.66796875 250 c 0
 636.66796875 329 646.66796875 409 661.66796875 488 c 0
 710.66796875 743 778.66796875 796 883.66796875 796 c 0
 936.66796875 796 971.66796875 758 965.66796875 703 c 0
665.66796875 703 m 0
 662.66796875 670 638.66796875 645 602.66796875 645 c 0
 570.66796875 645 547.66796875 664 551.66796875 703 c 0
 552.66796875 708 555.66796875 720 563.66796875 727 c 0
 568.66796875 734 571.66796875 738 572.66796875 743 c 0
 572.66796875 747 567.66796875 752 555.66796875 752 c 0
 519.66796875 752 482.66796875 712 460.66796875 611 c 0
 448.66796875 556 429.66796875 370 416.66796875 250 c 0
 408.66796875 171 398.66796875 91 383.66796875 12 c 0
 334.66796875 -243 267.66796875 -296 162.66796875 -296 c 0
 109.66796875 -296 74.66796875 -258 80.66796875 -203 c 0
 83.66796875 -170 107.66796875 -145 143.66796875 -145 c 0
 175.66796875 -145 198.66796875 -164 194.66796875 -203 c 0
 193.66796875 -208 189.66796875 -220 181.66796875 -227 c 0
 176.66796875 -234 173.66796875 -238 172.66796875 -243 c 0
 172.66796875 -247 177.66796875 -252 189.66796875 -252 c 0
 225.66796875 -252 262.66796875 -212 284.66796875 -111 c 0
 296.66796875 -56 315.66796875 130 328.66796875 250 c 0
 336.66796875 329 346.66796875 409 361.66796875 488 c 0
 410.66796875 743 478.66796875 796 583.66796875 796 c 0
 636.66796875 796 671.66796875 758 665.66796875 703 c 0
EndSplineSet
EndChar

StartChar: ampersand
Encoding: 38 38 37
Width: 1346
Flags: W
HStem: -296 44<183.668 207.668 183.668 215.168 483.668 507.668 783.668 807.668> 37.0986 40.001 422.9 40.001 752 44<537.668 561.668 837.668 861.668 1137.67 1161.67>
VStem: 214.962 51.002 551.668 114 851.668 114 1079.44 51.0029 1151.67 114
LayerCount: 2
Fore
SplineSet
1130.43847656 250 m 0
 1130.43847656 132.16796875 926.0390625 37.0986328125 672.700195312 37.0986328125 c 0
 419.361328125 37.0986328125 214.961914062 132.16796875 214.961914062 250 c 0
 214.961914062 367.83203125 419.361328125 462.901367188 672.700195312 462.901367188 c 0
 926.0390625 462.901367188 1130.43847656 367.83203125 1130.43847656 250 c 0
1079.43554688 250 m 0
 1079.43554688 345.549804688 878.131835938 422.900390625 672.700195312 422.900390625 c 0
 467.268554688 422.900390625 265.963867188 345.549804688 265.963867188 250 c 0
 265.963867188 154.450195312 467.268554688 77.099609375 672.700195312 77.099609375 c 0
 878.131835938 77.099609375 1079.43554688 154.450195312 1079.43554688 250 c 0
965.66796875 703 m 0
 962.66796875 670 938.66796875 645 902.66796875 645 c 0
 870.66796875 645 847.66796875 664 851.66796875 703 c 0
 852.66796875 708 855.66796875 720 863.66796875 727 c 0
 868.66796875 734 871.66796875 738 872.66796875 743 c 0
 872.66796875 747 867.66796875 752 855.66796875 752 c 0
 819.66796875 752 782.66796875 712 760.66796875 611 c 0
 748.66796875 556 729.66796875 370 716.66796875 250 c 0
 708.66796875 171 698.66796875 91 683.66796875 12 c 0
 634.66796875 -243 567.66796875 -296 462.66796875 -296 c 0
 409.66796875 -296 374.66796875 -258 380.66796875 -203 c 0
 383.66796875 -170 407.66796875 -145 443.66796875 -145 c 0
 475.66796875 -145 498.66796875 -164 494.66796875 -203 c 0
 493.66796875 -208 489.66796875 -220 481.66796875 -227 c 0
 476.66796875 -234 473.66796875 -238 472.66796875 -243 c 0
 472.66796875 -247 477.66796875 -252 489.66796875 -252 c 0
 525.66796875 -252 562.66796875 -212 584.66796875 -111 c 0
 596.66796875 -56 615.66796875 130 628.66796875 250 c 0
 636.66796875 329 646.66796875 409 661.66796875 488 c 0
 710.66796875 743 778.66796875 796 883.66796875 796 c 0
 936.66796875 796 971.66796875 758 965.66796875 703 c 0
1265.66796875 703 m 0
 1262.66796875 670 1238.66796875 645 1202.66796875 645 c 0
 1170.66796875 645 1147.66796875 664 1151.66796875 703 c 0
 1152.66796875 708 1155.66796875 720 1163.66796875 727 c 0
 1168.66796875 734 1171.66796875 738 1172.66796875 743 c 0
 1172.66796875 747 1167.66796875 752 1155.66796875 752 c 0
 1119.66796875 752 1082.66796875 712 1060.66796875 611 c 0
 1048.66796875 556 1029.66796875 370 1016.66796875 250 c 0
 1008.66796875 171 998.66796875 91 983.66796875 12 c 0
 934.66796875 -243 867.66796875 -296 762.66796875 -296 c 0
 709.66796875 -296 674.66796875 -258 680.66796875 -203 c 0
 683.66796875 -170 707.66796875 -145 743.66796875 -145 c 0
 775.66796875 -145 798.66796875 -164 794.66796875 -203 c 0
 793.66796875 -208 789.66796875 -220 781.66796875 -227 c 0
 776.66796875 -234 773.66796875 -238 772.66796875 -243 c 0
 772.66796875 -247 777.66796875 -252 789.66796875 -252 c 0
 825.66796875 -252 862.66796875 -212 884.66796875 -111 c 0
 896.66796875 -56 915.66796875 130 928.66796875 250 c 0
 936.66796875 329 946.66796875 409 961.66796875 488 c 0
 1010.66796875 743 1078.66796875 796 1183.66796875 796 c 0
 1236.66796875 796 1271.66796875 758 1265.66796875 703 c 0
665.66796875 703 m 0
 662.66796875 670 638.66796875 645 602.66796875 645 c 0
 570.66796875 645 547.66796875 664 551.66796875 703 c 0
 552.66796875 708 555.66796875 720 563.66796875 727 c 0
 568.66796875 734 571.66796875 738 572.66796875 743 c 0
 572.66796875 747 567.66796875 752 555.66796875 752 c 0
 519.66796875 752 482.66796875 712 460.66796875 611 c 0
 448.66796875 556 429.66796875 370 416.66796875 250 c 0
 408.66796875 171 398.66796875 91 383.66796875 12 c 0
 334.66796875 -243 267.66796875 -296 162.66796875 -296 c 0
 109.66796875 -296 74.66796875 -258 80.66796875 -203 c 0
 83.66796875 -170 107.66796875 -145 143.66796875 -145 c 0
 175.66796875 -145 198.66796875 -164 194.66796875 -203 c 0
 193.66796875 -208 189.66796875 -220 181.66796875 -227 c 0
 176.66796875 -234 173.66796875 -238 172.66796875 -243 c 0
 172.66796875 -247 177.66796875 -252 189.66796875 -252 c 0
 225.66796875 -252 262.66796875 -212 284.66796875 -111 c 0
 296.66796875 -56 315.66796875 130 328.66796875 250 c 0
 336.66796875 329 346.66796875 409 361.66796875 488 c 0
 410.66796875 743 478.66796875 796 583.66796875 796 c 0
 636.66796875 796 671.66796875 758 665.66796875 703 c 0
EndSplineSet
EndChar

StartChar: quotesingle
Encoding: 39 39 38
Width: 746
Flags: W
HStem: -296 44<183.668 207.668 183.668 215.168> 752 44<537.668 561.668>
VStem: 160.028 41.0117 551.668 114
LayerCount: 2
Fore
SplineSet
160.028320312 265.009765625 m 2
 161.336914062 275.924804688 l 2
 175.698242188 392.87890625 281.645507812 475.653320312 398.598632812 461.29296875 c 0
 515.551757812 446.93359375 598.326171875 340.986328125 583.965820312 224.033203125 c 0
 582.920898438 215.5234375 581.392578125 207.1953125 579.409179688 199.072265625 c 1
 540.557617188 208.638671875 l 1
 542.172851562 215.236328125 543.416015625 221.999023438 544.264648438 228.908203125 c 0
 555.909179688 323.745117188 488.560546875 409.946289062 393.72265625 421.590820312 c 0
 298.88671875 433.235351562 212.684570312 365.887695312 201.040039062 271.05078125 c 0
 198.876953125 253.1875 179.166015625 248.555664062 169.240234375 249.774414062 c 0
 163.28515625 250.504882812 159.297851562 259.0546875 160.028320312 265.009765625 c 2
547.791015625 228.061523438 m 1
 579.80078125 224.130859375 l 1
 599.62890625 239.151367188 617.971679688 251.5078125 654.287109375 263.7734375 c 0
 655.361328125 264.13671875 659.413085938 261.44921875 660.14453125 259.364257812 c 0
 661.868164062 257.158203125 661.953125 250.099609375 661.588867188 247.134765625 c 0
 661.012695312 242.444335938 657.639648438 236.51171875 654.12890625 233.76953125 c 0
 619.73828125 207.841796875 587.401367188 190.025390625 561.630859375 152.4609375 c 0
 558.450195312 148.090820312 557.215820312 146.655273438 554.088867188 147.040039062 c 0
 550.961914062 147.423828125 550.44140625 147.487304688 548.146484375 154.645507812 c 0
 532.229492188 197.328125 505.078125 221.744140625 477.98046875 255.220703125 c 0
 475.23828125 258.731445312 473.400390625 265.3046875 473.9765625 269.995117188 c 0
 474.360351562 273.12109375 476.166992188 279.669921875 478.373046875 281.393554688 c 0
 480.580078125 283.1171875 483.529296875 283.178710938 486.463867188 281.231445312 c 0
 516.330078125 261.696289062 531.20703125 248.081054688 547.791015625 228.061523438 c 1
665.66796875 703 m 0
 662.66796875 670 638.66796875 645 602.66796875 645 c 0
 570.66796875 645 547.66796875 664 551.66796875 703 c 0
 552.66796875 708 555.66796875 720 563.66796875 727 c 0
 568.66796875 734 571.66796875 738 572.66796875 743 c 0
 572.66796875 747 567.66796875 752 555.66796875 752 c 0
 519.66796875 752 482.66796875 712 460.66796875 611 c 0
 448.66796875 556 429.66796875 370 416.66796875 250 c 0
 408.66796875 171 398.66796875 91 383.66796875 12 c 0
 334.66796875 -243 267.66796875 -296 162.66796875 -296 c 0
 109.66796875 -296 74.66796875 -258 80.66796875 -203 c 0
 83.66796875 -170 107.66796875 -145 143.66796875 -145 c 0
 175.66796875 -145 198.66796875 -164 194.66796875 -203 c 0
 193.66796875 -208 189.66796875 -220 181.66796875 -227 c 0
 176.66796875 -234 173.66796875 -238 172.66796875 -243 c 0
 172.66796875 -247 177.66796875 -252 189.66796875 -252 c 0
 225.66796875 -252 262.66796875 -212 284.66796875 -111 c 0
 296.66796875 -56 315.66796875 130 328.66796875 250 c 0
 336.66796875 329 346.66796875 409 361.66796875 488 c 0
 410.66796875 743 478.66796875 796 583.66796875 796 c 0
 636.66796875 796 671.66796875 758 665.66796875 703 c 0
EndSplineSet
EndChar

StartChar: parenleft
Encoding: 40 40 39
Width: 746
Flags: W
HStem: -296 44<183.668 207.668 183.668 215.168> 752 44<537.668 561.668>
VStem: 551.668 114<703 703>
LayerCount: 2
Fore
SplineSet
547.840820312 228.102539062 m 1
 579.850585938 224.171875 l 1
 599.677734375 239.192382812 618.020507812 251.548828125 654.3359375 263.815429688 c 0
 655.411132812 264.177734375 659.461914062 261.490234375 660.194335938 259.405273438 c 0
 661.91796875 257.19921875 662.002929688 250.140625 661.638671875 247.17578125 c 0
 661.0625 242.485351562 657.689453125 236.552734375 654.178710938 233.810546875 c 0
 619.788085938 207.8828125 587.450195312 190.06640625 561.680664062 152.501953125 c 0
 558.499023438 148.131835938 557.265625 146.696289062 554.138671875 147.081054688 c 0
 551.01171875 147.46484375 550.491210938 147.528320312 548.196289062 154.686523438 c 0
 532.279296875 197.369140625 505.127929688 221.78515625 478.030273438 255.26171875 c 0
 475.288085938 258.772460938 473.450195312 265.345703125 474.026367188 270.036132812 c 0
 474.41015625 273.162109375 476.216796875 279.7109375 478.422851562 281.434570312 c 0
 480.62890625 283.158203125 483.579101562 283.219726562 486.513671875 281.272460938 c 0
 516.379882812 261.737304688 531.256835938 248.122070312 547.840820312 228.102539062 c 1
479.1875 113.76171875 m 2
 492.375976562 123.296875 l 2
 494.60546875 125.038085938 500.4765625 127.35546875 503.66015625 124.93359375 c 0
 514.717773438 116.5234375 520.58984375 95.2255859375 503.873046875 82.1650390625 c 0
 460.97265625 48.6337890625 405.241210938 31.5244140625 346.754882812 38.7060546875 c 0
 229.802734375 53.0654296875 147.02734375 159.012695312 161.38671875 275.966796875 c 0
 175.748046875 392.919921875 281.6953125 475.694335938 398.6484375 461.334960938 c 0
 515.6015625 446.974609375 598.375976562 341.02734375 584.015625 224.07421875 c 0
 582.970703125 215.564453125 581.44140625 207.237304688 579.458984375 199.11328125 c 1
 540.607421875 208.6796875 l 1
 542.22265625 215.27734375 543.465820312 222.040039062 544.314453125 228.94921875 c 0
 555.958984375 323.786132812 488.610351562 409.987304688 393.772460938 421.631835938 c 0
 298.936523438 433.276367188 212.734375 365.928710938 201.08984375 271.091796875 c 0
 189.4453125 176.25390625 256.793945312 90.052734375 351.629882812 78.408203125 c 0
 399.057617188 72.5849609375 444.32421875 86.5166015625 479.1875 113.76171875 c 2
665.66796875 703 m 0
 662.66796875 670 638.66796875 645 602.66796875 645 c 0
 570.66796875 645 547.66796875 664 551.66796875 703 c 0
 552.66796875 708 555.66796875 720 563.66796875 727 c 0
 568.66796875 734 571.66796875 738 572.66796875 743 c 0
 572.66796875 747 567.66796875 752 555.66796875 752 c 0
 519.66796875 752 482.66796875 712 460.66796875 611 c 0
 448.66796875 556 429.66796875 370 416.66796875 250 c 0
 408.66796875 171 398.66796875 91 383.66796875 12 c 0
 334.66796875 -243 267.66796875 -296 162.66796875 -296 c 0
 109.66796875 -296 74.66796875 -258 80.66796875 -203 c 0
 83.66796875 -170 107.66796875 -145 143.66796875 -145 c 0
 175.66796875 -145 198.66796875 -164 194.66796875 -203 c 0
 193.66796875 -208 189.66796875 -220 181.66796875 -227 c 0
 176.66796875 -234 173.66796875 -238 172.66796875 -243 c 0
 172.66796875 -247 177.66796875 -252 189.66796875 -252 c 0
 225.66796875 -252 262.66796875 -212 284.66796875 -111 c 0
 296.66796875 -56 315.66796875 130 328.66796875 250 c 0
 336.66796875 329 346.66796875 409 361.66796875 488 c 0
 410.66796875 743 478.66796875 796 583.66796875 796 c 0
 636.66796875 796 671.66796875 758 665.66796875 703 c 0
EndSplineSet
EndChar

StartChar: parenright
Encoding: 41 41 40
Width: 746
Flags: W
HStem: -296 44<183.668 207.668 183.668 215.168> 752 44<537.668 561.668>
VStem: 551.668 114
LayerCount: 2
Fore
SplineSet
665.66796875 703 m 0
 662.66796875 670 638.66796875 645 602.66796875 645 c 0
 570.66796875 645 547.66796875 664 551.66796875 703 c 0
 552.66796875 708 555.66796875 720 563.66796875 727 c 0
 568.66796875 734 571.66796875 738 572.66796875 743 c 0
 572.66796875 747 567.66796875 752 555.66796875 752 c 0
 519.66796875 752 482.66796875 712 460.66796875 611 c 0
 448.66796875 556 429.66796875 370 416.66796875 250 c 0
 408.66796875 171 398.66796875 91 383.66796875 12 c 0
 334.66796875 -243 267.66796875 -296 162.66796875 -296 c 0
 109.66796875 -296 74.66796875 -258 80.66796875 -203 c 0
 83.66796875 -170 107.66796875 -145 143.66796875 -145 c 0
 175.66796875 -145 198.66796875 -164 194.66796875 -203 c 0
 193.66796875 -208 189.66796875 -220 181.66796875 -227 c 0
 176.66796875 -234 173.66796875 -238 172.66796875 -243 c 0
 172.66796875 -247 177.66796875 -252 189.66796875 -252 c 0
 225.66796875 -252 262.66796875 -212 284.66796875 -111 c 0
 296.66796875 -56 315.66796875 130 328.66796875 250 c 0
 336.66796875 329 346.66796875 409 361.66796875 488 c 0
 410.66796875 743 478.66796875 796 583.66796875 796 c 0
 636.66796875 796 671.66796875 758 665.66796875 703 c 0
547.940429688 228.916992188 m 1
 527.005859375 213.50390625 509.27734375 203.892578125 475.572265625 192.162109375 c 0
 472.25390625 190.983398438 469.40625 191.756835938 467.682617188 193.962890625 c 0
 465.958984375 196.168945312 465.790039062 202.9609375 466.173828125 206.0859375 c 0
 466.75 210.776367188 470.123046875 216.709960938 473.633789062 219.453125 c 0
 508.024414062 245.379882812 540.276367188 262.501953125 566.045898438 300.065429688 c 0
 570.004882812 306.456054688 570.525390625 306.392578125 573.65234375 306.0078125 c 0
 576.779296875 305.624023438 577.62890625 303.932617188 579.659179688 298.923828125 c 0
 595.576171875 256.241210938 622.642578125 231.129882812 649.739257812 197.65234375 c 0
 652.482421875 194.142578125 654.319335938 187.5703125 653.744140625 182.879882812 c 0
 653.379882812 179.915039062 651.58984375 173.086914062 649.383789062 171.36328125 c 0
 648.169921875 169.516601562 643.587890625 167.889648438 642.633789062 168.500976562 c 0
 610.364257812 189.188476562 595.555664062 205.616210938 579.950195312 224.986328125 c 1
 547.940429688 228.916992188 l 1
508.98828125 356.469726562 m 2
 481.751953125 391.33984375 441.19921875 415.80859375 393.772460938 421.631835938 c 0
 298.936523438 433.276367188 212.734375 365.928710938 201.08984375 271.091796875 c 0
 189.4453125 176.25390625 256.793945312 90.052734375 351.629882812 78.408203125 c 0
 446.467773438 66.763671875 532.669921875 134.111328125 544.314453125 228.94921875 c 0
 545.162109375 235.857421875 545.591796875 242.720703125 545.62109375 249.51171875 c 1
 585.631835938 249.395507812 l 1
 585.590820312 241.034179688 585.060546875 232.583007812 584.015625 224.07421875 c 0
 569.65625 107.120117188 463.708984375 24.345703125 346.755859375 38.7060546875 c 0
 229.802734375 53.0654296875 147.028320312 159.012695312 161.38671875 275.966796875 c 0
 175.747070312 392.919921875 281.6953125 475.694335938 398.647460938 461.334960938 c 0
 457.1328125 454.153320312 507.071289062 424.069335938 540.584960938 381.15625 c 0
 553.64453125 364.439453125 542.794921875 345.194335938 530.03125 339.708984375 c 0
 526.356445312 338.129882812 521.219726562 341.798828125 519.478515625 344.02734375 c 2
 508.98828125 356.469726562 l 2
EndSplineSet
EndChar

StartChar: asterisk
Encoding: 42 42 41
Width: 746
Flags: W
HStem: -296 44<183.668 207.668 183.668 215.168> 752 44<537.668 561.668>
VStem: 161.427 39.7031 551.668 114
LayerCount: 2
Fore
SplineSet
162.797851562 286.874023438 m 2
 163.529296875 292.829101562 169.466796875 300.16015625 175.421875 299.428710938 c 0
 185.34765625 298.209960938 203.352539062 288.947265625 201.129882812 271.091796875 c 0
 189.485351562 176.25390625 256.833007812 90.052734375 351.669921875 78.408203125 c 0
 446.5078125 66.763671875 532.708984375 134.111328125 544.353515625 228.94921875 c 0
 545.202148438 235.857421875 545.630859375 242.720703125 545.661132812 249.51171875 c 1
 585.671875 249.395507812 l 1
 585.630859375 241.034179688 585.100585938 232.583007812 584.055664062 224.07421875 c 0
 569.6953125 107.120117188 463.749023438 24.345703125 346.795898438 38.7060546875 c 0
 229.842773438 53.0654296875 147.067382812 159.012695312 161.426757812 275.966796875 c 2
 162.797851562 286.874023438 l 2
547.98046875 228.916992188 m 1
 527.045898438 213.50390625 509.317382812 203.892578125 475.612304688 192.162109375 c 0
 472.293945312 190.983398438 469.446289062 191.756835938 467.721679688 193.962890625 c 0
 465.999023438 196.168945312 465.830078125 202.9609375 466.213867188 206.086914062 c 0
 466.790039062 210.776367188 470.163085938 216.709960938 473.673828125 219.453125 c 0
 508.064453125 245.379882812 540.31640625 262.501953125 566.0859375 300.065429688 c 0
 570.044921875 306.456054688 570.565429688 306.392578125 573.692382812 306.0078125 c 0
 576.819335938 305.624023438 577.668945312 303.932617188 579.69921875 298.923828125 c 0
 595.616210938 256.241210938 622.682617188 231.129882812 649.779296875 197.65234375 c 0
 652.521484375 194.142578125 654.359375 187.5703125 653.784179688 182.879882812 c 0
 653.419921875 179.915039062 651.629882812 173.086914062 649.423828125 171.36328125 c 0
 648.208984375 169.516601562 643.627929688 167.889648438 642.672851562 168.501953125 c 0
 610.404296875 189.188476562 595.595703125 205.616210938 579.990234375 224.986328125 c 1
 547.98046875 228.916992188 l 1
665.66796875 703 m 0
 662.66796875 670 638.66796875 645 602.66796875 645 c 0
 570.66796875 645 547.66796875 664 551.66796875 703 c 0
 552.66796875 708 555.66796875 720 563.66796875 727 c 0
 568.66796875 734 571.66796875 738 572.66796875 743 c 0
 572.66796875 747 567.66796875 752 555.66796875 752 c 0
 519.66796875 752 482.66796875 712 460.66796875 611 c 0
 448.66796875 556 429.66796875 370 416.66796875 250 c 0
 408.66796875 171 398.66796875 91 383.66796875 12 c 0
 334.66796875 -243 267.66796875 -296 162.66796875 -296 c 0
 109.66796875 -296 74.66796875 -258 80.66796875 -203 c 0
 83.66796875 -170 107.66796875 -145 143.66796875 -145 c 0
 175.66796875 -145 198.66796875 -164 194.66796875 -203 c 0
 193.66796875 -208 189.66796875 -220 181.66796875 -227 c 0
 176.66796875 -234 173.66796875 -238 172.66796875 -243 c 0
 172.66796875 -247 177.66796875 -252 189.66796875 -252 c 0
 225.66796875 -252 262.66796875 -212 284.66796875 -111 c 0
 296.66796875 -56 315.66796875 130 328.66796875 250 c 0
 336.66796875 329 346.66796875 409 361.66796875 488 c 0
 410.66796875 743 478.66796875 796 583.66796875 796 c 0
 636.66796875 796 671.66796875 758 665.66796875 703 c 0
EndSplineSet
EndChar

StartChar: plus
Encoding: 43 43 42
Width: 1007
Flags: W
HStem: -717 49<194.432 221.432 194.432 225.932> -68 636<415.9 591.9> 1168 49<786.432 813.432>
VStem: 185.9 50 771.9 50
LayerCount: 2
Fore
SplineSet
821.900390625 250 m 4
 821.900390625 74 679.900390625 -68 503.900390625 -68 c 4
 327.900390625 -68 185.900390625 74 185.900390625 250 c 4
 185.900390625 426 327.900390625 568 503.900390625 568 c 4
 679.900390625 568 821.900390625 426 821.900390625 250 c 4
771.900390625 250 m 4
 771.900390625 398.10546875 652.005859375 518 503.900390625 518 c 4
 355.794921875 518 235.900390625 398.10546875 235.900390625 250 c 4
 235.900390625 101.89453125 355.794921875 -18 503.900390625 -18 c 4
 652.005859375 -18 771.900390625 101.89453125 771.900390625 250 c 4
925.931640625 1113 m 4
 918.931640625 1075 890.931640625 1047 849.931640625 1047 c 4
 814.931640625 1047 789.931640625 1068 797.931640625 1113 c 4
 798.931640625 1118 805.931640625 1132 813.931640625 1140 c 4
 818.931640625 1147 823.931640625 1151 824.931640625 1157 c 4
 825.931640625 1162 819.931640625 1168 806.931640625 1168 c 4
 765.931640625 1168 720.931640625 1122 688.931640625 1009 c 4
 667.931640625 934 599.931640625 463 561.931640625 250 c 4
 532.931640625 83 455.931640625 -268 428.931640625 -371 c 4
 353.931640625 -657 284.931640625 -717 166.931640625 -717 c 4
 107.931640625 -717 70.931640625 -674 81.931640625 -613 c 4
 88.931640625 -575 117.931640625 -547 158.931640625 -547 c 4
 193.931640625 -547 217.931640625 -568 209.931640625 -613 c 4
 208.931640625 -618 201.931640625 -632 193.931640625 -640 c 4
 188.931640625 -647 183.931640625 -651 182.931640625 -657 c 4
 181.931640625 -662 187.931640625 -668 200.931640625 -668 c 4
 241.931640625 -668 286.931640625 -622 318.931640625 -509 c 4
 339.931640625 -434 407.931640625 37 445.931640625 250 c 4
 474.931640625 417 552.931640625 768 579.931640625 871 c 4
 654.931640625 1157 723.931640625 1217 841.931640625 1217 c 4
 900.931640625 1217 936.931640625 1174 925.931640625 1113 c 4
EndSplineSet
EndChar

StartChar: comma
Encoding: 44 44 43
Width: 1405
Flags: W
HStem: -717 49<193.432 220.432 193.432 224.932 593.432 620.432> -68 50<592.821 814.979 592.821 835.9> 518 50<592.821 814.979> 1168 49<785.432 812.432 1185.43 1212.43>
VStem: 226.9 61.9023 1119 61.9023
LayerCount: 2
Fore
SplineSet
1180.90039062 250 m 0
 1180.90039062 74 967.900390625 -68 703.900390625 -68 c 0
 439.900390625 -68 226.900390625 74 226.900390625 250 c 0
 226.900390625 426 439.900390625 568 703.900390625 568 c 0
 967.900390625 568 1180.90039062 426 1180.90039062 250 c 0
1118.99804688 250 m 0
 1118.99804688 398.10546875 926.05859375 518 703.900390625 518 c 0
 481.7421875 518 288.802734375 398.10546875 288.802734375 250 c 0
 288.802734375 101.89453125 481.7421875 -18 703.900390625 -18 c 0
 926.05859375 -18 1118.99804688 101.89453125 1118.99804688 250 c 0
1324.93164062 1113 m 0
 1317.93164062 1075 1289.93164062 1047 1248.93164062 1047 c 0
 1213.93164062 1047 1188.93164062 1068 1196.93164062 1113 c 0
 1197.93164062 1118 1204.93164062 1132 1212.93164062 1140 c 0
 1217.93164062 1147 1222.93164062 1151 1223.93164062 1157 c 0
 1224.93164062 1162 1218.93164062 1168 1205.93164062 1168 c 0
 1164.93164062 1168 1119.93164062 1122 1087.93164062 1009 c 0
 1066.93164062 934 998.931640625 463 960.931640625 250 c 0
 931.931640625 83 854.931640625 -268 827.931640625 -371 c 0
 752.931640625 -657 683.931640625 -717 565.931640625 -717 c 0
 506.931640625 -717 469.931640625 -674 480.931640625 -613 c 0
 487.931640625 -575 516.931640625 -547 557.931640625 -547 c 0
 592.931640625 -547 616.931640625 -568 608.931640625 -613 c 0
 607.931640625 -618 600.931640625 -632 592.931640625 -640 c 0
 587.931640625 -647 582.931640625 -651 581.931640625 -657 c 0
 580.931640625 -662 586.931640625 -668 599.931640625 -668 c 0
 640.931640625 -668 685.931640625 -622 717.931640625 -509 c 0
 738.931640625 -434 806.931640625 37 844.931640625 250 c 0
 873.931640625 417 951.931640625 768 978.931640625 871 c 0
 1053.93164062 1157 1122.93164062 1217 1240.93164062 1217 c 0
 1299.93164062 1217 1335.93164062 1174 1324.93164062 1113 c 0
924.931640625 1113 m 0
 917.931640625 1075 889.931640625 1047 848.931640625 1047 c 0
 813.931640625 1047 788.931640625 1068 796.931640625 1113 c 0
 797.931640625 1118 804.931640625 1132 812.931640625 1140 c 0
 817.931640625 1147 822.931640625 1151 823.931640625 1157 c 0
 824.931640625 1162 818.931640625 1168 805.931640625 1168 c 0
 764.931640625 1168 719.931640625 1122 687.931640625 1009 c 0
 666.931640625 934 598.931640625 463 560.931640625 250 c 0
 531.931640625 83 454.931640625 -268 427.931640625 -371 c 0
 352.931640625 -657 283.931640625 -717 165.931640625 -717 c 0
 106.931640625 -717 69.931640625 -674 80.931640625 -613 c 0
 87.931640625 -575 116.931640625 -547 157.931640625 -547 c 0
 192.931640625 -547 216.931640625 -568 208.931640625 -613 c 0
 207.931640625 -618 200.931640625 -632 192.931640625 -640 c 0
 187.931640625 -647 182.931640625 -651 181.931640625 -657 c 0
 180.931640625 -662 186.931640625 -668 199.931640625 -668 c 0
 240.931640625 -668 285.931640625 -622 317.931640625 -509 c 0
 338.931640625 -434 406.931640625 37 444.931640625 250 c 0
 473.931640625 417 551.931640625 768 578.931640625 871 c 0
 653.931640625 1157 722.931640625 1217 840.931640625 1217 c 0
 899.931640625 1217 935.931640625 1174 924.931640625 1113 c 0
EndSplineSet
EndChar

StartChar: hyphen
Encoding: 45 45 44
Width: 1805
Flags: W
HStem: -717 49<193.432 220.432 193.432 224.932 593.432 620.432 993.432 1020.43> -68 636<713.7 1092.1> 1168 49<785.432 812.432 1185.43 1212.43 1585.43 1612.43>
VStem: 219.2 61.6572 1524.94 61.6572
LayerCount: 2
Fore
SplineSet
1586.60058594 250 m 0
 1586.60058594 74 1281.30078125 -68 902.900390625 -68 c 0
 524.5 -68 219.200195312 74 219.200195312 250 c 0
 219.200195312 426 524.5 568 902.900390625 568 c 0
 1281.30078125 568 1586.60058594 426 1586.60058594 250 c 0
1524.94335938 250 m 0
 1524.94335938 398.10546875 1221.32617188 518 902.900390625 518 c 0
 584.474609375 518 280.857421875 398.10546875 280.857421875 250 c 0
 280.857421875 101.89453125 584.474609375 -18 902.900390625 -18 c 0
 1221.32617188 -18 1524.94335938 101.89453125 1524.94335938 250 c 0
1724.93164062 1113 m 0
 1717.93164062 1075 1689.93164062 1047 1648.93164062 1047 c 0
 1613.93164062 1047 1588.93164062 1068 1596.93164062 1113 c 0
 1597.93164062 1118 1604.93164062 1132 1612.93164062 1140 c 0
 1617.93164062 1147 1622.93164062 1151 1623.93164062 1157 c 0
 1624.93164062 1162 1618.93164062 1168 1605.93164062 1168 c 0
 1564.93164062 1168 1519.93164062 1122 1487.93164062 1009 c 0
 1466.93164062 934 1398.93164062 463 1360.93164062 250 c 0
 1331.93164062 83 1254.93164062 -268 1227.93164062 -371 c 0
 1152.93164062 -657 1083.93164062 -717 965.931640625 -717 c 0
 906.931640625 -717 869.931640625 -674 880.931640625 -613 c 0
 887.931640625 -575 916.931640625 -547 957.931640625 -547 c 0
 992.931640625 -547 1016.93164062 -568 1008.93164062 -613 c 0
 1007.93164062 -618 1000.93164062 -632 992.931640625 -640 c 0
 987.931640625 -647 982.931640625 -651 981.931640625 -657 c 0
 980.931640625 -662 986.931640625 -668 999.931640625 -668 c 0
 1040.93164062 -668 1085.93164062 -622 1117.93164062 -509 c 0
 1138.93164062 -434 1206.93164062 37 1244.93164062 250 c 0
 1273.93164062 417 1351.93164062 768 1378.93164062 871 c 0
 1453.93164062 1157 1522.93164062 1217 1640.93164062 1217 c 0
 1699.93164062 1217 1735.93164062 1174 1724.93164062 1113 c 0
1324.93164062 1113 m 0
 1317.93164062 1075 1289.93164062 1047 1248.93164062 1047 c 0
 1213.93164062 1047 1188.93164062 1068 1196.93164062 1113 c 0
 1197.93164062 1118 1204.93164062 1132 1212.93164062 1140 c 0
 1217.93164062 1147 1222.93164062 1151 1223.93164062 1157 c 0
 1224.93164062 1162 1218.93164062 1168 1205.93164062 1168 c 0
 1164.93164062 1168 1119.93164062 1122 1087.93164062 1009 c 0
 1066.93164062 934 998.931640625 463 960.931640625 250 c 0
 931.931640625 83 854.931640625 -268 827.931640625 -371 c 0
 752.931640625 -657 683.931640625 -717 565.931640625 -717 c 0
 506.931640625 -717 469.931640625 -674 480.931640625 -613 c 0
 487.931640625 -575 516.931640625 -547 557.931640625 -547 c 0
 592.931640625 -547 616.931640625 -568 608.931640625 -613 c 0
 607.931640625 -618 600.931640625 -632 592.931640625 -640 c 0
 587.931640625 -647 582.931640625 -651 581.931640625 -657 c 0
 580.931640625 -662 586.931640625 -668 599.931640625 -668 c 0
 640.931640625 -668 685.931640625 -622 717.931640625 -509 c 0
 738.931640625 -434 806.931640625 37 844.931640625 250 c 0
 873.931640625 417 951.931640625 768 978.931640625 871 c 0
 1053.93164062 1157 1122.93164062 1217 1240.93164062 1217 c 0
 1299.93164062 1217 1335.93164062 1174 1324.93164062 1113 c 0
924.931640625 1113 m 0
 917.931640625 1075 889.931640625 1047 848.931640625 1047 c 0
 813.931640625 1047 788.931640625 1068 796.931640625 1113 c 0
 797.931640625 1118 804.931640625 1132 812.931640625 1140 c 0
 817.931640625 1147 822.931640625 1151 823.931640625 1157 c 0
 824.931640625 1162 818.931640625 1168 805.931640625 1168 c 0
 764.931640625 1168 719.931640625 1122 687.931640625 1009 c 0
 666.931640625 934 598.931640625 463 560.931640625 250 c 0
 531.931640625 83 454.931640625 -268 427.931640625 -371 c 0
 352.931640625 -657 283.931640625 -717 165.931640625 -717 c 0
 106.931640625 -717 69.931640625 -674 80.931640625 -613 c 0
 87.931640625 -575 116.931640625 -547 157.931640625 -547 c 0
 192.931640625 -547 216.931640625 -568 208.931640625 -613 c 0
 207.931640625 -618 200.931640625 -632 192.931640625 -640 c 0
 187.931640625 -647 182.931640625 -651 181.931640625 -657 c 0
 180.931640625 -662 186.931640625 -668 199.931640625 -668 c 0
 240.931640625 -668 285.931640625 -622 317.931640625 -509 c 0
 338.931640625 -434 406.931640625 37 444.931640625 250 c 0
 473.931640625 417 551.931640625 768 578.931640625 871 c 0
 653.931640625 1157 722.931640625 1217 840.931640625 1217 c 0
 899.931640625 1217 935.931640625 1174 924.931640625 1113 c 0
EndSplineSet
EndChar

StartChar: period
Encoding: 46 46 45
Width: 1007
Flags: W
HStem: -717 49<194.432 221.432 194.432 225.932> 1168 49<786.432 813.432>
VStem: 187.574 52.3662
LayerCount: 2
Fore
SplineSet
187.57421875 269.744140625 m 2
 186.532226562 263.834960938 190.067382812 255.087890625 195.975585938 254.045898438 c 0
 205.82421875 252.309570312 236.814453125 261.061523438 239.940429688 278.788085938 c 0
 265.658203125 424.643554688 404.55078125 521.896484375 550.40625 496.178710938 c 0
 696.26171875 470.459960938 793.515625 331.568359375 767.796875 185.712890625 c 1
 817.037109375 177.030273438 l 1
 847.599609375 350.356445312 732.415039062 514.857421875 559.088867188 545.418945312 c 0
 385.762695312 575.981445312 221.26171875 460.796875 190.700195312 287.470703125 c 2
 187.57421875 269.744140625 l 2
774.379882812 184.170898438 m 1
 752.217773438 213.971679688 728.536132812 239.471679688 687.387695312 269.57421875 c 0
 683.346679688 272.571289062 679.3828125 274.111328125 676.106445312 271.817382812 c 0
 672.830078125 269.5234375 670.010742188 261.72265625 669.229492188 257.291015625 c 0
 668.056640625 250.643554688 670.1875 241.12890625 673.837890625 235.916015625 c 0
 709.9921875 186.131835938 746.405273438 146.456054688 765.921875 84.3740234375 c 0
 768.66015625 73.990234375 769.3984375 73.8603515625 773.830078125 73.0791015625 c 0
 778.26171875 72.296875 780.129882812 74.2529296875 784.995117188 80.2490234375 c 0
 824.567382812 131.912109375 872.528320312 157.725585938 923.529296875 192.142578125 c 0
 928.743164062 195.79296875 933.999023438 204.004882812 935.170898438 210.65234375 c 0
 935.912109375 214.856445312 935.327148438 219.303710938 933.032226562 222.580078125 c 0
 930.737304688 225.856445312 926.061523438 226.955078125 924.509765625 226.494140625 c 0
 875.590820312 216.842773438 840.719726562 197.60546875 811.309570312 177.659179688 c 1
 774.379882812 184.170898438 l 1
925.931640625 1113 m 0
 936.931640625 1174 900.931640625 1217 841.931640625 1217 c 0
 723.931640625 1217 655.53125 1166.72460938 580.53125 880.724609375 c 0
 553.53125 777.724609375 474.931640625 417 445.931640625 250 c 0
 407.931640625 37 339.931640625 -434 318.931640625 -509 c 0
 286.931640625 -622 241.931640625 -668 200.931640625 -668 c 0
 187.931640625 -668 181.931640625 -662 182.931640625 -657 c 0
 183.931640625 -651 188.931640625 -647 193.931640625 -640 c 0
 201.931640625 -632 208.931640625 -618 209.931640625 -613 c 0
 217.931640625 -568 193.931640625 -547 158.931640625 -547 c 0
 117.931640625 -547 88.931640625 -575 81.931640625 -613 c 0
 70.931640625 -674 107.931640625 -717 166.931640625 -717 c 0
 284.931640625 -717 353.931640625 -657 428.931640625 -371 c 0
 455.931640625 -268 532.931640625 83 561.931640625 250 c 0
 599.931640625 463 667.931640625 934 688.931640625 1009 c 0
 720.931640625 1122 765.931640625 1168 806.931640625 1168 c 0
 819.931640625 1168 825.931640625 1162 824.931640625 1157 c 0
 823.931640625 1151 818.931640625 1147 813.931640625 1140 c 0
 805.931640625 1132 798.931640625 1118 797.931640625 1113 c 0
 789.931640625 1068 814.931640625 1047 849.931640625 1047 c 0
 890.931640625 1047 918.931640625 1075 925.931640625 1113 c 0
EndSplineSet
EndChar

StartChar: slash
Encoding: 47 47 46
Width: 1007
Flags: W
HStem: -717 49<194.432 221.432 194.432 225.932> 1168 49<786.432 813.432>
LayerCount: 2
Fore
SplineSet
193.866210938 323.059570312 m 2
 194.908203125 328.967773438 201.221679688 335.978515625 207.130859375 334.936523438 c 0
 216.978515625 333.200195312 243.106445312 314.376953125 239.981445312 296.650390625 c 0
 214.262695312 150.794921875 311.516601562 11.90234375 457.372070312 -13.8154296875 c 0
 603.227539062 -39.5341796875 742.120117188 57.7197265625 767.837890625 203.575195312 c 1
 817.078125 194.892578125 l 1
 786.516601562 21.56640625 622.015625 -93.6181640625 448.689453125 -63.0556640625 c 0
 275.36328125 -32.494140625 160.178710938 132.006835938 190.741210938 305.333007812 c 2
 193.866210938 323.059570312 l 2
774.55078125 202.772460938 m 1
 743.533203125 182.34765625 712.557617188 166.486328125 663.595703125 152.272460938 c 0
 658.7734375 150.837890625 654.521484375 150.747070312 652.227539062 154.022460938 c 0
 649.932617188 157.298828125 649.952148438 165.59375 650.733398438 170.025390625 c 0
 651.905273438 176.672851562 657.161132812 184.884765625 662.374023438 188.53515625 c 0
 713.375 222.952148438 761.163085938 247.780273438 800.735351562 299.444335938 c 0
 806.860351562 308.264648438 807.598632812 308.133789062 812.030273438 307.352539062 c 0
 816.461914062 306.571289062 817.548828125 304.094726562 820.069335938 296.796875 c 0
 839.584960938 234.713867188 875.825195312 194.053710938 911.979492188 144.26953125 c 0
 915.629882812 139.055664062 917.759765625 129.541992188 916.587890625 122.89453125 c 0
 915.846679688 118.690429688 913.775390625 114.7109375 910.499023438 112.416992188 c 0
 907.221679688 110.123046875 902.452148438 110.689453125 901.151367188 111.654296875 c 0
 858.483398438 137.455078125 832.295898438 167.458007812 811.481445312 196.260742188 c 1
 774.55078125 202.772460938 l 1
925.931640625 1113 m 0
 918.931640625 1075 890.931640625 1047 849.931640625 1047 c 0
 814.931640625 1047 789.931640625 1068 797.931640625 1113 c 0
 798.931640625 1118 805.931640625 1132 813.931640625 1140 c 0
 818.931640625 1147 823.931640625 1151 824.931640625 1157 c 0
 825.931640625 1162 819.931640625 1168 806.931640625 1168 c 0
 765.931640625 1168 720.931640625 1122 688.931640625 1009 c 0
 667.931640625 934 599.931640625 463 561.931640625 250 c 0
 532.931640625 83 455.931640625 -268 428.931640625 -371 c 0
 353.931640625 -657 284.931640625 -717 166.931640625 -717 c 0
 107.931640625 -717 70.931640625 -674 81.931640625 -613 c 0
 88.931640625 -575 117.931640625 -547 158.931640625 -547 c 0
 193.931640625 -547 217.931640625 -568 209.931640625 -613 c 0
 208.931640625 -618 201.931640625 -632 193.931640625 -640 c 0
 188.931640625 -647 183.931640625 -651 182.931640625 -657 c 0
 181.931640625 -662 187.931640625 -668 200.931640625 -668 c 0
 241.931640625 -668 286.931640625 -622 318.931640625 -509 c 0
 339.931640625 -434 407.931640625 37 445.931640625 250 c 0
 474.931640625 417 552.931640625 768 579.931640625 871 c 0
 654.931640625 1157 723.931640625 1217 841.931640625 1217 c 0
 900.931640625 1217 936.931640625 1174 925.931640625 1113 c 0
EndSplineSet
EndChar

StartChar: zero
Encoding: 48 48 47
Width: 1007
Flags: W
HStem: -717 49<194.432 221.432 194.432 225.932> 1168 49<786.432 813.432>
LayerCount: 2
Fore
SplineSet
774.400390625 202.165039062 m 1
 752.23828125 231.966796875 728.556640625 257.465820312 687.408203125 287.568359375 c 0
 683.3671875 290.56640625 679.403320312 292.10546875 676.126953125 289.811523438 c 0
 672.850585938 287.517578125 670.03125 279.716796875 669.25 275.28515625 c 0
 668.077148438 268.637695312 670.208007812 259.123046875 673.858398438 253.91015625 c 0
 710.012695312 204.125976562 746.42578125 164.450195312 765.94140625 102.368164062 c 0
 768.680664062 91.984375 769.418945312 91.8544921875 773.850585938 91.0732421875 c 0
 778.282226562 90.2919921875 780.150390625 92.2470703125 785.015625 98.2431640625 c 0
 824.587890625 149.90625 872.548828125 175.719726562 923.549804688 210.13671875 c 0
 928.763671875 213.787109375 934.01953125 221.999023438 935.19140625 228.646484375 c 0
 935.932617188 232.850585938 935.34765625 237.297851562 933.052734375 240.57421875 c 0
 930.7578125 243.850585938 926.08203125 244.94921875 924.530273438 244.48828125 c 0
 875.611328125 234.836914062 840.740234375 215.599609375 811.330078125 195.653320312 c 1
 774.400390625 202.165039062 l 1
817.057617188 195.024414062 m 1
 847.620117188 368.350585938 732.435546875 532.8515625 559.109375 563.413085938 c 0
 385.783203125 593.975585938 221.282226562 478.791015625 190.720703125 305.46484375 c 0
 160.158203125 132.138671875 275.342773438 -32.3623046875 448.668945312 -62.9248046875 c 0
 535.33203125 -78.205078125 619.7890625 -57.0498046875 686.400390625 -10.408203125 c 0
 703.77734375 1.7587890625 694.618164062 41.9599609375 682.80078125 44.0439453125 c 0
 678.861328125 44.73828125 674.575195312 43.4638671875 672.2578125 41.841796875 c 2
 657.635742188 30.671875 l 2
 601.465820312 -8.6591796875 530.279296875 -26.54296875 457.3515625 -13.68359375 c 0
 311.49609375 12.0341796875 214.2421875 150.926757812 239.9609375 296.782226562 c 0
 265.678710938 442.637695312 404.571289062 539.891601562 550.426757812 514.172851562 c 0
 696.282226562 488.455078125 793.536132812 349.5625 767.817382812 203.70703125 c 1
 817.057617188 195.024414062 l 1
925.931640625 1113 m 0
 936.931640625 1174 900.931640625 1217 841.931640625 1217 c 0
 723.931640625 1217 655.53125 1166.72460938 580.53125 880.724609375 c 0
 553.53125 777.724609375 474.931640625 417 445.931640625 250 c 0
 407.931640625 37 339.931640625 -434 318.931640625 -509 c 0
 286.931640625 -622 241.931640625 -668 200.931640625 -668 c 0
 187.931640625 -668 181.931640625 -662 182.931640625 -657 c 0
 183.931640625 -651 188.931640625 -647 193.931640625 -640 c 0
 201.931640625 -632 208.931640625 -618 209.931640625 -613 c 0
 217.931640625 -568 193.931640625 -547 158.931640625 -547 c 0
 117.931640625 -547 88.931640625 -575 81.931640625 -613 c 0
 70.931640625 -674 107.931640625 -717 166.931640625 -717 c 0
 284.931640625 -717 353.931640625 -657 428.931640625 -371 c 0
 455.931640625 -268 532.931640625 83 561.931640625 250 c 0
 599.931640625 463 667.931640625 934 688.931640625 1009 c 0
 720.931640625 1122 765.931640625 1168 806.931640625 1168 c 0
 819.931640625 1168 825.931640625 1162 824.931640625 1157 c 0
 823.931640625 1151 818.931640625 1147 813.931640625 1140 c 0
 805.931640625 1132 798.931640625 1118 797.931640625 1113 c 0
 789.931640625 1068 814.931640625 1047 849.931640625 1047 c 0
 890.931640625 1047 918.931640625 1075 925.931640625 1113 c 0
EndSplineSet
EndChar

StartChar: one
Encoding: 49 49 48
Width: 1007
Flags: W
HStem: -717 49<194.432 221.432 194.432 225.932> 1168 49<786.432 813.432>
LayerCount: 2
Fore
SplineSet
925.931640625 1113 m 0
 918.931640625 1075 890.931640625 1047 849.931640625 1047 c 0
 814.931640625 1047 789.931640625 1068 797.931640625 1113 c 0
 798.931640625 1118 805.931640625 1132 813.931640625 1140 c 0
 818.931640625 1147 823.931640625 1151 824.931640625 1157 c 0
 825.931640625 1162 819.931640625 1168 806.931640625 1168 c 0
 765.931640625 1168 720.931640625 1122 688.931640625 1009 c 0
 667.931640625 934 599.931640625 463 561.931640625 250 c 0
 532.931640625 83 455.931640625 -268 428.931640625 -371 c 0
 353.931640625 -657 284.931640625 -717 166.931640625 -717 c 0
 107.931640625 -717 70.931640625 -674 81.931640625 -613 c 0
 88.931640625 -575 117.931640625 -547 158.931640625 -547 c 0
 193.931640625 -547 217.931640625 -568 209.931640625 -613 c 0
 208.931640625 -618 201.931640625 -632 193.931640625 -640 c 0
 188.931640625 -647 183.931640625 -651 182.931640625 -657 c 0
 181.931640625 -662 187.931640625 -668 200.931640625 -668 c 0
 241.931640625 -668 286.931640625 -622 318.931640625 -509 c 0
 339.931640625 -434 407.931640625 37 445.931640625 250 c 0
 474.931640625 417 552.931640625 768 579.931640625 871 c 0
 654.931640625 1157 723.931640625 1217 841.931640625 1217 c 0
 900.931640625 1217 936.931640625 1174 925.931640625 1113 c 0
774.530273438 202.904296875 m 1
 743.512695312 182.479492188 712.537109375 166.6171875 663.575195312 152.404296875 c 0
 658.752929688 150.969726562 654.500976562 150.877929688 652.20703125 154.154296875 c 0
 649.912109375 157.430664062 649.931640625 165.725585938 650.712890625 170.157226562 c 0
 651.884765625 176.8046875 657.140625 185.016601562 662.353515625 188.666992188 c 0
 713.354492188 223.083007812 761.142578125 247.912109375 800.71484375 299.575195312 c 0
 806.83984375 308.396484375 807.578125 308.265625 812.009765625 307.484375 c 0
 816.44140625 306.703125 817.528320312 304.2265625 820.048828125 296.927734375 c 0
 839.564453125 234.845703125 875.8046875 194.185546875 911.958984375 144.400390625 c 0
 915.609375 139.1875 917.739257812 129.673828125 916.567382812 123.026367188 c 0
 915.826171875 118.822265625 913.754882812 114.842773438 910.478515625 112.548828125 c 0
 907.201171875 110.254882812 902.431640625 110.821289062 901.130859375 111.78515625 c 0
 858.462890625 137.586914062 832.275390625 167.58984375 811.4609375 196.392578125 c 1
 774.530273438 202.904296875 l 1
817.057617188 195.024414062 m 1
 786.49609375 21.6982421875 621.995117188 -93.486328125 448.668945312 -62.9248046875 c 0
 275.342773438 -32.3623046875 160.158203125 132.138671875 190.720703125 305.46484375 c 0
 221.282226562 478.791015625 385.783203125 593.975585938 559.109375 563.413085938 c 0
 645.772460938 548.131835938 717.900390625 499.366210938 764.541992188 432.754882812 c 0
 776.708984375 415.37890625 754.353515625 380.734375 742.536132812 382.818359375 c 0
 738.596679688 383.512695312 735.004882812 386.176757812 733.3828125 388.494140625 c 2
 723.461914062 403.991210938 l 2
 684.131835938 460.161132812 623.354492188 501.313476562 550.426757812 514.172851562 c 0
 404.571289062 539.891601562 265.678710938 442.637695312 239.9609375 296.782226562 c 0
 214.2421875 150.926757812 311.49609375 12.0341796875 457.3515625 -13.68359375 c 0
 603.20703125 -39.40234375 742.099609375 57.8515625 767.817382812 203.70703125 c 1
 817.057617188 195.024414062 l 1
EndSplineSet
EndChar

StartChar: two
Encoding: 50 50 49
Width: 0
Flags: W
HStem: -194 44<-369 -131>
VStem: -369 14.7998<-192 -152> -145.8 14.7998<-192 -152>
LayerCount: 2
Fore
SplineSet
-145.799804688 -152 m 1
 -172.200195312 -124.799804688 -170.200195312 -116.400390625 -186.200195312 -76.400390625 c 0
 -192.599609375 -62 -189.400390625 -58 -183 -58 c 0
 -175.799804688 -58 -166.200195312 -62 -161.400390625 -66.7998046875 c 0
 -115.799804688 -114 -100.200195312 -129.599609375 -38.599609375 -161.599609375 c 0
 -31.400390625 -165.599609375 -29 -167.200195312 -29 -172 c 0
 -29 -176.799804688 -29 -177.599609375 -39.400390625 -182.400390625 c 0
 -101 -214.400390625 -116.599609375 -230 -162.200195312 -277.200195312 c 0
 -167 -282 -176.599609375 -286 -183.799804688 -286 c 0
 -188.599609375 -286 -191.799804688 -284.400390625 -191.799804688 -280.400390625 c 0
 -191.799804688 -279.599609375 -191.799804688 -278.799804688 -191 -277.200195312 c 0
 -171.799804688 -227.599609375 -173 -220.799804688 -145.799804688 -192 c 1
 -145.799804688 -152 l 1
-354.200195312 -152 m 1
 -354.200195312 -192 l 1
 -327 -220.799804688 -328.200195312 -227.599609375 -309 -277.200195312 c 0
 -308.200195312 -278.799804688 -308.200195312 -279.599609375 -308.200195312 -280.400390625 c 0
 -308.200195312 -284.400390625 -311.400390625 -286 -316.200195312 -286 c 0
 -323.400390625 -286 -333 -282 -337.799804688 -277.200195312 c 0
 -383.400390625 -230 -399 -214.400390625 -460.599609375 -182.400390625 c 0
 -471 -177.599609375 -471 -176.799804688 -471 -172 c 0
 -471 -167.200195312 -468.599609375 -165.599609375 -461.400390625 -161.599609375 c 0
 -399.799804688 -129.599609375 -384.200195312 -114 -338.599609375 -66.7998046875 c 0
 -333.799804688 -62 -324.200195312 -58 -317 -58 c 0
 -310.599609375 -58 -307.400390625 -62 -313.799804688 -76.400390625 c 0
 -329.799804688 -116.400390625 -327.799804688 -124.799804688 -354.200195312 -152 c 1
-131 -194 m 1
 -369 -194 l 1
 -369 -150 l 1
 -131 -150 l 5
 -131 -194 l 1
EndSplineSet
EndChar

StartChar: three
Encoding: 51 51 50
Width: 0
Flags: W
HStem: 600 44<-327 -89>
VStem: -370 52.7998<600 627>
LayerCount: 2
Fore
SplineSet
-434 600 m 4
 -434 604.799804688 -431.599609375 617.400390625 -424.400390625 621.400390625 c 4
 -362.799804688 653.400390625 -347.200195312 680 -301.599609375 727.200195312 c 4
 -296.799804688 732 -287.200195312 736 -280 736 c 4
 -273.599609375 736 -270.400390625 732 -276.799804688 717.599609375 c 4
 -292.799804688 677.599609375 -290.799804688 669.200195312 -317.200195312 642 c 5
 -317.200195312 600 l 5
 -434 600 l 4
-327 644 m 5
 -89 644 l 1
 -89 600 l 1
 -370 600 l 5
 -370 627 l 5
 -327 644 l 5
EndSplineSet
EndChar

StartChar: four
Encoding: 52 52 51
Width: 0
Flags: W
HStem: 600 44<-401 -147.864> 600 22<-119.136 -94>
LayerCount: 2
Fore
SplineSet
-182.799804688 600 m 5x80
 -182.799804688 642 l 5
 -209.200195312 669.200195312 -207.200195312 677.599609375 -223.200195312 717.599609375 c 4
 -229.599609375 732 -226.400390625 736 -220 736 c 4
 -212.799804688 736 -203.200195312 732 -198.400390625 727.200195312 c 4
 -152.799804688 680 -137.200195312 653.400390625 -75.599609375 621.400390625 c 4
 -68.400390625 617.400390625 -66 604.799804688 -66 600 c 4x40
 -182.799804688 600 l 5x80
-94 622 m 1
 -94 600 l 1x40
 -401 600 l 1
 -401 644 l 1
 -173 644 l 1x80
 -94 622 l 1
EndSplineSet
EndChar

StartChar: five
Encoding: 53 53 52
Width: 0
Flags: W
HStem: 606.24 20.3652<-273.752 -251.33> 606.627 47.2626<-344.427 -273.163> 694 44<-318.358 -175.642>
VStem: -421.538 48.8275<682.174 753.871>
LayerCount: 2
Fore
SplineSet
-372.7109375 682.173828125 m 1x70
 -344.426757812 653.889648438 l 1x70
 -304.828125 652.7578125 -300.869140625 648.1015625 -252.219726562 626.60546875 c 0
 -246.668138314 624.75600408 -246.622565263 619.757625973 -251.087890625 615.291015625 c 0
 -256.1796875 610.200195312 -265.795898438 606.240234375 -272.583984375 606.240234375 c 0xb0
 -284.964414424 606.453775835 -295.794346123 606.627028811 -305.662629708 606.627028811 c 0
 -348.099308287 606.627028811 -372.75254941 603.42311939 -426.450195312 586.44140625 c 0
 -442.392286541 580.569757496 -445.747060994 586.506271739 -441.724609375 600.583984375 c 0
 -424.741513637 654.286794552 -421.538465201 678.939184477 -421.538465201 721.382000074 c 0
 -421.538465201 731.247451995 -421.711522174 742.074099872 -421.924804688 754.450195312 c 0
 -421.924804688 768.692507199 -408.42552329 793.339715782 -397.600585938 765.198242188 c 0
 -380.629882812 725.599609375 -373.276367188 720.075195312 -372.7109375 682.173828125 c 1x70
-247 694 m 0
 -303 694 -354 658 -373 605 c 1
 -414 619 l 1
 -389 690 -322 738 -247 738 c 0
 -172 738 -105 690 -80 619 c 1
 -121 605 l 1
 -140 658 -191 694 -247 694 c 0
EndSplineSet
EndChar

StartChar: six
Encoding: 54 54 53
Width: 0
Flags: W
HStem: 606.627 47.2627<-250.113 -178.85> 694 44<-347.634 -204.918>
VStem: -150.565 48.8271<682.174 753.871>
LayerCount: 2
Fore
SplineSet
-150.565429688 682.173828125 m 1
 -150 720.075195312 -142.646484375 725.599609375 -125.67578125 765.198242188 c 0
 -114.8515625 793.33984375 -101.3515625 768.692382812 -101.3515625 754.450195312 c 0
 -101.565429688 742.07421875 -101.73828125 731.247070312 -101.73828125 721.381835938 c 0
 -101.73828125 678.939453125 -98.53515625 654.287109375 -81.5517578125 600.583984375 c 0
 -77.529296875 586.505859375 -80.884765625 580.569335938 -96.826171875 586.44140625 c 0
 -150.524414062 603.422851562 -175.177734375 606.626953125 -217.614257812 606.626953125 c 0
 -227.482421875 606.626953125 -238.3125 606.454101562 -250.692382812 606.240234375 c 0
 -257.48046875 606.240234375 -267.096679688 610.200195312 -272.188476562 615.291015625 c 0
 -276.654296875 619.7578125 -276.608398438 624.755859375 -271.056640625 626.60546875 c 0
 -222.407226562 648.1015625 -218.448242188 652.7578125 -178.849609375 653.889648438 c 1
 -150.565429688 682.173828125 l 1
-276.276367188 694 m 0
 -332.276367188 694 -383.276367188 658 -402.276367188 605 c 1
 -443.276367188 619 l 1
 -418.276367188 690 -351.276367188 738 -276.276367188 738 c 0
 -201.276367188 738 -134.276367188 690 -109.276367188 619 c 1
 -150.276367188 605 l 1
 -169.276367188 658 -220.276367188 694 -276.276367188 694 c 0
EndSplineSet
EndChar

StartChar: seven
Encoding: 55 55 54
Width: 0
Flags: W
HStem: 600 44<-332 -89>
VStem: -332 14.7998<602 642>
LayerCount: 2
Fore
SplineSet
-317.200195312 642 m 5
 -317.200195312 602 l 5
 -290 573.200195312 -291.200195312 566.400390625 -272 516.799804688 c 4
 -271.200195312 515.200195312 -271.200195312 514.400390625 -271.200195312 513.599609375 c 4
 -271.200195312 509.599609375 -274.400390625 508 -279.200195312 508 c 4
 -286.400390625 508 -296 512 -300.799804688 516.799804688 c 4
 -346.400390625 564 -362 579.599609375 -423.599609375 611.599609375 c 4
 -434 616.400390625 -434 617.200195312 -434 622 c 4
 -434 626.799804688 -431.599609375 628.400390625 -424.400390625 632.400390625 c 4
 -362.799804688 664.400390625 -347.200195312 680 -301.599609375 727.200195312 c 4
 -296.799804688 732 -287.200195312 736 -280 736 c 4
 -273.599609375 736 -270.400390625 732 -276.799804688 717.599609375 c 4
 -292.799804688 677.599609375 -290.799804688 669.200195312 -317.200195312 642 c 5
-332 644 m 5
 -89 644 l 1
 -89 600 l 1
 -332 600 l 5
 -332 644 l 5
EndSplineSet
EndChar

StartChar: eight
Encoding: 56 56 55
Width: 0
Flags: W
HStem: 600 44<-411 -168>
VStem: -182.8 14.7998<602 642>
LayerCount: 2
Fore
SplineSet
-182.799804688 642 m 5
 -209.200195312 669.200195312 -207.200195312 677.599609375 -223.200195312 717.599609375 c 4
 -229.599609375 732 -226.400390625 736 -220 736 c 4
 -212.799804688 736 -203.200195312 732 -198.400390625 727.200195312 c 4
 -152.799804688 680 -137.200195312 664.400390625 -75.599609375 632.400390625 c 4
 -68.400390625 628.400390625 -66 626.799804688 -66 622 c 4
 -66 617.200195312 -66 616.400390625 -76.400390625 611.599609375 c 4
 -138 579.599609375 -153.599609375 564 -199.200195312 516.799804688 c 4
 -204 512 -213.599609375 508 -220.799804688 508 c 4
 -225.599609375 508 -228.799804688 509.599609375 -228.799804688 513.599609375 c 4
 -228.799804688 514.400390625 -228.799804688 515.200195312 -228 516.799804688 c 4
 -208.799804688 566.400390625 -210 573.200195312 -182.799804688 602 c 5
 -182.799804688 642 l 5
-168 600 m 5
 -411 600 l 1
 -411 644 l 1
 -168 644 l 5
 -168 600 l 5
EndSplineSet
EndChar

StartChar: nine
Encoding: 57 57 56
Width: 0
Flags: W
HStem: 600 44<-369 -131>
VStem: -369 14.7998<602 642> -145.8 14.7998<602 642>
LayerCount: 2
Fore
SplineSet
-145.799804688 642 m 5
 -172.200195312 669.200195312 -170.200195312 677.599609375 -186.200195312 717.599609375 c 4
 -192.599609375 732 -189.400390625 736 -183 736 c 4
 -175.799804688 736 -166.200195312 732 -161.400390625 727.200195312 c 4
 -115.799804688 680 -100.200195312 664.400390625 -38.599609375 632.400390625 c 4
 -31.400390625 628.400390625 -29 626.799804688 -29 622 c 4
 -29 617.200195312 -29 616.400390625 -39.400390625 611.599609375 c 4
 -101 579.599609375 -116.599609375 564 -162.200195312 516.799804688 c 4
 -167 512 -176.599609375 508 -183.799804688 508 c 4
 -188.599609375 508 -191.799804688 509.599609375 -191.799804688 513.599609375 c 4
 -191.799804688 514.400390625 -191.799804688 515.200195312 -191 516.799804688 c 4
 -171.799804688 566.400390625 -173 573.200195312 -145.799804688 602 c 5
 -145.799804688 642 l 5
-354.200195312 642 m 1
 -354.200195312 602 l 1
 -327 573.200195312 -328.200195312 566.400390625 -309 516.799804688 c 0
 -308.200195312 515.200195312 -308.200195312 514.400390625 -308.200195312 513.599609375 c 0
 -308.200195312 509.599609375 -311.400390625 508 -316.200195312 508 c 0
 -323.400390625 508 -333 512 -337.799804688 516.799804688 c 0
 -383.400390625 564 -399 579.599609375 -460.599609375 611.599609375 c 0
 -471 616.400390625 -471 617.200195312 -471 622 c 0
 -471 626.799804688 -468.599609375 628.400390625 -461.400390625 632.400390625 c 0
 -399.799804688 664.400390625 -384.200195312 680 -338.599609375 727.200195312 c 0
 -333.799804688 732 -324.200195312 736 -317 736 c 0
 -310.599609375 736 -307.400390625 732 -313.799804688 717.599609375 c 0
 -329.799804688 677.599609375 -327.799804688 669.200195312 -354.200195312 642 c 1
-131 600 m 1
 -369 600 l 1
 -369 644 l 1
 -131 644 l 1
 -131 600 l 1
EndSplineSet
EndChar

StartChar: colon
Encoding: 58 58 57
Width: 806
Flags: W
HStem: 224 52<199 798>
VStem: 199 25<227 273>
LayerCount: 2
Fore
SplineSet
224 227 m 5
 257 193 294 143 314 93 c 4
 322 75 318 70 310 70 c 4
 301 70 289 75 283 81 c 4
 226 140 169 197 92 237 c 4
 83 242 80 244 80 250 c 4
 80 256 80 257 93 263 c 4
 170 303 227 360 284 419 c 4
 290 425 302 430 311 430 c 4
 317 430 321 428 321 423 c 4
 321 422 321 421 320 419 c 4
 296 357 258 309 224 273 c 5
 224 227 l 5
199 276 m 1
 798 276 l 1
 798 224 l 1
 199 224 l 1
 199 276 l 1
EndSplineSet
EndChar

StartChar: semicolon
Encoding: 59 59 58
Width: 0
Flags: W
HStem: -194 44<-173 -147.864> -172 22<-119.136 -94>
LayerCount: 2
Fore
SplineSet
-182.799804688 -150 m 5x40
 -182.799804688 -192 l 5
 -209.200195312 -219.200195312 -207.200195312 -227.599609375 -223.200195312 -267.599609375 c 4
 -229.599609375 -282 -226.400390625 -286 -220 -286 c 4
 -212.799804688 -286 -203.200195312 -282 -198.400390625 -277.200195312 c 4
 -152.799804688 -230 -137.200195312 -203.400390625 -75.599609375 -171.400390625 c 4
 -68.400390625 -167.400390625 -66 -154.799804688 -66 -150 c 4
 -182.799804688 -150 l 5x40
-94 -172 m 5
 -94 -150 l 5
 -401 -150 l 1x40
 -401 -194 l 1
 -173 -194 l 5x80
 -94 -172 l 5
EndSplineSet
EndChar

StartChar: less
Encoding: 60 60 59
Width: 0
Flags: W
HStem: -286 136<-287.2 -273.6>
LayerCount: 2
Fore
SplineSet
-434 -150 m 4
 -434 -154.799804688 -431.599609375 -167.400390625 -424.400390625 -171.400390625 c 4
 -362.799804688 -203.400390625 -347.200195312 -230 -301.599609375 -277.200195312 c 4
 -296.799804688 -282 -287.200195312 -286 -280 -286 c 4
 -273.599609375 -286 -270.400390625 -282 -276.799804688 -267.599609375 c 4
 -292.799804688 -227.599609375 -290.799804688 -219.200195312 -317.200195312 -192 c 5
 -317.200195312 -150 l 5
 -434 -150 l 4
-327 -194 m 5
 -89 -194 l 1
 -89 -150 l 1
 -370 -150 l 5
 -370 -177 l 5
 -327 -194 l 5
EndSplineSet
EndChar

StartChar: equal
Encoding: 61 61 60
Width: 0
Flags: W
HStem: -194 44<-332 -89>
VStem: -332 14.7998<-192 -152>
LayerCount: 2
Fore
SplineSet
-317.200195312 -152 m 5
 -317.200195312 -192 l 5
 -290 -220.799804688 -291.200195312 -227.599609375 -272 -277.200195312 c 4
 -271.200195312 -278.799804688 -271.200195312 -279.599609375 -271.200195312 -280.400390625 c 4
 -271.200195312 -284.400390625 -274.400390625 -286 -279.200195312 -286 c 4
 -286.400390625 -286 -296 -282 -300.799804688 -277.200195312 c 4
 -346.400390625 -230 -362 -214.400390625 -423.599609375 -182.400390625 c 4
 -434 -177.599609375 -434 -176.799804688 -434 -172 c 4
 -434 -167.200195312 -431.599609375 -165.599609375 -424.400390625 -161.599609375 c 4
 -362.799804688 -129.599609375 -347.200195312 -114 -301.599609375 -66.7998046875 c 4
 -296.799804688 -62 -287.200195312 -58 -280 -58 c 4
 -273.599609375 -58 -270.400390625 -62 -276.799804688 -76.400390625 c 4
 -292.799804688 -116.400390625 -290.799804688 -124.799804688 -317.200195312 -152 c 5
-332 -150 m 5
 -89 -150 l 1
 -89 -194 l 1
 -332 -194 l 5
 -332 -150 l 5
EndSplineSet
EndChar

StartChar: greater
Encoding: 62 62 61
Width: 0
Flags: W
HStem: -194 44<-411 -168>
VStem: -182.8 14.7998<-192 -152>
LayerCount: 2
Fore
SplineSet
-182.799804688 -152 m 5
 -209.200195312 -124.799804688 -207.200195312 -116.400390625 -223.200195312 -76.400390625 c 4
 -229.599609375 -62 -226.400390625 -58 -220 -58 c 4
 -212.799804688 -58 -203.200195312 -62 -198.400390625 -66.7998046875 c 4
 -152.799804688 -114 -137.200195312 -129.599609375 -75.599609375 -161.599609375 c 4
 -68.400390625 -165.599609375 -66 -167.200195312 -66 -172 c 4
 -66 -176.799804688 -66 -177.599609375 -76.400390625 -182.400390625 c 4
 -138 -214.400390625 -153.599609375 -230 -199.200195312 -277.200195312 c 4
 -204 -282 -213.599609375 -286 -220.799804688 -286 c 4
 -225.599609375 -286 -228.799804688 -284.400390625 -228.799804688 -280.400390625 c 4
 -228.799804688 -279.599609375 -228.799804688 -278.799804688 -228 -277.200195312 c 4
 -208.799804688 -227.599609375 -210 -220.799804688 -182.799804688 -192 c 5
 -182.799804688 -152 l 5
-168 -194 m 5
 -411 -194 l 1
 -411 -150 l 1
 -168 -150 l 5
 -168 -194 l 5
EndSplineSet
EndChar

StartChar: question
Encoding: 63 63 62
Width: 878
Flags: W
HStem: 224 52<199 798>
VStem: 199 25<227 273>
LayerCount: 2
Fore
SplineSet
224 227 m 1
 257 193 294 143 314 93 c 0
 322 75 318 70 310 70 c 0
 301 70 289 75 283 81 c 0
 226 140 169 197 92 237 c 0
 83 242 80 244 80 250 c 0
 80 256 80 257 93 263 c 0
 170 303 227 360 284 419 c 0
 290 425 302 430 311 430 c 0
 317 430 321 428 321 423 c 0
 321 422 321 421 320 419 c 0
 296 357 258 309 224 273 c 1
 224 227 l 1
199 276 m 1
 798 276 l 1
 798 224 l 1
 199 224 l 1
 199 276 l 1
EndSplineSet
EndChar

StartChar: at
Encoding: 64 64 63
Width: 520
Flags: W
HStem: 484 25<237 283>
VStem: 234 52<-90 509>
LayerCount: 2
Fore
SplineSet
237 484 m 5
 201 450 162 420 101 390 c 4
 95 387 88 387 87 387 c 4
 82 387 80 391 80 397 c 4
 80 406 85 418 91 424 c 4
 150 481 207 538 247 615 c 4
 253 628 254 628 260 628 c 4
 266 628 268 625 273 616 c 4
 313 539 370 482 429 425 c 4
 435 419 440 407 440 398 c 4
 440 387 433 387 429 389 c 4
 367 413 317 451 283 484 c 5
 237 484 l 5
286 509 m 5
 286 -90 l 1
 234 -90 l 1
 234 509 l 5
 286 509 l 5
EndSplineSet
EndChar

StartChar: A
Encoding: 65 65 64
Width: 878
Flags: W
HStem: 224 52<80 679>
VStem: 654 25<227 273>
LayerCount: 2
Fore
SplineSet
654 273 m 5
 621 307 584 357 564 407 c 4
 556 425 560 430 568 430 c 4
 577 430 589 425 595 419 c 4
 652 360 709 303 786 263 c 4
 795 258 798 256 798 250 c 4
 798 244 798 243 785 237 c 4
 708 197 651 140 594 81 c 4
 588 75 576 70 567 70 c 4
 561 70 557 72 557 77 c 4
 557 78 557 79 558 81 c 4
 582 143 620 191 654 227 c 5
 654 273 l 5
679 224 m 5
 80 224 l 1
 80 276 l 1
 679 276 l 5
 679 224 l 5
EndSplineSet
EndChar

StartChar: B
Encoding: 66 66 65
Width: 520
Flags: W
HStem: -9 25<237 283>
VStem: 234 52<-9 590>
LayerCount: 2
Fore
SplineSet
283 16 m 5
 317 49 367 87 429 111 c 4
 433 113 440 113 440 102 c 4
 440 93 435 81 429 75 c 4
 370 18 313 -39 273 -116 c 4
 268 -125 266 -128 260 -128 c 4
 254 -128 253 -128 247 -115 c 4
 207 -38 150 19 91 76 c 4
 85 82 80 94 80 103 c 4
 80 109 82 113 87 113 c 4
 88 113 95 113 101 110 c 4
 162 80 201 50 237 16 c 5
 283 16 l 5
234 -9 m 5
 234 590 l 1
 286 590 l 1
 286 -9 l 5
 234 -9 l 5
EndSplineSet
EndChar

StartChar: C
Encoding: 67 67 66
Width: 1096
Flags: W
HStem: 224 52<199 897>
VStem: 199 25<227 273> 872 25<227 273>
LayerCount: 2
Fore
SplineSet
872 273 m 5
 839 307 802 357 782 407 c 4
 774 425 778 430 786 430 c 4
 795 430 807 425 813 419 c 4
 870 360 927 303 1004 263 c 4
 1013 258 1016 256 1016 250 c 4
 1016 244 1016 243 1003 237 c 4
 926 197 869 140 812 81 c 4
 806 75 794 70 785 70 c 4
 779 70 775 72 775 77 c 4
 775 78 775 79 776 81 c 4
 800 143 838 191 872 227 c 5
 872 273 l 5
224 227 m 1
 257 193 294 143 314 93 c 0
 322 75 318 70 310 70 c 0
 301 70 289 75 283 81 c 0
 226 140 169 197 92 237 c 0
 83 242 80 244 80 250 c 0
 80 256 80 257 93 263 c 0
 170 303 227 360 284 419 c 0
 290 425 302 430 311 430 c 0
 317 430 321 428 321 423 c 0
 321 422 321 421 320 419 c 0
 296 357 258 309 224 273 c 1
 224 227 l 1
897 224 m 1
 199 224 l 1
 199 276 l 1
 897 276 l 1
 897 224 l 1
EndSplineSet
EndChar

StartChar: D
Encoding: 68 68 67
Width: 520
Flags: W
HStem: -218 21G<257 263> -99 25<237 283> 574 25<237 283>
VStem: 234 52<-99 599>
LayerCount: 2
Fore
SplineSet
283 -74 m 1
 317 -41 367 -3 429 21 c 0
 433 23 440 23 440 12 c 0
 440 3 435 -9 429 -15 c 0
 370 -72 313 -129 273 -206 c 0
 268 -215 266 -218 260 -218 c 0
 254 -218 253 -218 247 -205 c 0
 207 -128 150 -71 91 -14 c 0
 85 -8 80 4 80 13 c 0
 80 19 82 23 87 23 c 0
 88 23 95 23 101 20 c 0
 162 -10 201 -40 237 -74 c 1
 283 -74 l 1
237 574 m 1
 201 540 162 510 101 480 c 0
 95 477 88 477 87 477 c 0
 82 477 80 481 80 487 c 0
 80 496 85 508 91 514 c 0
 150 571 207 628 247 705 c 0
 253 718 254 718 260 718 c 0
 266 718 268 715 273 706 c 0
 313 629 370 572 429 515 c 0
 435 509 440 497 440 488 c 0
 440 477 433 477 429 479 c 0
 367 503 317 541 283 574 c 1
 237 574 l 1
234 -99 m 1
 234 599 l 1
 286 599 l 1
 286 -99 l 1
 234 -99 l 1
EndSplineSet
EndChar

StartChar: E
Encoding: 69 69 68
Width: 692
Flags: W
HStem: -9 21G<556 596> 431 20G<168 208>
VStem: 108 25<226.74 261.038>
LayerCount: 2
Fore
SplineSet
169 402 m 5
 168 353 160 292 133 231 c 4
 131 227 129 225 126 225 c 4
 115 225 108 243 108 255 c 4
 108 385 103 439 83 501 c 4
 81 506 80 511 80 514 c 4
 80 520 84 523 90 523 c 4
 93 523 97 522 101 521 c 4
 165 501 220 496 347 496 c 4
 359 496 377 486 377 477 c 4
 377 474 375 472 371 470 c 4
 310 443 248 435 201 434 c 5
 169 402 l 5
188 451 m 5
 612 27 l 1
 576 -9 l 1
 152 415 l 5
 188 451 l 5
EndSplineSet
EndChar

StartChar: F
Encoding: 70 70 69
Width: 693
Flags: W
HStem: -9 21G<97 136.953> 431 20G<483.953 524> 469 25<316.74 351.038>
LayerCount: 2
Fore
SplineSet
491 434 m 5
 442 435 382 442 321 469 c 4
 317 471 315 473 315 476 c 4
 315 487 333 494 345 494 c 4
 475 494 529 499 591 519 c 4
 596 521 601 522 604 522 c 4
 610 522 613 518 613 512 c 4
 613 509 612 505 611 501 c 4
 591 437 586 382 586 255 c 4
 586 243 576 225 567 225 c 4
 564 225 562 227 560 231 c 4
 533 292 524 355 523 402 c 5
 491 434 l 5
540 415 m 5
 117 -9 l 1
 80 28 l 1
 504 451 l 5
 540 415 l 5
EndSplineSet
EndChar

StartChar: G
Encoding: 71 71 70
Width: 692
Flags: W
VStem: 559 25<239.962 274.26>
LayerCount: 2
Fore
SplineSet
523 98 m 5
 524 147 532 209 559 270 c 4
 561 274 563 276 566 276 c 4
 577 276 584 258 584 246 c 4
 584 116 589 62 609 0 c 4
 611 -5 612 -10 612 -13 c 4
 612 -19 608 -22 602 -22 c 4
 599 -22 595 -21 591 -20 c 4
 527 0 472 5 345 5 c 4
 333 5 315 15 315 24 c 4
 315 27 317 29 321 31 c 4
 382 58 444 65 491 66 c 5
 523 98 l 5
504 49 m 5
 80 472 l 1
 117 509 l 1
 540 85 l 5
 504 49 l 5
EndSplineSet
EndChar

StartChar: H
Encoding: 72 72 71
Width: 690
Flags: W
HStem: 5 25<341.962 376.26>
LayerCount: 2
Fore
SplineSet
200 66 m 5
 249 65 311 57 372 30 c 4
 376 28 378 26 378 23 c 4
 378 12 360 5 348 5 c 4
 218 5 164 0 102 -20 c 4
 97 -22 92 -23 89 -23 c 4
 83 -23 80 -19 80 -13 c 4
 80 -10 81 -6 82 -2 c 4
 102 62 107 117 107 244 c 4
 107 256 117 274 126 274 c 4
 129 274 131 272 133 268 c 4
 160 207 166 145 167 98 c 5
 200 66 l 5
150 85 m 5
 574 509 l 1
 610 472 l 1
 187 49 l 5
 150 85 l 5
EndSplineSet
EndChar

StartChar: I
Encoding: 73 73 72
Width: 878
Flags: W
HStem: 224 52<199 529 593 798>
VStem: 199 25<227 273>
LayerCount: 2
Fore
SplineSet
224 227 m 5
 257 193 294 143 314 93 c 4
 322 75 318 70 310 70 c 4
 301 70 289 75 283 81 c 4
 226 140 169 197 92 237 c 4
 83 242 80 244 80 250 c 4
 80 256 80 257 93 263 c 4
 170 303 227 360 284 419 c 4
 290 425 302 430 311 430 c 4
 317 430 321 428 321 423 c 4
 321 422 321 421 320 419 c 4
 296 357 258 309 224 273 c 5
 224 227 l 5
199 276 m 1
 546 276 l 1
 596 430 l 1
 643 430 l 1
 593 276 l 1
 798 276 l 1
 798 224 l 1
 576 224 l 1
 526 70 l 1
 479 70 l 1
 529 224 l 1
 199 224 l 1
 199 276 l 1
EndSplineSet
EndChar

StartChar: J
Encoding: 74 74 73
Width: 878
Flags: W
HStem: 224 52<80 285 349 679>
VStem: 654 25<227 273>
LayerCount: 2
Fore
SplineSet
654 273 m 1
 621 307 584 357 564 407 c 0
 556 425 560 430 568 430 c 0
 577 430 589 425 595 419 c 0
 652 360 709 303 786 263 c 0
 795 258 798 256 798 250 c 0
 798 244 798 243 785 237 c 0
 708 197 651 140 594 81 c 0
 588 75 576 70 567 70 c 0
 561 70 557 72 557 77 c 0
 557 78 557 79 558 81 c 0
 582 143 620 191 654 227 c 1
 654 273 l 1
679 224 m 1
 332 224 l 1
 282 70 l 1
 235 70 l 1
 285 224 l 1
 80 224 l 1
 80 276 l 1
 302 276 l 1
 352 430 l 1
 399 430 l 1
 349 276 l 1
 679 276 l 1
 679 224 l 1
EndSplineSet
EndChar

StartChar: K
Encoding: 75 75 74
Width: 1058
Flags: W
HStem: 224 52<199 978>
VStem: 199 25<227 273>
LayerCount: 2
Fore
SplineSet
424 227 m 5
 457 193 494 143 514 93 c 4
 522 75 518 70 510 70 c 4
 501 70 489 75 483 81 c 4
 426 140 369 197 292 237 c 4
 283 242 280 244 280 250 c 4
 280 256 280 257 293 263 c 4
 370 303 427 360 484 419 c 4
 490 425 502 430 511 430 c 4
 517 430 521 428 521 423 c 4
 521 422 521 421 520 419 c 4
 496 357 458 309 424 273 c 5
 424 227 l 5
224 227 m 5
 257 193 294 143 314 93 c 4
 322 75 318 70 310 70 c 4
 301 70 289 75 283 81 c 4
 226 140 169 197 92 237 c 4
 83 242 80 244 80 250 c 4
 80 256 80 257 93 263 c 4
 170 303 227 360 284 419 c 4
 290 425 302 430 311 430 c 4
 317 430 321 428 321 423 c 4
 321 422 321 421 320 419 c 4
 296 357 258 309 224 273 c 5
 224 227 l 5
199 276 m 4
 458.666992188 276 718.333007812 276 978 276 c 1
 978 224 l 1
 199 224 l 4
 199 276 l 4
EndSplineSet
EndChar

StartChar: L
Encoding: 76 76 75
Width: 520
Flags: W
HStem: 574 25<237 283>
VStem: 234 52<-180 599>
LayerCount: 2
Fore
SplineSet
237 374 m 5
 201 340 162 310 101 280 c 4
 95 277 88 277 87 277 c 4
 82 277 80 281 80 287 c 4
 80 296 85 308 91 314 c 4
 150 371 207 428 247 505 c 4
 253 518 254 518 260 518 c 4
 266 518 268 515 273 506 c 4
 313 429 370 372 429 315 c 4
 435 309 440 297 440 288 c 4
 440 277 433 277 429 279 c 4
 367 303 317 341 283 374 c 5
 237 374 l 5
237 574 m 5
 201 540 162 510 101 480 c 4
 95 477 88 477 87 477 c 4
 82 477 80 481 80 487 c 4
 80 496 85 508 91 514 c 4
 150 571 207 628 247 705 c 4
 253 718 254 718 260 718 c 4
 266 718 268 715 273 706 c 4
 313 629 370 572 429 515 c 4
 435 509 440 497 440 488 c 4
 440 477 433 477 429 479 c 4
 367 503 317 541 283 574 c 5
 237 574 l 5
286 599 m 5
 286 -180 l 1
 234 -180 l 1
 234 599 l 5
 286 599 l 5
EndSplineSet
EndChar

StartChar: M
Encoding: 77 77 76
Width: 1058
Flags: W
HStem: 224 52<80 859>
VStem: 834 25<227 273>
LayerCount: 2
Fore
SplineSet
634 273 m 5
 601 307 564 357 544 407 c 4
 536 425 540 430 548 430 c 4
 557 430 569 425 575 419 c 4
 632 360 689 303 766 263 c 4
 775 258 778 256 778 250 c 4
 778 244 778 243 765 237 c 4
 688 197 631 140 574 81 c 4
 568 75 556 70 547 70 c 4
 541 70 537 72 537 77 c 4
 537 78 537 79 538 81 c 4
 562 143 600 191 634 227 c 5
 634 273 l 5
834 273 m 5
 801 307 764 357 744 407 c 4
 736 425 740 430 748 430 c 4
 757 430 769 425 775 419 c 4
 832 360 889 303 966 263 c 4
 975 258 978 256 978 250 c 4
 978 244 978 243 965 237 c 4
 888 197 831 140 774 81 c 4
 768 75 756 70 747 70 c 4
 741 70 737 72 737 77 c 4
 737 78 737 79 738 81 c 4
 762 143 800 191 834 227 c 5
 834 273 l 5
80 224 m 1
 80 276 l 1
 859 276 l 5
 859 224 l 5
 80 224 l 1
EndSplineSet
EndChar

StartChar: N
Encoding: 78 78 77
Width: 520
Flags: W
HStem: -218 21G<257 263> -99 25<237 283>
VStem: 234 52<-99 680>
LayerCount: 2
Fore
SplineSet
283 126 m 5
 317 159 367 197 429 221 c 4
 433 223 440 223 440 212 c 4
 440 203 435 191 429 185 c 4
 370 128 313 71 273 -6 c 4
 268 -15 266 -18 260 -18 c 4
 254 -18 253 -18 247 -5 c 4
 207 72 150 129 91 186 c 4
 85 192 80 204 80 213 c 4
 80 219 82 223 87 223 c 4
 88 223 95 223 101 220 c 4
 162 190 201 160 237 126 c 5
 283 126 l 5
283 -74 m 5
 317 -41 367 -3 429 21 c 4
 433 23 440 23 440 12 c 4
 440 3 435 -9 429 -15 c 4
 370 -72 313 -129 273 -206 c 4
 268 -215 266 -218 260 -218 c 4
 254 -218 253 -218 247 -205 c 4
 207 -128 150 -71 91 -14 c 4
 85 -8 80 4 80 13 c 4
 80 19 82 23 87 23 c 4
 88 23 95 23 101 20 c 4
 162 -10 201 -40 237 -74 c 5
 283 -74 l 5
234 680 m 1
 286 680 l 1
 286 -99 l 5
 234 -99 l 5
 234 680 l 1
EndSplineSet
EndChar

StartChar: O
Encoding: 79 79 78
Width: 1068
Flags: W
HStem: 224 52<199 769>
VStem: 199 25<227 273>
LayerCount: 2
Fore
SplineSet
224 227 m 1
 257 193 294 143 314 93 c 0
 322 75 318 70 310 70 c 0
 301 70 289 75 283 81 c 0
 226 140 169 197 92 237 c 0
 83 242 80 244 80 250 c 0
 80 256 80 257 93 263 c 0
 170 303 227 360 284 419 c 0
 290 425 302 430 311 430 c 0
 317 430 321 428 321 423 c 0
 321 422 321 421 320 419 c 0
 296 357 258 309 224 273 c 1
 224 227 l 1
199 276 m 1
 769 276 l 1
 923 430 l 1
 988 430 l 1
 808 250 l 1
 988 70 l 1
 923 70 l 1
 769 224 l 1
 199 224 l 1
 199 276 l 1
EndSplineSet
EndChar

StartChar: P
Encoding: 80 80 79
Width: 1068
Flags: W
HStem: 224 52<299 869>
VStem: 844 25<227 273>
LayerCount: 2
Fore
SplineSet
844 273 m 1
 811 307 774 357 754 407 c 0
 746 425 750 430 758 430 c 0
 767 430 779 425 785 419 c 0
 842 360 899 303 976 263 c 0
 985 258 988 256 988 250 c 0
 988 244 988 243 975 237 c 0
 898 197 841 140 784 81 c 0
 778 75 766 70 757 70 c 0
 751 70 747 72 747 77 c 0
 747 78 747 79 748 81 c 0
 772 143 810 191 844 227 c 1
 844 273 l 1
869 224 m 1
 299 224 l 1
 145 70 l 1
 80 70 l 1
 260 250 l 1
 80 430 l 1
 145 430 l 1
 299 276 l 1
 869 276 l 1
 869 224 l 1
EndSplineSet
EndChar

StartChar: Q
Encoding: 81 81 80
Width: 878
Flags: W
HStem: 224 52<199 752>
VStem: 199 25<227 273> 752 46<70 224 276 430>
LayerCount: 2
Fore
SplineSet
224 227 m 5
 257 193 294 143 314 93 c 4
 322 75 318 70 310 70 c 4
 301 70 289 75 283 81 c 4
 226 140 169 197 92 237 c 4
 83 242 80 244 80 250 c 4
 80 256 80 257 93 263 c 4
 170 303 227 360 284 419 c 4
 290 425 302 430 311 430 c 4
 317 430 321 428 321 423 c 4
 321 422 321 421 320 419 c 4
 296 357 258 309 224 273 c 5
 224 227 l 5
199 276 m 1
 752 276 l 1
 752 430 l 1
 798 430 l 1
 798 70 l 1
 752 70 l 1
 752 224 l 1
 199 224 l 1
 199 276 l 1
EndSplineSet
EndChar

StartChar: R
Encoding: 82 82 81
Width: 520
Flags: W
HStem: -90 46<80 234 286 440> 484 25<237 283>
VStem: 234 52<-44 509>
LayerCount: 2
Fore
SplineSet
237 484 m 1
 201 450 162 420 101 390 c 0
 95 387 88 387 87 387 c 0
 82 387 80 391 80 397 c 0
 80 406 85 418 91 424 c 0
 150 481 207 538 247 615 c 0
 253 628 254 628 260 628 c 0
 266 628 268 625 273 616 c 0
 313 539 370 482 429 425 c 0
 435 419 440 407 440 398 c 0
 440 387 433 387 429 389 c 0
 367 413 317 451 283 484 c 1
 237 484 l 1
286 509 m 1
 286 -44 l 1
 440 -44 l 1
 440 -90 l 1
 80 -90 l 1
 80 -44 l 1
 234 -44 l 1
 234 509 l 1
 286 509 l 1
EndSplineSet
EndChar

StartChar: S
Encoding: 83 83 82
Width: 878
Flags: W
HStem: 224 52<126 679>
VStem: 80 46<70 224 276 430> 654 25<227 273>
LayerCount: 2
Fore
SplineSet
654 273 m 5
 621 307 584 357 564 407 c 4
 556 425 560 430 568 430 c 4
 577 430 589 425 595 419 c 4
 652 360 709 303 786 263 c 4
 795 258 798 256 798 250 c 4
 798 244 798 243 785 237 c 4
 708 197 651 140 594 81 c 4
 588 75 576 70 567 70 c 4
 561 70 557 72 557 77 c 4
 557 78 557 79 558 81 c 4
 582 143 620 191 654 227 c 5
 654 273 l 5
679 224 m 1
 126 224 l 1
 126 70 l 1
 80 70 l 1
 80 430 l 1
 126 430 l 1
 126 276 l 1
 679 276 l 1
 679 224 l 1
EndSplineSet
EndChar

StartChar: T
Encoding: 84 84 83
Width: 520
Flags: W
HStem: -9 25<237 283> 544 46<80 234 286 440>
VStem: 234 52<-9 544>
LayerCount: 2
Fore
SplineSet
283 16 m 5
 317 49 367 87 429 111 c 4
 433 113 440 113 440 102 c 4
 440 93 435 81 429 75 c 4
 370 18 313 -39 273 -116 c 4
 268 -125 266 -128 260 -128 c 4
 254 -128 253 -128 247 -115 c 4
 207 -38 150 19 91 76 c 4
 85 82 80 94 80 103 c 4
 80 109 82 113 87 113 c 4
 88 113 95 113 101 110 c 4
 162 80 201 50 237 16 c 5
 283 16 l 5
234 -9 m 1
 234 544 l 1
 80 544 l 1
 80 590 l 1
 440 590 l 1
 440 544 l 1
 286 544 l 1
 286 -9 l 1
 234 -9 l 1
EndSplineSet
EndChar

StartChar: U
Encoding: 85 85 84
Width: 904
Flags: W
HStem: 224 52<199 740.256> 456 52<630 740.256>
VStem: 199 25<227 273> 772 52<307.363 424.637>
LayerCount: 2
Fore
SplineSet
224 227 m 5
 257 193 294 143 314 93 c 4
 322 75 318 70 310 70 c 4
 301 70 289 75 283 81 c 4
 226 140 169 197 92 237 c 4
 83 242 80 244 80 250 c 4
 80 256 80 257 93 263 c 4
 170 303 227 360 284 419 c 4
 290 425 302 430 311 430 c 4
 317 430 321 428 321 423 c 4
 321 422 321 421 320 419 c 4
 296 357 258 309 224 273 c 5
 224 227 l 5
199 276 m 1
 682 276 l 2
 732 276 772 316 772 366 c 0
 772 416 732 456 682 456 c 2
 630 456 l 1
 630 508 l 1
 682 508 l 2
 760 508 824 444 824 366 c 0
 824 288 760 224 682 224 c 2
 199 224 l 1
 199 276 l 1
EndSplineSet
EndChar

StartChar: V
Encoding: 86 86 85
Width: 904
Flags: W
HStem: 224 52<163.744 705> 456 52<163.744 274>
VStem: 80 52<307.363 424.637> 680 25<227 273>
LayerCount: 2
Fore
SplineSet
680 273 m 5
 647 307 610 357 590 407 c 4
 582 425 586 430 594 430 c 4
 603 430 615 425 621 419 c 4
 678 360 735 303 812 263 c 4
 821 258 824 256 824 250 c 4
 824 244 824 243 811 237 c 4
 734 197 677 140 620 81 c 4
 614 75 602 70 593 70 c 4
 587 70 583 72 583 77 c 4
 583 78 583 79 584 81 c 4
 608 143 646 191 680 227 c 5
 680 273 l 5
705 224 m 1
 222 224 l 2
 144 224 80 288 80 366 c 0
 80 444 144 508 222 508 c 2
 274 508 l 1
 274 456 l 1
 222 456 l 2
 172 456 132 416 132 366 c 0
 132 316 172 276 222 276 c 2
 705 276 l 1
 705 224 l 1
EndSplineSet
EndChar

StartChar: W
Encoding: 87 87 86
Width: 904
Flags: W
HStem: 224 52<199 540 592 740.256> 456 52<623.363 740.637>
VStem: 199 25<227 273> 540 52<18 224 276 424.256> 772 52<307.363 424.637>
LayerCount: 2
Fore
SplineSet
224 227 m 5
 257 193 294 143 314 93 c 4
 322 75 318 70 310 70 c 4
 301 70 289 75 283 81 c 4
 226 140 169 197 92 237 c 4
 83 242 80 244 80 250 c 4
 80 256 80 257 93 263 c 4
 170 303 227 360 284 419 c 4
 290 425 302 430 311 430 c 4
 317 430 321 428 321 423 c 4
 321 422 321 421 320 419 c 4
 296 357 258 309 224 273 c 5
 224 227 l 5
199 276 m 1
 540 276 l 1
 540 366 l 2
 540 444 604 508 682 508 c 0
 760 508 824 444 824 366 c 0
 824 288 760 224 682 224 c 2
 592 224 l 1
 592 18 l 1
 540 18 l 1
 540 224 l 1
 199 224 l 1
 199 276 l 1
772 366 m 0
 772 416 732 456 682 456 c 0
 632 456 592 416 592 366 c 2
 592 276 l 1
 682 276 l 2
 732 276 772 316 772 366 c 0
EndSplineSet
EndChar

StartChar: X
Encoding: 88 88 87
Width: 904
Flags: W
HStem: 224 52<163.744 312 364 705> 456 52<163.363 280.637>
VStem: 80 52<307.363 424.637> 312 52<18 224 276 424.256> 680 25<227 273>
LayerCount: 2
Fore
SplineSet
680 273 m 5
 647 307 610 357 590 407 c 4
 582 425 586 430 594 430 c 4
 603 430 615 425 621 419 c 4
 678 360 735 303 812 263 c 4
 821 258 824 256 824 250 c 4
 824 244 824 243 811 237 c 4
 734 197 677 140 620 81 c 4
 614 75 602 70 593 70 c 4
 587 70 583 72 583 77 c 4
 583 78 583 79 584 81 c 4
 608 143 646 191 680 227 c 5
 680 273 l 5
705 224 m 1
 364 224 l 1
 364 18 l 1
 312 18 l 1
 312 224 l 1
 222 224 l 2
 144 224 80 288 80 366 c 0
 80 444 144 508 222 508 c 0
 300 508 364 444 364 366 c 2
 364 276 l 1
 705 276 l 1
 705 224 l 1
312 276 m 1
 312 366 l 2
 312 416 272 456 222 456 c 0
 172 456 132 416 132 366 c 0
 132 316 172 276 222 276 c 2
 312 276 l 1
EndSplineSet
EndChar

StartChar: Y
Encoding: 89 89 88
Width: 1096
Flags: W
HStem: 115 52<517.77 578.23> 224 52<199 326.865 769.135 897> 333 52<390.923 443.23 652.77 705.077>
VStem: 199 25<227 273> 872 25<227 273>
LayerCount: 2
Fore
SplineSet
872 273 m 5
 839 307 802 357 782 407 c 4
 774 425 778 430 786 430 c 4
 795 430 807 425 813 419 c 4
 870 360 927 303 1004 263 c 4
 1013 258 1016 256 1016 250 c 4
 1016 244 1016 243 1003 237 c 4
 926 197 869 140 812 81 c 4
 806 75 794 70 785 70 c 4
 779 70 775 72 775 77 c 4
 775 78 775 79 776 81 c 4
 800 143 838 191 872 227 c 5
 872 273 l 5
224 227 m 1
 257 193 294 143 314 93 c 0
 322 75 318 70 310 70 c 0
 301 70 289 75 283 81 c 0
 226 140 169 197 92 237 c 0
 83 242 80 244 80 250 c 0
 80 256 80 257 93 263 c 0
 170 303 227 360 284 419 c 0
 290 425 302 430 311 430 c 0
 317 430 321 428 321 423 c 0
 321 422 321 421 320 419 c 0
 296 357 258 309 224 273 c 1
 224 227 l 1
897 224 m 1
 791 224 l 2
 761 224 741 241 727 265 c 0
 718 281 711 302 702 318 c 0
 697 326 693 333 683 333 c 0
 660 333 653 316 648 297 c 0
 641 264 641 224 633 192 c 0
 623 147 600 115 548 115 c 0
 496 115 473 147 463 192 c 0
 455 224 455 264 448 297 c 0
 443 316 436 333 413 333 c 0
 403 333 399 326 394 318 c 0
 385 302 378 281 369 265 c 0
 355 241 335 224 305 224 c 2
 199 224 l 1
 199 276 l 1
 305 276 l 2
 315 276 319 283 324 291 c 0
 333 307 340 328 349 344 c 0
 363 368 383 385 413 385 c 0
 465 385 488 353 498 308 c 0
 506 276 506 236 513 203 c 0
 518 184 525 167 548 167 c 0
 571 167 578 184 583 203 c 0
 590 236 590 276 598 308 c 0
 608 353 631 385 683 385 c 0
 713 385 733 368 747 344 c 0
 756 328 763 307 772 291 c 0
 777 283 781 276 791 276 c 2
 897 276 l 1
 897 224 l 1
EndSplineSet
EndChar

StartChar: Z
Encoding: 90 90 89
Width: 1096
Flags: W
HStem: 224 52<199 516 580 897>
VStem: 199 25<227 273> 872 25<227 273>
LayerCount: 2
Fore
SplineSet
872 273 m 5
 839 307 802 357 782 407 c 4
 774 425 778 430 786 430 c 4
 795 430 807 425 813 419 c 4
 870 360 927 303 1004 263 c 4
 1013 258 1016 256 1016 250 c 4
 1016 244 1016 243 1003 237 c 4
 926 197 869 140 812 81 c 4
 806 75 794 70 785 70 c 4
 779 70 775 72 775 77 c 4
 775 78 775 79 776 81 c 4
 800 143 838 191 872 227 c 5
 872 273 l 5
224 227 m 1
 257 193 294 143 314 93 c 0
 322 75 318 70 310 70 c 0
 301 70 289 75 283 81 c 0
 226 140 169 197 92 237 c 0
 83 242 80 244 80 250 c 0
 80 256 80 257 93 263 c 0
 170 303 227 360 284 419 c 0
 290 425 302 430 311 430 c 0
 317 430 321 428 321 423 c 0
 321 422 321 421 320 419 c 0
 296 357 258 309 224 273 c 1
 224 227 l 1
897 224 m 1
 563 224 l 1
 513 70 l 1
 466 70 l 1
 516 224 l 1
 199 224 l 1
 199 276 l 1
 533 276 l 1
 583 430 l 1
 630 430 l 1
 580 276 l 1
 897 276 l 1
 897 224 l 1
EndSplineSet
EndChar

StartChar: bracketleft
Encoding: 91 91 90
Width: 568
Flags: W
HStem: 392 52<199 436>
VStem: 199 25<395 441> 436 52<-98 392>
LayerCount: 2
Fore
SplineSet
224 395 m 1
 257 361 294 311 314 261 c 0
 322 243 318 238 310 238 c 0
 301 238 289 243 283 249 c 0
 226 308 169 365 92 405 c 0
 83 410 80 412 80 418 c 0
 80 424 80 425 93 431 c 0
 170 471 227 528 284 587 c 0
 290 593 302 598 311 598 c 0
 317 598 321 596 321 591 c 0
 321 590 321 589 320 587 c 0
 296 525 258 477 224 441 c 1
 224 395 l 1
199 444 m 1
 488 444 l 1
 488 -98 l 1
 436 -98 l 1
 436 392 l 1
 199 392 l 1
 199 444 l 1
EndSplineSet
EndChar

StartChar: backslash
Encoding: 92 92 91
Width: 568
Flags: W
HStem: 392 52<132 369>
VStem: 80 52<-98 392> 344 25<395 441>
LayerCount: 2
Fore
SplineSet
344 441 m 5
 311 475 274 525 254 575 c 4
 246 593 250 598 258 598 c 4
 267 598 279 593 285 587 c 4
 342 528 399 471 476 431 c 4
 485 426 488 424 488 418 c 4
 488 412 488 411 475 405 c 4
 398 365 341 308 284 249 c 4
 278 243 266 238 257 238 c 4
 251 238 247 240 247 245 c 4
 247 246 247 247 248 249 c 4
 272 311 310 359 344 395 c 5
 344 441 l 5
369 392 m 1
 132 392 l 1
 132 -98 l 1
 80 -98 l 1
 80 444 l 1
 369 444 l 1
 369 392 l 1
EndSplineSet
EndChar

StartChar: bracketright
Encoding: 93 93 92
Width: 568
Flags: W
HStem: 56 52<199 436>
VStem: 199 25<59 105> 436 52<108 598>
LayerCount: 2
Fore
SplineSet
224 59 m 1
 257 25 294 -25 314 -75 c 0
 322 -93 318 -98 310 -98 c 0
 301 -98 289 -93 283 -87 c 0
 226 -28 169 29 92 69 c 0
 83 74 80 76 80 82 c 0
 80 88 80 89 93 95 c 0
 170 135 227 192 284 251 c 0
 290 257 302 262 311 262 c 0
 317 262 321 260 321 255 c 0
 321 254 321 253 320 251 c 0
 296 189 258 141 224 105 c 1
 224 59 l 1
199 108 m 1
 436 108 l 1
 436 598 l 1
 488 598 l 1
 488 56 l 1
 199 56 l 1
 199 108 l 1
EndSplineSet
EndChar

StartChar: asciicircum
Encoding: 94 94 93
Width: 568
Flags: W
HStem: 56 52<132 369>
VStem: 80 52<108 598> 344 25<59 105>
LayerCount: 2
Fore
SplineSet
344 105 m 5
 311 139 274 189 254 239 c 4
 246 257 250 262 258 262 c 4
 267 262 279 257 285 251 c 4
 342 192 399 135 476 95 c 4
 485 90 488 88 488 82 c 4
 488 76 488 75 475 69 c 4
 398 29 341 -28 284 -87 c 4
 278 -93 266 -98 257 -98 c 4
 251 -98 247 -96 247 -91 c 4
 247 -90 247 -89 248 -87 c 4
 272 -25 310 23 344 59 c 5
 344 105 l 5
369 56 m 1
 80 56 l 1
 80 598 l 1
 132 598 l 1
 132 108 l 1
 369 108 l 1
 369 56 l 1
EndSplineSet
EndChar

StartChar: underscore
Encoding: 95 95 94
Width: 770
Flags: W
HStem: 103 25<487 533> 426 52<80 484>
VStem: 484 52<103 426>
LayerCount: 2
Fore
SplineSet
533 128 m 5
 567 161 617 199 679 223 c 4
 683 225 690 225 690 214 c 4
 690 205 685 193 679 187 c 4
 620 130 563 73 523 -4 c 4
 518 -13 516 -16 510 -16 c 4
 504 -16 503 -16 497 -3 c 4
 457 74 400 131 341 188 c 4
 335 194 330 206 330 215 c 4
 330 221 332 225 337 225 c 4
 338 225 345 225 351 222 c 4
 412 192 451 162 487 128 c 5
 533 128 l 5
484 103 m 1
 484 426 l 1
 80 426 l 1
 80 478 l 1
 536 478 l 1
 536 103 l 1
 484 103 l 1
EndSplineSet
EndChar

StartChar: grave
Encoding: 96 96 95
Width: 654
Flags: W
HStem: 99 52<199 522>
VStem: 199 25<102 148> 522 52<151 555>
LayerCount: 2
Fore
SplineSet
224 102 m 1
 257 68 294 18 314 -32 c 0
 322 -50 318 -55 310 -55 c 0
 301 -55 289 -50 283 -44 c 0
 226 15 169 72 92 112 c 0
 83 117 80 119 80 125 c 0
 80 131 80 132 93 138 c 0
 170 178 227 235 284 294 c 0
 290 300 302 305 311 305 c 0
 317 305 321 303 321 298 c 0
 321 297 321 296 320 294 c 0
 296 232 258 184 224 148 c 1
 224 102 l 1
199 151 m 1
 522 151 l 1
 522 555 l 1
 574 555 l 1
 574 99 l 1
 199 99 l 1
 199 151 l 1
EndSplineSet
EndChar

StartChar: a
Encoding: 97 97 96
Width: 810
Flags: W
HStem: 462 52<352.579 546.578>
VStem: 153.458 262.715<230.158 362.62> 678.606 52<250 335.91>
LayerCount: 2
Fore
SplineSet
226.694335938 299.173828125 m 5
 168.606445312 250 l 1
 168.606445312 399 296.606445312 514 449.606445312 514 c 0
 602.606445312 514 730.606445312 399 730.606445312 250 c 1
 678.606445312 250 l 1
 678.606445312 370 573.606445312 462 449.606445312 462 c 0
 343.188476562 462 250.764648438 394.240234375 226.694335938 299.173828125 c 5
80 480.547851562 m 0
 80 489.033203125 82.6806640625 502.6171875 90.1728515625 502.6171875 c 0
 93.7900390625 502.6171875 99.3818359375 500.005859375 104.674804688 493.90234375 c 0
 149.55078125 442.842773438 174.1015625 400.201171875 194.350585938 355.012695312 c 1
 236.848632812 337.409179688 l 1
 278.897460938 354.095703125 336.1640625 369.411132812 399.106445312 369.411132812 c 0
 402.087890625 369.411132812 405.083007812 369.376953125 408.08984375 369.306640625 c 0
 408.31640625 369.322265625 408.548828125 369.331054688 408.784179688 369.331054688 c 0
 412.125 369.331054688 416.172851562 367.655273438 416.172851562 362.620117188 c 0
 416.172851562 351.047851562 402.51953125 339.446289062 394.313476562 336.046875 c 0
 317.991210938 305.963867188 243.517578125 275.115234375 177.095703125 219.284179688 c 0
 171.177734375 214.5859375 167.989257812 212.254882812 164.520507812 212.254882812 c 0
 155.486328125 212.254882812 154.044921875 215.369140625 153.458007812 230.158203125 c 0
 145.96875 316.603515625 115.12109375 391.078125 82.4248046875 466.317382812 c 0
 80.818359375 470.1953125 80 475.3359375 80 480.547851562 c 0
EndSplineSet
EndChar

StartChar: b
Encoding: 98 98 97
Width: 810
Flags: W
HStem: 462 52<264.029 458.027>
VStem: 80 52<250 335.91> 394.434 262.715<230.158 362.62>
LayerCount: 2
Fore
SplineSet
583.912109375 299.173828125 m 5
 559.841796875 394.240234375 467.41796875 462 361 462 c 0
 237 462 132 370 132 250 c 1
 80 250 l 1
 80 399 208 514 361 514 c 0
 514 514 642 399 642 250 c 1
 583.912109375 299.173828125 l 5
730.606445312 480.547851562 m 0
 730.606445312 475.3359375 729.788085938 470.1953125 728.181640625 466.317382812 c 0
 695.485351562 391.078125 664.637695312 316.603515625 657.1484375 230.158203125 c 0
 656.561523438 215.369140625 655.120117188 212.254882812 646.0859375 212.254882812 c 0
 642.6171875 212.254882812 639.428710938 214.5859375 633.510742188 219.284179688 c 0
 567.088867188 275.115234375 492.615234375 305.963867188 416.29296875 336.046875 c 0
 408.086914062 339.446289062 394.43359375 351.047851562 394.43359375 362.620117188 c 0
 394.43359375 367.655273438 398.481445312 369.331054688 401.822265625 369.331054688 c 0
 402.057617188 369.331054688 402.290039062 369.322265625 402.516601562 369.306640625 c 0
 405.5234375 369.376953125 408.518554688 369.411132812 411.5 369.411132812 c 0
 474.442382812 369.411132812 531.708984375 354.095703125 573.7578125 337.409179688 c 1
 616.255859375 355.012695312 l 1
 636.504882812 400.201171875 661.055664062 442.842773438 705.931640625 493.90234375 c 0
 711.224609375 500.005859375 716.81640625 502.6171875 720.43359375 502.6171875 c 0
 727.92578125 502.6171875 730.606445312 489.033203125 730.606445312 480.547851562 c 0
EndSplineSet
EndChar

StartChar: c
Encoding: 99 99 98
Width: 665
Flags: W
HStem: -3 52<245.913 421.945> 451 52<333.013 444.013>
VStem: 80 51.9971<162.448 340.595> 533.013 52<160.7 339.3>
LayerCount: 2
Fore
SplineSet
554.548828125 594.606445312 m 0
 563.033203125 594.606445312 576.6171875 591.92578125 576.6171875 584.43359375 c 0
 576.6171875 581.725585938 575.771484375 580.307617188 573.577148438 578.405273438 c 0
 527.677734375 530.30859375 474.201171875 500.504882812 429.012695312 480.255859375 c 1
 411.409179688 437.7578125 l 1
 428.518554688 394.645507812 443.299804688 335.901367188 443.299804688 282.930664062 c 0
 443.299804688 281.790039062 443.29296875 280.651367188 443.279296875 279.516601562 c 0
 443.30078125 278.694335938 443.310546875 277.901367188 443.310546875 277.135742188 c 0
 443.310546875 263.4453125 439.999023438 258.779296875 435.182617188 258.779296875 c 0
 424.494140625 258.779296875 413.180664062 272.7265625 410.046875 280.29296875 c 0
 379.963867188 356.615234375 349.115234375 431.088867188 293.284179688 497.510742188 c 0
 288.586914062 503.428710938 286.255859375 506.6171875 286.255859375 510.0859375 c 0
 286.255859375 519.120117188 289.369140625 520.560546875 304.158203125 521.1484375 c 0
 390.603515625 528.637695312 465.078125 559.485351562 540.317382812 592.181640625 c 0
 544.1953125 593.788085938 549.336914062 594.606445312 554.548828125 594.606445312 c 0
80 252.538085938 m 0
 80 349.568359375 136.790039062 439.345703125 226.012695312 479 c 1
 248.012695312 432 l 1
 176.796875 400.348632812 131.997070312 329.564453125 131.997070312 252.546875 c 0
 131.997070312 140.78515625 221.21875 50.0068359375 333.012695312 49 c 0
 444.012695312 49 533.012695312 139 533.012695312 250 c 0
 533.012695312 361 444.012695312 451 333.012695312 451 c 1
 333.012695312 503 l 1
 472.012695312 503 585.012695312 390 585.012695312 250 c 0
 585.012695312 110 472.012695312 -3 333.012695312 -3 c 0
 193.978515625 -2 80 110.787109375 80 252.538085938 c 0
EndSplineSet
EndChar

StartChar: d
Encoding: 100 100 99
Width: 665
Flags: W
HStem: -3 52<243.067 419.1> 451 52<221 332>
VStem: 80 52<160.7 339.3> 533.016 51.9971<162.448 340.595>
LayerCount: 2
Fore
SplineSet
110.463867188 594.606445312 m 0
 115.67578125 594.606445312 120.817382812 593.788085938 124.6953125 592.181640625 c 0
 199.934570312 559.485351562 274.409179688 528.637695312 360.854492188 521.1484375 c 0
 375.643554688 520.560546875 378.756835938 519.120117188 378.756835938 510.0859375 c 0
 378.756835938 506.6171875 376.42578125 503.428710938 371.728515625 497.510742188 c 0
 315.897460938 431.088867188 285.048828125 356.615234375 254.965820312 280.29296875 c 0
 251.83203125 272.7265625 240.518554688 258.779296875 229.830078125 258.779296875 c 0
 225.013671875 258.779296875 221.702148438 263.4453125 221.702148438 277.135742188 c 0
 221.702148438 277.901367188 221.711914062 278.694335938 221.733398438 279.516601562 c 0
 221.719726562 280.651367188 221.712890625 281.790039062 221.712890625 282.930664062 c 0
 221.712890625 335.901367188 236.494140625 394.645507812 253.603515625 437.7578125 c 1
 236 480.255859375 l 1
 190.811523438 500.504882812 137.334960938 530.30859375 91.435546875 578.405273438 c 0
 89.2412109375 580.307617188 88.3955078125 581.725585938 88.3955078125 584.43359375 c 0
 88.3955078125 591.92578125 101.979492188 594.606445312 110.463867188 594.606445312 c 0
585.012695312 252.538085938 m 0
 585.012695312 110.787109375 471.034179688 -2 332 -3 c 0
 193 -3 80 110 80 250 c 0
 80 390 193 503 332 503 c 1
 332 451 l 1
 221 451 132 361 132 250 c 0
 132 139 221 49 332 49 c 0
 443.793945312 50.0068359375 533.015625 140.78515625 533.015625 252.546875 c 0
 533.015625 329.564453125 488.215820312 400.348632812 417 432 c 1
 439 479 l 1
 528.22265625 439.345703125 585.012695312 349.568359375 585.012695312 252.538085938 c 0
EndSplineSet
EndChar

StartChar: e
Encoding: 101 101 100
Width: 868
Flags: W
HStem: 224 52<199 788>
LayerCount: 2
Fore
SplineSet
80 224 m 4
 80 230 80 244 93 250 c 4
 170 290 227 360 284 419 c 4
 290 425 302 430 311 430 c 4
 317 430 321 428 321 423 c 4
 321 422 321 421 320 419 c 4
 296 357 258 309 224 273 c 5
 224 224 l 5
 80 224 l 4
199 276 m 5
 788 276 l 1
 788 224 l 1
 108 224 l 5
 199 276 l 5
EndSplineSet
EndChar

StartChar: f
Encoding: 102 102 101
Width: 868
Flags: W
HStem: 224 52<199 788>
LayerCount: 2
Fore
SplineSet
224 276 m 5
 224 227 l 5
 257 193 294 143 314 93 c 4
 322 75 318 70 310 70 c 4
 301 70 289 75 283 81 c 4
 226 140 169 210 92 250 c 4
 83 255 80 270 80 276 c 4
 224 276 l 5
108 276 m 5
 788 276 l 1
 788 224 l 1
 199 224 l 5
 108 276 l 5
EndSplineSet
EndChar

StartChar: g
Encoding: 103 103 102
Width: 366
Flags: W
VStem: 80 52<-90 474 499 523.5> 80 26<565.5 590>
LayerCount: 2
Fore
SplineSet
80 618 m 4x40
 86 618 101 615 106 606 c 4x40
 146 529 216 472 275 415 c 4
 281 409 286 397 286 388 c 4
 286 377 279 377 275 379 c 4
 213 403 163 441 129 474 c 5
 80 474 l 5x80
 80 618 l 4x40
132 499 m 5x80
 132 -90 l 1
 80 -90 l 1x80
 80 590 l 5
 106 590 l 1x40
 132 499 l 5x80
EndSplineSet
EndChar

StartChar: h
Encoding: 104 104 103
Width: 366
Flags: W
VStem: 234 52<-90 523.5> 260 26<565.5 590>
LayerCount: 2
Fore
SplineSet
286 474 m 5x80
 237 474 l 5
 201 440 162 410 101 380 c 4
 95 377 88 377 87 377 c 4
 82 377 80 381 80 387 c 4
 80 396 85 408 91 414 c 4
 150 471 220 528 260 605 c 4
 266 618 280 618 286 618 c 4x40
 286 474 l 5x80
260 590 m 5
 286 590 l 5x40
 286 -90 l 1
 234 -90 l 1
 234 499 l 5x80
 260 590 l 5
EndSplineSet
EndChar

StartChar: i
Encoding: 105 105 104
Width: 868
Flags: W
HStem: 224 52<80 669>
LayerCount: 2
Fore
SplineSet
644 224 m 5
 644 273 l 5
 611 307 574 357 554 407 c 4
 546 425 550 430 558 430 c 4
 567 430 579 425 585 419 c 4
 642 360 699 290 776 250 c 4
 785 245 788 230 788 224 c 4
 644 224 l 5
760 224 m 5
 80 224 l 1
 80 276 l 1
 669 276 l 5
 760 224 l 5
EndSplineSet
EndChar

StartChar: j
Encoding: 106 106 105
Width: 868
Flags: W
HStem: 224 52<80 693.5> 250 26<735.5 760>
LayerCount: 2
Fore
SplineSet
788 276 m 4x40
 788 270 788 256 775 250 c 4x40
 698 210 641 140 584 81 c 4
 578 75 566 70 557 70 c 4
 551 70 547 72 547 77 c 4
 547 78 547 79 548 81 c 4
 572 143 610 191 644 227 c 5
 644 276 l 5x80
 788 276 l 4x40
669 224 m 5x80
 80 224 l 1
 80 276 l 1x80
 760 276 l 5
 760 250 l 1x40
 669 224 l 5x80
EndSplineSet
EndChar

StartChar: k
Encoding: 107 107 106
Width: 366
Flags: W
HStem: -90 116<80 106>
VStem: 80 52<-23.5 1 26 590> 80 26<-90 -65.5>
LayerCount: 2
Fore
SplineSet
80 26 m 5xc0
 129 26 l 5
 163 59 213 97 275 121 c 4
 279 123 286 123 286 112 c 4
 286 103 281 91 275 85 c 4
 216 28 146 -29 106 -106 c 4
 101 -115 86 -118 80 -118 c 4xa0
 80 26 l 5xc0
106 -90 m 5
 80 -90 l 5xa0
 80 590 l 1
 132 590 l 1
 132 1 l 5xc0
 106 -90 l 5
EndSplineSet
EndChar

StartChar: l
Encoding: 108 108 107
Width: 366
Flags: W
VStem: 234 52<-23.5 590> 260 26<-90 -65.5>
LayerCount: 2
Fore
SplineSet
286 -143 m 4x40
 280 -143 266 -143 260 -130 c 4x40
 220 -53 150 4 91 61 c 4
 85 67 80 79 80 88 c 4
 80 94 82 98 87 98 c 4
 88 98 95 98 101 95 c 4
 162 65 201 35 237 1 c 5
 286 1 l 5x80
 286 -143 l 4x40
234 1 m 5x80
 234 590 l 1
 286 590 l 1x80
 286 -90 l 5
 260 -90 l 5x40
 234 1 l 5x80
EndSplineSet
EndChar

StartChar: m
Encoding: 109 109 108
Width: 878
Flags: W
HStem: 74 52<199 798> 374 52<80 679>
VStem: 199 25<77 123> 654 25<377 423>
LayerCount: 2
Fore
SplineSet
654 423 m 1
 621 457 584 507 564 557 c 0
 556 575 560 580 568 580 c 0
 577 580 589 575 595 569 c 0
 652 510 709 453 786 413 c 0
 795 408 798 406 798 400 c 0
 798 394 798 393 785 387 c 0
 708 347 651 290 594 231 c 0
 588 225 576 220 567 220 c 0
 561 220 557 222 557 227 c 0
 557 228 557 229 558 231 c 0
 582 293 620 341 654 377 c 1
 654 423 l 1
679 374 m 1
 80 374 l 1
 80 426 l 1
 679 426 l 1
 679 374 l 1
224 77 m 1
 257 43 294 -7 314 -57 c 0
 322 -75 318 -80 310 -80 c 0
 301 -80 289 -75 283 -69 c 0
 226 -10 169 47 92 87 c 0
 83 92 80 94 80 100 c 0
 80 106 80 107 93 113 c 0
 170 153 227 210 284 269 c 0
 290 275 302 280 311 280 c 0
 317 280 321 278 321 273 c 0
 321 272 321 271 320 269 c 0
 296 207 258 159 224 123 c 1
 224 77 l 1
199 126 m 1
 798 126 l 1
 798 74 l 1
 199 74 l 1
 199 126 l 1
EndSplineSet
EndChar

StartChar: n
Encoding: 110 110 109
Width: 820
Flags: W
HStem: -9 25<537 583> 484 25<237 283>
VStem: 234 52<-90 509> 534 52<-9 590>
LayerCount: 2
Fore
SplineSet
583 16 m 5
 617 49 667 87 729 111 c 4
 733 113 740 113 740 102 c 4
 740 93 735 81 729 75 c 4
 670 18 613 -39 573 -116 c 4
 568 -125 566 -128 560 -128 c 4
 554 -128 553 -128 547 -115 c 4
 507 -38 450 19 391 76 c 4
 385 82 380 94 380 103 c 4
 380 109 382 113 387 113 c 4
 388 113 395 113 401 110 c 4
 462 80 501 50 537 16 c 5
 583 16 l 5
534 -9 m 5
 534 590 l 5
 586 590 l 5
 586 -9 l 5
 534 -9 l 5
237 484 m 1
 201 450 162 420 101 390 c 0
 95 387 88 387 87 387 c 0
 82 387 80 391 80 397 c 0
 80 406 85 418 91 424 c 0
 150 481 207 538 247 615 c 0
 253 628 254 628 260 628 c 0
 266 628 268 625 273 616 c 0
 313 539 370 482 429 425 c 0
 435 419 440 407 440 398 c 0
 440 387 433 387 429 389 c 0
 367 413 317 451 283 484 c 1
 237 484 l 1
286 509 m 1
 286 -90 l 1
 234 -90 l 1
 234 509 l 1
 286 509 l 1
EndSplineSet
EndChar

StartChar: o
Encoding: 111 111 110
Width: 878
Flags: W
HStem: 74 52<80 679> 374 52<199 798>
VStem: 199 25<377 423> 654 25<77 123>
LayerCount: 2
Fore
SplineSet
654 123 m 5
 621 157 584 207 564 257 c 4
 556 275 560 280 568 280 c 4
 577 280 589 275 595 269 c 4
 652 210 709 153 786 113 c 4
 795 108 798 106 798 100 c 4
 798 94 798 93 785 87 c 4
 708 47 651 -10 594 -69 c 4
 588 -75 576 -80 567 -80 c 4
 561 -80 557 -78 557 -73 c 4
 557 -72 557 -71 558 -69 c 4
 582 -7 620 41 654 77 c 5
 654 123 l 5
679 74 m 5
 80 74 l 5
 80 126 l 5
 679 126 l 5
 679 74 l 5
224 377 m 1
 257 343 294 293 314 243 c 0
 322 225 318 220 310 220 c 0
 301 220 289 225 283 231 c 0
 226 290 169 347 92 387 c 0
 83 392 80 394 80 400 c 0
 80 406 80 407 93 413 c 0
 170 453 227 510 284 569 c 0
 290 575 302 580 311 580 c 0
 317 580 321 578 321 573 c 0
 321 572 321 571 320 569 c 0
 296 507 258 459 224 423 c 1
 224 377 l 1
199 426 m 1
 798 426 l 1
 798 374 l 1
 199 374 l 1
 199 426 l 1
EndSplineSet
EndChar

StartChar: p
Encoding: 112 112 111
Width: 878
Flags: W
HStem: 74 52<199 798> 374 52<199 798>
VStem: 199 25<77 123 377 423>
LayerCount: 2
Fore
SplineSet
224 377 m 5
 257 343 294 293 314 243 c 4
 322 225 318 220 310 220 c 4
 301 220 289 225 283 231 c 4
 226 290 169 347 92 387 c 4
 83 392 80 394 80 400 c 4
 80 406 80 407 93 413 c 4
 170 453 227 510 284 569 c 4
 290 575 302 580 311 580 c 4
 317 580 321 578 321 573 c 4
 321 572 321 571 320 569 c 4
 296 507 258 459 224 423 c 5
 224 377 l 5
199 426 m 5
 798 426 l 5
 798 374 l 5
 199 374 l 5
 199 426 l 5
224 77 m 1
 257 43 294 -7 314 -57 c 0
 322 -75 318 -80 310 -80 c 0
 301 -80 289 -75 283 -69 c 0
 226 -10 169 47 92 87 c 0
 83 92 80 94 80 100 c 0
 80 106 80 107 93 113 c 0
 170 153 227 210 284 269 c 0
 290 275 302 280 311 280 c 0
 317 280 321 278 321 273 c 0
 321 272 321 271 320 269 c 0
 296 207 258 159 224 123 c 1
 224 77 l 1
199 126 m 1
 798 126 l 1
 798 74 l 1
 199 74 l 1
 199 126 l 1
EndSplineSet
EndChar

StartChar: q
Encoding: 113 113 112
Width: 820
Flags: W
HStem: 484 25<237 283 537 583>
VStem: 234 52<-90 509> 534 52<-90 509>
LayerCount: 2
Fore
SplineSet
237 484 m 5
 201 450 162 420 101 390 c 4
 95 387 88 387 87 387 c 4
 82 387 80 391 80 397 c 4
 80 406 85 418 91 424 c 4
 150 481 207 538 247 615 c 4
 253 628 254 628 260 628 c 4
 266 628 268 625 273 616 c 4
 313 539 370 482 429 425 c 4
 435 419 440 407 440 398 c 4
 440 387 433 387 429 389 c 4
 367 413 317 451 283 484 c 5
 237 484 l 5
286 509 m 5
 286 -90 l 5
 234 -90 l 5
 234 509 l 5
 286 509 l 5
537 484 m 1
 501 450 462 420 401 390 c 0
 395 387 388 387 387 387 c 0
 382 387 380 391 380 397 c 0
 380 406 385 418 391 424 c 0
 450 481 507 538 547 615 c 0
 553 628 554 628 560 628 c 0
 566 628 568 625 573 616 c 0
 613 539 670 482 729 425 c 0
 735 419 740 407 740 398 c 0
 740 387 733 387 729 389 c 0
 667 413 617 451 583 484 c 1
 537 484 l 1
586 509 m 1
 586 -90 l 1
 534 -90 l 1
 534 509 l 1
 586 509 l 1
EndSplineSet
EndChar

StartChar: r
Encoding: 114 114 113
Width: 878
Flags: W
HStem: 74 52<80 679> 374 52<80 679>
VStem: 654 25<77 123 377 423>
LayerCount: 2
Fore
SplineSet
654 123 m 5
 621 157 584 207 564 257 c 4
 556 275 560 280 568 280 c 4
 577 280 589 275 595 269 c 4
 652 210 709 153 786 113 c 4
 795 108 798 106 798 100 c 4
 798 94 798 93 785 87 c 4
 708 47 651 -10 594 -69 c 4
 588 -75 576 -80 567 -80 c 4
 561 -80 557 -78 557 -73 c 4
 557 -72 557 -71 558 -69 c 4
 582 -7 620 41 654 77 c 5
 654 123 l 5
679 74 m 5
 80 74 l 5
 80 126 l 5
 679 126 l 5
 679 74 l 5
654 423 m 1
 621 457 584 507 564 557 c 0
 556 575 560 580 568 580 c 0
 577 580 589 575 595 569 c 0
 652 510 709 453 786 413 c 0
 795 408 798 406 798 400 c 0
 798 394 798 393 785 387 c 0
 708 347 651 290 594 231 c 0
 588 225 576 220 567 220 c 0
 561 220 557 222 557 227 c 0
 557 228 557 229 558 231 c 0
 582 293 620 341 654 377 c 1
 654 423 l 1
679 374 m 1
 80 374 l 1
 80 426 l 1
 679 426 l 1
 679 374 l 1
EndSplineSet
EndChar

StartChar: s
Encoding: 115 115 114
Width: 820
Flags: W
HStem: -9 25<237 283 537 583>
VStem: 234 52<-9 590> 534 52<-9 590>
LayerCount: 2
Fore
SplineSet
283 16 m 5
 317 49 367 87 429 111 c 4
 433 113 440 113 440 102 c 4
 440 93 435 81 429 75 c 4
 370 18 313 -39 273 -116 c 4
 268 -125 266 -128 260 -128 c 4
 254 -128 253 -128 247 -115 c 4
 207 -38 150 19 91 76 c 4
 85 82 80 94 80 103 c 4
 80 109 82 113 87 113 c 4
 88 113 95 113 101 110 c 4
 162 80 201 50 237 16 c 5
 283 16 l 5
234 -9 m 5
 234 590 l 5
 286 590 l 5
 286 -9 l 5
 234 -9 l 5
583 16 m 1
 617 49 667 87 729 111 c 0
 733 113 740 113 740 102 c 0
 740 93 735 81 729 75 c 0
 670 18 613 -39 573 -116 c 0
 568 -125 566 -128 560 -128 c 0
 554 -128 553 -128 547 -115 c 0
 507 -38 450 19 391 76 c 0
 385 82 380 94 380 103 c 0
 380 109 382 113 387 113 c 0
 388 113 395 113 401 110 c 0
 462 80 501 50 537 16 c 1
 583 16 l 1
534 -9 m 1
 534 590 l 1
 586 590 l 1
 586 -9 l 1
 534 -9 l 1
EndSplineSet
EndChar

StartChar: t
Encoding: 116 116 115
Width: 868
Flags: W
HStem: -6 21G<554 561.5> 148 52<80 693.5> 174 26<735.5 760> 300 52<199 788>
LayerCount: 2
Fore
SplineSet
788 200 m 4xb0
 788 194 788 180 775 174 c 4xb0
 698 134 641 64 584 5 c 4
 578 -1 566 -6 557 -6 c 4
 551 -6 547 -4 547 1 c 4
 547 2 547 3 548 5 c 4
 572 67 610 115 644 151 c 5
 644 200 l 5xd0
 788 200 l 4xb0
669 148 m 5xd0
 80 148 l 5
 80 200 l 5xd0
 760 200 l 5
 760 174 l 5xb0
 669 148 l 5xd0
80 300 m 0
 80 306 80 320 93 326 c 0
 170 366 227 436 284 495 c 0
 290 501 302 506 311 506 c 0
 317 506 321 504 321 499 c 0
 321 498 321 497 320 495 c 0
 296 433 258 385 224 349 c 1
 224 300 l 1
 80 300 l 0
199 352 m 1
 788 352 l 1
 788 300 l 1
 108 300 l 1
 199 352 l 1
EndSplineSet
EndChar

StartChar: u
Encoding: 117 117 116
Width: 868
Flags: W
HStem: -6 21G<305.5 314> 148 52<199 788> 300 52<80 669>
LayerCount: 2
Fore
SplineSet
224 200 m 1
 224 151 l 1
 257 117 294 67 314 17 c 0
 322 -1 318 -6 310 -6 c 0
 301 -6 289 -1 283 5 c 0
 226 64 169 134 92 174 c 0
 83 179 80 194 80 200 c 0
 224 200 l 1
108 200 m 1
 788 200 l 1
 788 148 l 1
 199 148 l 1
 108 200 l 1
644 300 m 5
 644 349 l 5
 611 383 574 433 554 483 c 4
 546 501 550 506 558 506 c 4
 567 506 579 501 585 495 c 4
 642 436 699 366 776 326 c 4
 785 321 788 306 788 300 c 4
 644 300 l 5
760 300 m 5
 80 300 l 5
 80 352 l 5
 669 352 l 5
 760 300 l 5
EndSplineSet
EndChar

StartChar: v
Encoding: 118 118 117
Width: 878
Flags: W
HStem: 0 21G<459 511.486> 148 52<275 507 570 798> 300 52<275 556 619 798>
LayerCount: 2
Fore
SplineSet
319 81 m 4
 322 75 318 70 310 70 c 4
 301 70 289 75 283 81 c 4
 226 140 169 197 92 237 c 4
 83 242 80 244 80 250 c 4
 80 256 80 257 93 263 c 4
 170 303 227 360 284 419 c 4
 290 425 302 430 311 430 c 4
 317 430 321 428 321 423 c 4
 321 422 321 421 320 419 c 4
 289.60546875 362.553710938 259.407226562 304.279296875 214 263 c 4
 205 255 204 247 214 237 c 4
 258.868164062 196.2109375 288.936523438 136.83203125 319 81 c 4
223 200 m 5
 524 200 l 1
 556 300 l 1
 223 300 l 5
 275 352 l 5
 573 352 l 1
 621 500 l 1
 667 500 l 1
 619 352 l 1
 798 352 l 1
 798 300 l 1
 602 300 l 1
 570 200 l 1
 798 200 l 1
 798 148 l 1
 553 148 l 1
 505 0 l 1
 459 0 l 1
 507 148 l 1
 275 148 l 5
 223 200 l 5
EndSplineSet
EndChar

StartChar: w
Encoding: 119 119 118
Width: 1096
Flags: W
HStem: 0 21G<444 496.486> 148 52<275 492 555 555> 300 52<275 541 604 604>
LayerCount: 2
Fore
SplineSet
882 237 m 4
 891 245 892 253 882 263 c 0
 837.132007519 303.789084073 807.063229926 363.16828728 777 419 c 0
 774 425 778 430 786 430 c 0
 795 430 807 425 813 419 c 0
 870 360 927 303 1004 263 c 0
 1013 258 1016 256 1016 250 c 0
 1016 244 1016 243 1003 237 c 0
 926 197 869 140 812 81 c 0
 806 75 794 70 785 70 c 0
 779 70 775 72 775 77 c 0
 775 78 775 79 776 81 c 0
 806.394068533 137.446127276 836.593218737 195.721107943 882 237 c 4
319 81 m 0
 322 75 318 70 310 70 c 0
 301 70 289 75 283 81 c 0
 226 140 169 197 92 237 c 0
 83 242 80 244 80 250 c 0
 80 256 80 257 93 263 c 0
 170 303 227 360 284 419 c 0
 290 425 302 430 311 430 c 0
 317 430 321 428 321 423 c 0
 321 422 321 421 320 419 c 0
 289.60546875 362.553710938 259.407226562 304.279296875 214 263 c 0
 205 255 204 247 214 237 c 0
 258.868164062 196.2109375 288.936523438 136.83203125 319 81 c 0
821 148 m 1
 538 148 l 1
 490 0 l 1
 444 0 l 1
 492 148 l 1
 275 148 l 1
 223 200 l 1
 509 200 l 1
 541 300 l 1
 223 300 l 1
 275 352 l 1
 558 352 l 1
 606 500 l 1
 652 500 l 1
 604 352 l 1
 821 352 l 1
 873 300 l 1
 587 300 l 1
 555 200 l 1
 873 200 l 1
 821 148 l 1
EndSplineSet
EndChar

StartChar: x
Encoding: 120 120 119
Width: 878
Flags: W
HStem: 0 21G<211 263.486> 148 52<80 259 322 322> 300 52<80 308 371 371>
LayerCount: 2
Fore
SplineSet
664 237 m 0
 673 245 674 253 664 263 c 0
 619.132007519 303.789084073 589.063229926 363.16828728 559 419 c 0
 556 425 560 430 568 430 c 0
 577 430 589 425 595 419 c 0
 652 360 709 303 786 263 c 0
 795 258 798 256 798 250 c 0
 798 244 798 243 785 237 c 0
 708 197 651 140 594 81 c 0
 588 75 576 70 567 70 c 0
 561 70 557 72 557 77 c 0
 557 78 557 79 558 81 c 0
 588.394068533 137.446127276 618.593218737 195.721107943 664 237 c 0
603 148 m 1
 305 148 l 1
 257 0 l 1
 211 0 l 1
 259 148 l 1
 80 148 l 1
 80 200 l 1
 276 200 l 1
 308 300 l 1
 80 300 l 1
 80 352 l 1
 325 352 l 1
 373 500 l 1
 419 500 l 1
 371 352 l 1
 603 352 l 1
 655 300 l 1
 354 300 l 1
 322 200 l 1
 655 200 l 1
 603 148 l 1
EndSplineSet
EndChar

StartChar: y
Encoding: 121 121 120
Width: 878
Flags: W
HStem: 148 52<275 798> 300 52<275 798>
LayerCount: 2
Fore
SplineSet
319 81 m 4
 322 75 318 70 310 70 c 4
 301 70 289 75 283 81 c 4
 226 140 169 197 92 237 c 4
 83 242 80 244 80 250 c 4
 80 256 80 257 93 263 c 4
 170 303 227 360 284 419 c 4
 290 425 302 430 311 430 c 4
 317 430 321 428 321 423 c 4
 321 422 321 421 320 419 c 4
 289.60546875 362.553710938 259.407226562 304.279296875 214 263 c 4
 205 255 204 247 214 237 c 4
 258.868164062 196.2109375 288.936523438 136.83203125 319 81 c 4
275 352 m 5
 798 352 l 1
 798 300 l 1
 223 300 l 5
 275 352 l 5
223 200 m 5
 798 200 l 1
 798 148 l 1
 275 148 l 5
 223 200 l 5
EndSplineSet
EndChar

StartChar: z
Encoding: 122 122 121
Width: 520
Flags: HW
LayerCount: 2
Fore
SplineSet
273 494 m 4
 261 506 252 500 247 494 c 4
 205.709960938 448.581054688 150.86328125 414.60546875 91 388 c 4
 89 387 88 387 87 387 c 4
 82 387 80 391 80 397 c 4
 80 406 85 418 91 424 c 4
 150 481 207 538 247 615 c 4
 253 628 254 628 260 628 c 4
 266 628 268 625 273 616 c 4
 313 539 370 482 429 425 c 4
 435 419 440 407 440 398 c 4
 440 390 437 386 429 389 c 4
 369.772460938 415.323242188 313.807617188 449.111328125 273 494 c 4
362 433 m 5
 362 -90 l 1
 310 -90 l 1
 310 485 l 5
 362 433 l 5
210 485 m 5
 210 -90 l 1
 158 -90 l 1
 158 433 l 5
 210 485 l 5
EndSplineSet
EndChar

StartChar: braceleft
Encoding: 123 123 122
Width: 878
Flags: HW
LayerCount: 2
Fore
SplineSet
664 237 m 4
 673 245 674 253 664 263 c 4
 619.132007519 303.789084073 589.063229926 363.16828728 559 419 c 4
 556 425 560 430 568 430 c 4
 577 430 589 425 595 419 c 4
 652 360 709 303 786 263 c 4
 795 258 798 256 798 250 c 4
 798 244 798 243 785 237 c 4
 708 197 651 140 594 81 c 4
 588 75 576 70 567 70 c 4
 561 70 557 72 557 77 c 4
 557 78 557 79 558 81 c 4
 588.394068533 137.446127276 618.593218737 195.721107943 664 237 c 4
603 148 m 5
 80 148 l 1
 80 200 l 1
 655 200 l 5
 603 148 l 5
655 300 m 5
 80 300 l 1
 80 352 l 1
 603 352 l 5
 655 300 l 5
EndSplineSet
EndChar

StartChar: bar
Encoding: 124 124 123
Width: 520
Flags: W
VStem: 158 52<67 590> 310 52<67 590>
LayerCount: 2
Fore
SplineSet
429 121 m 4
 431 122 432 122 433 122 c 4
 438 122 440 118 440 112 c 4
 440 103 435 91 429 85 c 4
 370 28 313 -29 273 -106 c 4
 267 -119 266 -119 260 -119 c 4
 254 -119 252 -116 247 -107 c 4
 207 -30 150 27 91 84 c 4
 85 90 80 102 80 111 c 4
 80 119 83 123 91 120 c 4
 150.227539062 93.6767578125 206.192382812 59.888671875 247 15 c 4
 259 3 268 9 273 15 c 4
 314.290039062 60.4189453125 369.13671875 94.39453125 429 121 c 4
158 67 m 5
 158 590 l 1
 210 590 l 1
 210 15 l 5
 158 67 l 5
310 15 m 5
 310 590 l 1
 362 590 l 1
 362 67 l 5
 310 15 l 5
EndSplineSet
EndChar

StartChar: braceright
Encoding: 125 125 124
Width: 1096
Flags: HW
LayerCount: 2
Fore
SplineSet
319 81 m 0
 322 75 318 70 310 70 c 0
 301 70 289 75 283 81 c 0
 226 140 169 197 92 237 c 0
 83 242 80 244 80 250 c 0
 80 256 80 257 93 263 c 0
 170 303 227 360 284 419 c 0
 290 425 302 430 311 430 c 0
 317 430 321 428 321 423 c 0
 321 422 321 421 320 419 c 0
 289.60546875 362.553710938 259.407226562 304.279296875 214 263 c 0
 205 255 204 247 214 237 c 0
 258.868164062 196.2109375 288.936523438 136.83203125 319 81 c 0
851 203 m 4
 860 215 871 227 882 237 c 4
 891 245 892 253 882 263 c 4
 837.131835938 303.7890625 807.063476562 363.16796875 777 419 c 4
 774 425 778 430 786 430 c 4
 795 430 807 425 813 419 c 4
 870 360 927 303 1004 263 c 4
 1013 258 1016 256 1016 250 c 4
 1016 244 1016 243 1003 237 c 4
 926 197 869 140 812 81 c 4
 806 75 794 70 785 70 c 4
 779 70 775 72 775 77 c 4
 775 78 775 79 776 81 c 4
 799.610351562 124.848632812 823.861328125 163.987304688 851 203 c 4
821 148 m 5
 275 148 l 1
 223 200 l 1
 873 200 l 5
 821 148 l 5
873 300 m 5
 223 300 l 1
 275 352 l 1
 821 352 l 5
 873 300 l 5
EndSplineSet
EndChar

StartChar: asciitilde
Encoding: 126 126 125
Width: 520
Flags: W
HStem: -218 21G<257 263>
LayerCount: 2
Fore
SplineSet
429 22 m 4
 431 23 432 23 433 23 c 4
 438 23 440 19 440 13 c 4
 440 4 435 -8 429 -14 c 4
 370 -71 313 -128 273 -205 c 4
 267 -218 266 -218 260 -218 c 4
 254 -218 252 -215 247 -206 c 4
 207 -129 150 -72 91 -15 c 4
 85 -9 80 3 80 12 c 4
 80 20 83 24 91 21 c 4
 150.227539062 -5.3232421875 206.192382812 -39.111328125 247 -84 c 4
 259 -96 268 -90 273 -84 c 4
 314.290039062 -38.5810546875 369.13671875 -4.60546875 429 22 c 4
273 584 m 0
 261 596 252 590 247 584 c 0
 205.709960938 538.581054688 150.86328125 504.60546875 91 478 c 0
 89 477 88 477 87 477 c 0
 82 477 80 481 80 487 c 0
 80 496 85 508 91 514 c 0
 150 571 207 628 247 705 c 0
 253 718 254 718 260 718 c 0
 266 718 268 715 273 706 c 0
 313 629 370 572 429 515 c 0
 435 509 440 497 440 488 c 0
 440 480 437 476 429 479 c 0
 369.772460938 505.323242188 313.807617188 539.111328125 273 584 c 0
310 -75 m 5
 310 575 l 1
 362 523 l 1
 362 -23 l 5
 310 -75 l 5
158 -23 m 5
 158 523 l 1
 210 575 l 1
 210 -75 l 5
 158 -23 l 5
EndSplineSet
EndChar

StartChar: uni007F
Encoding: 127 127 126
Width: 742
Flags: W
HStem: 430.859 60.6143<170.195 323.649> 430.859 20.1406<219.65 228.841>
VStem: 107.53 61.0352<276.638 430.223> 148.65 20.1855<371.661 381>
LayerCount: 2
Fore
SplineSet
199.18359375 430.859375 m 4xa0
 194.387695312 430.859375 189.564453125 431.211914062 184.802734375 431.211914062 c 4
 174.171875 431.211914062 168.565429688 426.036132812 168.565429688 412.76171875 c 4xa0
 168.748046875 408.928710938 168.8359375 405.083984375 168.8359375 401.23046875 c 4x90
 168.8359375 344.196289062 149.5703125 285.099609375 132.502929688 228.206054688 c 4
 131.348632812 224.744140625 128.939453125 222.95703125 126.071289062 222.95703125 c 4
 114.518554688 222.95703125 107.046875 244.516601562 107.046875 253.662109375 c 4
 107.313476562 269.134765625 107.530273438 284.556640625 107.530273438 299.951171875 c 4
 107.530273438 366.172851562 103.525390625 431.90234375 82.2978515625 499.028320312 c 4
 80.8837890625 503.978515625 80 507.336914062 80 509.98828125 c 4
 80 514.423828125 84.76953125 520.158203125 89.029296875 520.158203125 c 4
 91.412109375 520.158203125 94.9296875 519.0859375 101.389648438 516.706054688 c 4
 168.515625 495.478515625 234.245117188 491.473632812 300.466796875 491.473632812 c 4
 315.861328125 491.473632812 331.283203125 491.690429688 346.755859375 491.95703125 c 4
 355.76171875 491.95703125 377.750976562 484.297851562 377.750976562 473.037109375 c 4
 377.750976562 469.896484375 375.443359375 467.579101562 372.211914062 466.501953125 c 4
 314.88671875 449.303710938 256.5546875 430.859375 199.18359375 430.859375 c 4xa0
292.650390625 451 m 5x40
 662.650390625 82 l 1
 625.650390625 45 l 1
 219.650390625 451 l 5
 292.650390625 451 l 5x40
148.650390625 381 m 5x10
 555.650390625 -26 l 1
 518.650390625 -63 l 1
 148.650390625 307 l 5
 148.650390625 381 l 5x10
EndSplineSet
EndChar

StartChar: uni0080
Encoding: 128 128 127
Width: 742
Flags: W
HStem: 430.78 20.2204<513.231 523> 431.262 60.2126<409.562 572.02>
VStem: 573.305 61.8603<270.367 430.223> 573.305 20.6952<371.786 381>
LayerCount: 2
Fore
SplineSet
635.165039062 253.663085938 m 4x60
 635.165039062 244.652756931 627.302498591 222.458173696 616.173963039 222.458173696 c 4
 613.710169276 222.458173696 611.52323307 224.215182948 609.708984375 228.20703125 c 4
 588.294010604 283.885963055 573.304767774 342.082404742 573.304767774 398.242754934 c 4
 573.304767774 403.09861263 573.416828126 407.9392484 573.646484375 412.76171875 c 4
 573.646484375 427.990908682 565.105188021 431.261811868 557.731152231 431.261811868 c 4x60
 551.822124107 431.261811868 545.725335434 430.779592254 539.711168158 430.779592254 c 4xa0
 483.361894909 430.779592254 425.983404816 444.969668005 370 466.501953125 c 4
 366.753279999 467.583695086 364.460298269 469.890420684 364.460298269 473.036184727 c 4
 364.460298269 484.290241799 386.472621208 491.958007812 395.455078125 491.958007812 c 4
 410.931619342 491.691015227 426.357818597 491.474399372 441.75742246 491.474399372 c 4
 507.974470916 491.474399372 573.69978913 495.479475551 640.821289062 516.706054688 c 4
 647.281877343 519.086394998 650.799323778 520.158647177 653.181921171 520.158647177 c 4
 657.449847138 520.158647177 662.211669922 514.415769324 662.211669922 509.988647461 c 4
 662.211669922 507.336914062 661.327636719 503.978027344 659.913085938 499.028320312 c 4
 638.685991543 431.902685529 634.681879056 366.174047375 634.681879056 299.953101728 c 4
 634.681879056 284.557619299 634.898301411 269.135527641 635.165039062 253.663085938 c 4x60
594 307 m 5x10
 224 -63 l 1
 187 -26 l 1
 594 381 l 5
 594 307 l 5x10
523 451 m 5x80
 117 45 l 1
 80 82 l 1
 450 451 l 5
 523 451 l 5x80
EndSplineSet
EndChar

StartChar: uni0081
Encoding: 129 129 128
Width: 742
Flags: W
HStem: 8.0256 60.6775<415.274 572.52> 49 19.7031<514.506 523> 435 20G<97 137>
VStem: 573.812 20.1884<119 127.303> 574.146 61.0354<69.2765 223.941>
LayerCount: 2
Fore
SplineSet
541.049523542 68.703083069 m 0xa8
 546.575511443 68.703083069 552.294462478 68.2880809708 557.908869596 68.2880809708 c 0
 568.538747568 68.2880809708 574.146484375 73.4637704282 574.146484375 86.73828125 c 0xa8
 573.919978678 91.4955265875 573.811583199 96.1953401203 573.811583199 100.841137495 c 0xb0
 573.811583199 164.953045854 594.454356752 218.778147731 610.208984375 271.29296875 c 0
 611.362852233 274.755103571 613.772409546 276.543082116 616.640585996 276.543082116 c 0
 628.192648464 276.543082116 635.665039062 254.982114196 635.665039062 245.836914062 c 0
 635.398301411 230.364472359 635.181879056 214.942380701 635.181879056 199.546898272 c 0
 635.181879056 133.325952625 639.185991543 67.5973144709 660.413085938 0.4716796875 c 0
 661.827636719 -4.47802734375 662.711669922 -7.8369140625 662.711669922 -10.4886474609 c 0
 662.711669922 -14.9232673066 657.942105017 -20.6586471768 653.681921171 -20.6586471768 c 0
 651.299323778 -20.6586471768 647.781877343 -19.5863949982 641.321289062 -17.2060546875 c 0
 574.19978913 4.02052444877 508.474470916 8.02560062837 442.25742246 8.02560062837 c 0
 426.857818597 8.02560062837 411.431619342 7.80898477288 395.955078125 7.5419921875 c 0
 386.950354248 7.5419921875 364.960298269 15.2031504986 364.960298269 26.463815273 c 0
 364.960298269 29.6040758735 367.267948509 31.9211921676 370.5 32.998046875 c 0
 422.958989295 48.7359247875 476.700711081 68.703083069 541.049523542 68.703083069 c 0xa8
450 49 m 1x60
 80 418 l 1
 117 455 l 1
 523 49 l 1
 450 49 l 1x60
594 119 m 1x30
 187 526 l 1
 224 563 l 1
 594 193 l 1
 594 119 l 1x30
EndSplineSet
EndChar

StartChar: uni0082
Encoding: 130 130 129
Width: 736
Flags: W
HStem: -14.1582 21G<86.8955 90.2207> 14.5254 60.2129<170.191 213.078> 49 26.2207<213.212 223.675> 435 20G<599.212 639.212>
VStem: 107.047 61.8604<75.7767 118.31> 142.212 26.6953<119 131.558>
LayerCount: 2
Fore
SplineSet
184.48046875 74.73828125 m 4xd8
 190.389648438 74.73828125 196.486328125 75.220703125 202.500976562 75.220703125 c 4xb8
 258.849609375 75.220703125 316.228515625 61.0302734375 372.211914062 39.498046875 c 4
 375.458007812 38.416015625 377.750976562 36.109375 377.750976562 32.9638671875 c 4
 377.750976562 21.7099609375 355.739257812 14.0419921875 346.756835938 14.0419921875 c 4
 331.280273438 14.30859375 315.853515625 14.525390625 300.454101562 14.525390625 c 4
 234.237304688 14.525390625 168.51171875 10.5205078125 101.390625 -10.7060546875 c 4
 94.9296875 -13.0859375 91.412109375 -14.158203125 89.029296875 -14.158203125 c 4
 84.76171875 -14.158203125 80 -8.416015625 80 -3.98828125 c 4
 80 -1.3369140625 80.8837890625 2.021484375 82.298828125 6.9716796875 c 4
 103.525390625 74.09765625 107.530273438 139.826171875 107.530273438 206.046875 c 4
 107.530273438 221.442382812 107.313476562 236.864257812 107.046875 252.336914062 c 4
 107.046875 261.34765625 114.909179688 283.541992188 126.038085938 283.541992188 c 4
 128.501953125 283.541992188 130.688476562 281.78515625 132.502929688 277.79296875 c 4
 153.91796875 222.114257812 168.907226562 163.91796875 168.907226562 107.756835938 c 4
 168.907226562 102.901367188 168.794921875 98.060546875 168.565429688 93.23828125 c 4
 168.565429688 78.0087890625 177.106445312 74.73828125 184.48046875 74.73828125 c 4xd8
142.211914062 193 m 5x94
 512.211914062 563 l 1
 549.211914062 526 l 1
 142.211914062 119 l 5
 142.211914062 193 l 5x94
213.211914062 49 m 5xb0
 619.211914062 455 l 1
 656.211914062 418 l 1
 286.211914062 49 l 5
 213.211914062 49 l 5xb0
EndSplineSet
EndChar

StartChar: uni0083
Encoding: 131 131 130
Width: 1058
Flags: W
HStem: 122 52<271 978> 224 52<199 224 225 978> 326 52<271 978>
VStem: 199 25<227 273>
LayerCount: 2
Fore
SplineSet
319 81 m 4
 320 79 320 78 320 77 c 4
 320 72 316 70 310 70 c 4
 301 70 289 75 283 81 c 4
 226 140 169 197 92 237 c 4
 83 242 80 244 80 250 c 4
 80 256 80 257 93 263 c 4
 170 303 227 360 284 419 c 4
 290 425 302 430 311 430 c 4
 322 430 322 423 320 419 c 4
 291.008789062 368.264648438 263.0546875 313.432617188 225 273 c 5
 224 227 l 5
 259.03515625 181.064453125 291.764648438 135.470703125 319 81 c 4
271 378 m 5
 978 378 l 5
 978 326 l 5
 219 326 l 5
 271 378 l 5
199 276 m 5
 978 276 l 5
 978 224 l 5
 199 224 l 5
 199 276 l 5
219 174 m 5
 978 174 l 5
 978 122 l 5
 271 122 l 5
 219 174 l 5
EndSplineSet
EndChar

StartChar: uni0084
Encoding: 132 132 131
Width: 1058
Flags: W
HStem: 224 52<80 833 834 859>
VStem: 833 26<227 273>
LayerCount: 2
Fore
SplineSet
833 227 m 5
 834 273 l 5
 795.48828125 311.51171875 764.7421875 367.514648438 739 419 c 4
 738 421 738 422 738 423 c 4
 738 428 742 430 748 430 c 4
 757 430 769 425 775 419 c 4
 832 360 889 303 966 263 c 4
 975 258 978 256 978 250 c 4
 978 244 978 243 965 237 c 4
 888 197 831 140 774 81 c 4
 768 75 756 70 747 70 c 4
 736 70 736 77 738 81 c 4
 766.991210938 131.735351562 794.9453125 186.567382812 833 227 c 5
767 122 m 5
 80 122 l 5
 80 174 l 5
 819 174 l 5
 767 122 l 5
859 224 m 5
 80 224 l 5
 80 276 l 5
 859 276 l 5
 859 224 l 5
819 326 m 5
 80 326 l 5
 80 378 l 5
 767 378 l 5
 819 326 l 5
EndSplineSet
EndChar

StartChar: uni0085
Encoding: 133 133 132
Width: 878
Flags: W
HStem: 115 52<496.452 555.235> 224 52<199 304.294 746.422 798> 333 52<368.366 420.235 631.452 682.436>
VStem: 199 25<227 273>
LayerCount: 2
Fore
SplineSet
224 227 m 5
 257 193 294 143 314 93 c 4
 322 75 318 70 310 70 c 4
 301 70 289 75 283 81 c 4
 226 140 169 197 92 237 c 4
 83 242 80 244 80 250 c 4
 80 256 80 257 93 263 c 4
 170 303 227 360 284 419 c 4
 290 425 302 430 311 430 c 4
 317 430 321 428 321 423 c 4
 321 422 321 421 320 419 c 4
 296 357 258 309 224 273 c 5
 224 227 l 5
199 276 m 1
 282 276 l 2
 292 276 297 283 301 291 c 0
 311 307 317 328 327 344 c 0
 341 368 360 385 390 385 c 0
 442 385 465 353 476 308 c 0
 483 276 483 236 491 203 c 0
 496 184 503 167 525 167 c 0
 548 167 555 184 560 203 c 0
 568 236 568 276 575 308 c 0
 586 353 609 385 660 385 c 0
 691 385 710 368 724 344 c 0
 734 328 740 307 750 291 c 0
 754 283 759 276 768 276 c 2
 798 276 l 1
 798 224 l 1
 768 224 l 2
 738 224 719 241 705 265 c 0
 695 281 689 302 679 318 c 0
 675 326 670 333 660 333 c 0
 638 333 631 316 626 297 c 0
 618 264 618 224 611 192 c 0
 600 147 577 115 525 115 c 0
 474 115 451 147 440 192 c 0
 433 224 433 264 425 297 c 0
 420 316 413 333 390 333 c 0
 381 333 376 326 372 318 c 0
 362 302 356 281 346 265 c 0
 332 241 313 224 282 224 c 2
 199 224 l 1
 199 276 l 1
EndSplineSet
EndChar

StartChar: uni0086
Encoding: 134 134 133
Width: 878
Flags: W
HStem: 115 52<322.765 381.548> 224 52<80 131.578 573.706 679> 333 52<195.564 246.548 457.765 509.634>
VStem: 654 25<227 273>
LayerCount: 2
Fore
SplineSet
654 273 m 5
 621 307 584 357 564 407 c 4
 556 425 560 430 568 430 c 4
 577 430 589 425 595 419 c 4
 652 360 709 303 786 263 c 4
 795 258 798 256 798 250 c 4
 798 244 798 243 785 237 c 4
 708 197 651 140 594 81 c 4
 588 75 576 70 567 70 c 4
 561 70 557 72 557 77 c 4
 557 78 557 79 558 81 c 4
 582 143 620 191 654 227 c 5
 654 273 l 5
679 224 m 1
 596 224 l 2
 565 224 546 241 532 265 c 0
 522 281 516 302 506 318 c 0
 502 326 497 333 488 333 c 0
 465 333 458 316 453 297 c 0
 445 264 445 224 438 192 c 0
 427 147 404 115 353 115 c 0
 301 115 278 147 267 192 c 0
 260 224 260 264 252 297 c 0
 247 316 240 333 218 333 c 0
 208 333 203 326 199 318 c 0
 189 302 183 281 173 265 c 0
 159 241 140 224 110 224 c 2
 80 224 l 1
 80 276 l 1
 110 276 l 2
 119 276 124 283 128 291 c 0
 138 307 144 328 154 344 c 0
 168 368 187 385 218 385 c 0
 269 385 292 353 303 308 c 0
 310 276 310 236 318 203 c 0
 323 184 330 167 353 167 c 0
 375 167 382 184 387 203 c 0
 395 236 395 276 402 308 c 0
 413 353 436 385 488 385 c 0
 518 385 537 368 551 344 c 0
 561 328 567 307 577 291 c 0
 581 283 586 276 596 276 c 2
 679 276 l 1
 679 224 l 1
EndSplineSet
EndChar

StartChar: uni0087
Encoding: 135 135 134
Width: 1073
Flags: W
HStem: 156 36<343 957> 308 36<343 957>
VStem: 307 36<73 156 344 427> 957 36<192 308>
LayerCount: 2
Fore
SplineSet
993 156 m 1
 343 156 l 1
 343 30 l 1
 300 30 l 1
 80 250 l 1
 300 470 l 1
 344 470 l 1
 343 344 l 1
 993 344 l 1
 993 156 l 1
957 308 m 1
 307 308 l 1
 307 427 l 1
 131 250 l 1
 307 73 l 1
 307 192 l 1
 957 192 l 1
 957 308 l 1
EndSplineSet
EndChar

StartChar: uni0088
Encoding: 136 136 135
Width: 600
Flags: W
HStem: -198 36<242 358> 452 36<123 206 394 477>
VStem: 206 36<-162 452> 358 36<-162 452>
LayerCount: 2
Fore
SplineSet
520 452 m 1
 394 452 l 1
 394 -198 l 1
 206 -198 l 1
 206 452 l 1
 80 452 l 1
 80 496 l 1
 300 715 l 1
 520 495 l 1
 520 452 l 1
477 488 m 1
 300 665 l 1
 123 488 l 1
 242 488 l 1
 242 -162 l 1
 358 -162 l 1
 358 488 l 1
 477 488 l 1
EndSplineSet
EndChar

StartChar: uni0089
Encoding: 137 137 136
Width: 1073
Flags: W
HStem: 156 36<116 730> 308 36<116 730>
VStem: 80 36<192 308> 730 36<73 156 344 427>
LayerCount: 2
Fore
SplineSet
993 250 m 1
 774 30 l 1
 730 30 l 1
 730 156 l 1
 80 156 l 1
 80 344 l 1
 730 344 l 1
 730 470 l 1
 773 470 l 1
 993 250 l 1
943 250 m 1
 766 427 l 1
 766 308 l 1
 116 308 l 1
 116 192 l 1
 766 192 l 1
 766 73 l 1
 943 250 l 1
EndSplineSet
EndChar

StartChar: uni008A
Encoding: 138 138 137
Width: 600
Flags: W
HStem: 12 36<123 206 394 477> 662 36<242 358>
VStem: 206 36<48 662> 358 36<48 662>
LayerCount: 2
Fore
SplineSet
520 5 m 1
 300 -215 l 1
 80 4 l 1
 80 48 l 1
 206 48 l 1
 206 698 l 1
 394 698 l 1
 394 48 l 1
 520 48 l 1
 520 5 l 1
477 12 m 1
 358 12 l 1
 358 662 l 1
 242 662 l 1
 242 12 l 1
 123 12 l 1
 300 -165 l 1
 477 12 l 1
EndSplineSet
EndChar

StartChar: uni008B
Encoding: 139 139 138
Width: 600
Flags: W
HStem: 12 36<123 206 394 477> 452 36<123 206 394 477>
VStem: 206 36<48 452> 358 36<48 452>
LayerCount: 2
Fore
SplineSet
520 4 m 1
 300 -215 l 1
 80 5 l 1
 80 48 l 1
 206 48 l 1
 206 452 l 1
 80 452 l 1
 80 496 l 1
 300 715 l 1
 520 495 l 1
 520 452 l 1
 394 452 l 1
 394 48 l 1
 520 48 l 1
 520 4 l 1
477 488 m 1
 300 665 l 1
 123 488 l 1
 242 488 l 1
 242 12 l 1
 123 12 l 1
 300 -165 l 1
 477 12 l 1
 358 12 l 1
 358 488 l 1
 477 488 l 1
EndSplineSet
EndChar

StartChar: uni008C
Encoding: 140 140 139
Width: 820
Flags: W
HStem: -9 25<237 283> 484 25<537 583>
VStem: 234 52<-9 590> 534 52<-90 509>
LayerCount: 2
Fore
SplineSet
283 16 m 5
 317 49 367 87 429 111 c 4
 433 113 440 113 440 102 c 4
 440 93 435 81 429 75 c 4
 370 18 313 -39 273 -116 c 4
 268 -125 266 -128 260 -128 c 4
 254 -128 253 -128 247 -115 c 4
 207 -38 150 19 91 76 c 4
 85 82 80 94 80 103 c 4
 80 109 82 113 87 113 c 4
 88 113 95 113 101 110 c 4
 162 80 201 50 237 16 c 5
 283 16 l 5
234 -9 m 5
 234 590 l 1
 286 590 l 1
 286 -9 l 5
 234 -9 l 5
537 484 m 1
 501 450 462 420 401 390 c 0
 395 387 388 387 387 387 c 0
 382 387 380 391 380 397 c 0
 380 406 385 418 391 424 c 0
 450 481 507 538 547 615 c 0
 553 628 554 628 560 628 c 0
 566 628 568 625 573 616 c 0
 613 539 670 482 729 425 c 0
 735 419 740 407 740 398 c 0
 740 387 733 387 729 389 c 0
 667 413 617 451 583 484 c 1
 537 484 l 1
586 509 m 1
 586 -90 l 1
 534 -90 l 1
 534 509 l 1
 586 509 l 1
EndSplineSet
EndChar

StartChar: uni008D
Encoding: 141 141 140
Width: 878
Flags: W
HStem: -76 52<80 679> 224 52<80 679> 524 52<80 679>
VStem: 654 25<-73 -27 227 273 527 573>
LayerCount: 2
Fore
SplineSet
654 -27 m 5
 621 7 584 57 564 107 c 4
 556 125 560 130 568 130 c 4
 577 130 589 125 595 119 c 4
 652 60 709 3 786 -37 c 4
 795 -42 798 -44 798 -50 c 4
 798 -56 798 -57 785 -63 c 4
 708 -103 651 -160 594 -219 c 4
 588 -225 576 -230 567 -230 c 4
 561 -230 557 -228 557 -223 c 4
 557 -222 557 -221 558 -219 c 4
 582 -157 620 -109 654 -73 c 5
 654 -27 l 5
679 -76 m 5
 80 -76 l 5
 80 -24 l 5
 679 -24 l 5
 679 -76 l 5
654 573 m 1
 621 607 584 657 564 707 c 0
 556 725 560 730 568 730 c 0
 577 730 589 725 595 719 c 0
 652 660 709 603 786 563 c 0
 795 558 798 556 798 550 c 0
 798 544 798 543 785 537 c 0
 708 497 651 440 594 381 c 0
 588 375 576 370 567 370 c 0
 561 370 557 372 557 377 c 0
 557 378 557 379 558 381 c 0
 582 443 620 491 654 527 c 1
 654 573 l 1
679 524 m 1
 80 524 l 1
 80 576 l 1
 679 576 l 1
 679 524 l 1
654 273 m 1
 621 307 584 357 564 407 c 0
 556 425 560 430 568 430 c 0
 577 430 589 425 595 419 c 0
 652 360 709 303 786 263 c 0
 795 258 798 256 798 250 c 0
 798 244 798 243 785 237 c 0
 708 197 651 140 594 81 c 0
 588 75 576 70 567 70 c 0
 561 70 557 72 557 77 c 0
 557 78 557 79 558 81 c 0
 582 143 620 191 654 227 c 1
 654 273 l 1
679 224 m 1
 80 224 l 1
 80 276 l 1
 679 276 l 1
 679 224 l 1
EndSplineSet
EndChar

StartChar: uni008E
Encoding: 142 142 141
Width: 660
Flags: W
HStem: -18 52<242.043 417.957> 228 44<271 458>
VStem: 80 52<146.07 500> 271 36.7998<230 270> 528 52<146.07 500>
LayerCount: 2
Fore
SplineSet
307.799804688 270 m 1
 307.799804688 230 l 1
 335 201.200195312 333.799804688 194.400390625 353 144.799804688 c 0
 353.799804688 143.200195312 353.799804688 142.400390625 353.799804688 141.599609375 c 0
 353.799804688 137.599609375 350.599609375 136 345.799804688 136 c 0
 338.599609375 136 329 140 324.200195312 144.799804688 c 0
 278.599609375 192 263 207.599609375 201.400390625 239.599609375 c 0
 191 244.400390625 191 245.200195312 191 250 c 0
 191 254.799804688 193.400390625 256.400390625 200.599609375 260.400390625 c 0
 262.200195312 292.400390625 277.799804688 308 323.400390625 355.200195312 c 0
 328.200195312 360 337.799804688 364 345 364 c 0
 351.400390625 364 354.599609375 360 348.200195312 345.599609375 c 0
 332.200195312 305.599609375 334.200195312 297.200195312 307.799804688 270 c 1
580 232 m 2
 580 94 468 -18 330 -18 c 0
 192 -18 80 94 80 232 c 2
 80 500 l 1
 132 500 l 1
 132 232 l 2
 132 123 221 34 330 34 c 0
 439 34 528 123 528 232 c 2
 528 500 l 1
 580 500 l 1
 580 232 l 2
271 272 m 5
 458 272 l 1
 458 228 l 1
 271 228 l 5
 271 272 l 5
EndSplineSet
EndChar

StartChar: uni008F
Encoding: 143 143 142
Width: 1160
Flags: W
HStem: -68 53<379.697 458 510 588.303> 224 52<80 168.579 219 458 510 749 799.421 961> 515 53<379.697 458 510 588.303>
VStem: 167 52<145.683 224 276 354.317> 458 52<-15 224 276 515> 749 52<145.683 224 276 354.317> 936 25<227 273>
LayerCount: 2
Fore
SplineSet
936 273 m 5
 903 307 866 357 846 407 c 4
 838 425 842 430 850 430 c 4
 859 430 871 425 877 419 c 4
 934 360 991 303 1068 263 c 4
 1077 258 1080 256 1080 250 c 4
 1080 244 1080 243 1067 237 c 4
 990 197 933 140 876 81 c 4
 870 75 858 70 849 70 c 4
 843 70 839 72 839 77 c 4
 839 78 839 79 840 81 c 4
 864 143 902 191 936 227 c 5
 936 273 l 5
961 224 m 5
 801 224 l 1
 788 61 651 -68 484 -68 c 0
 317 -68 180 61 167 224 c 1
 80 224 l 1
 80 276 l 1
 167 276 l 1
 180 439 317 568 484 568 c 0
 651 568 788 439 801 276 c 1
 961 276 l 5
 961 224 l 5
749 276 m 1
 736 402 636 502 510 515 c 1
 510 276 l 1
 749 276 l 1
458 515 m 1
 332 502 232 402 219 276 c 1
 458 276 l 1
 458 515 l 1
458 -15 m 1
 458 224 l 1
 219 224 l 1
 232 98 332 -2 458 -15 c 1
749 224 m 1
 510 224 l 1
 510 -15 l 1
 636 -2 736 98 749 224 c 1
EndSplineSet
EndChar

StartChar: uni0090
Encoding: 144 144 143
Width: 1198
Flags: W
HStem: 224 52<199 1118>
VStem: 199 25<227 273>
LayerCount: 2
Fore
SplineSet
224 227 m 1
 257 193 294 143 314 93 c 0
 322 75 318 70 310 70 c 0
 301 70 289 75 283 81 c 0
 226 140 169 197 92 237 c 0
 83 242 80 244 80 250 c 0
 80 256 80 257 93 263 c 0
 170 303 227 360 284 419 c 0
 290 425 302 430 311 430 c 0
 317 430 321 428 321 423 c 0
 321 422 321 421 320 419 c 0
 296 357 258 309 224 273 c 1
 224 227 l 1
199 276 m 1
 1118 276 l 5
 1118 224 l 5
 199 224 l 1
 199 276 l 1
EndSplineSet
EndChar

StartChar: uni0091
Encoding: 145 145 144
Width: 1198
Flags: W
HStem: 224 52<80 999>
VStem: 974 25<227 273>
LayerCount: 2
Fore
SplineSet
974 273 m 5
 941 307 904 357 884 407 c 4
 876 425 880 430 888 430 c 4
 897 430 909 425 915 419 c 4
 972 360 1029 303 1106 263 c 4
 1115 258 1118 256 1118 250 c 4
 1118 244 1118 243 1105 237 c 4
 1028 197 971 140 914 81 c 4
 908 75 896 70 887 70 c 4
 881 70 877 72 877 77 c 4
 877 78 877 79 878 81 c 4
 902 143 940 191 974 227 c 5
 974 273 l 5
999 224 m 5
 80 224 l 1
 80 276 l 1
 999 276 l 5
 999 224 l 5
EndSplineSet
EndChar

StartChar: uni0092
Encoding: 146 146 145
Width: 1412
Flags: W
HStem: 224 52<199 1213>
VStem: 199 25<227 273> 1188 25<227 273>
LayerCount: 2
Fore
SplineSet
224 227 m 1
 257 193 294 143 314 93 c 0
 322 75 318 70 310 70 c 0
 301 70 289 75 283 81 c 0
 226 140 169 197 92 237 c 0
 83 242 80 244 80 250 c 0
 80 256 80 257 93 263 c 0
 170 303 227 360 284 419 c 0
 290 425 302 430 311 430 c 0
 317 430 321 428 321 423 c 0
 321 422 321 421 320 419 c 0
 296 357 258 309 224 273 c 1
 224 227 l 1
199 276 m 1
 1213 276 l 5
 1213 224 l 5
 199 224 l 1
 199 276 l 1
1188 273 m 5
 1155 307 1118 357 1098 407 c 4
 1090 425 1094 430 1102 430 c 4
 1111 430 1123 425 1129 419 c 4
 1186 360 1243 303 1320 263 c 4
 1329 258 1332 256 1332 250 c 4
 1332 244 1332 243 1319 237 c 4
 1242 197 1185 140 1128 81 c 4
 1122 75 1110 70 1101 70 c 4
 1095 70 1091 72 1091 77 c 4
 1091 78 1091 79 1092 81 c 4
 1116 143 1154 191 1188 227 c 5
 1188 273 l 5
EndSplineSet
EndChar

StartChar: uni0093
Encoding: 147 147 146
Width: 1198
Flags: W
HStem: 148 52<275 1118> 300 52<275 1118>
LayerCount: 2
Fore
SplineSet
223 200 m 5
 1118 200 l 1
 1118 148 l 1
 275 148 l 5
 223 200 l 5
275 352 m 5
 1118 352 l 1
 1118 300 l 1
 223 300 l 5
 275 352 l 5
319 81 m 4
 322 75 318 70 310 70 c 4
 301 70 289 75 283 81 c 4
 226 140 169 197 92 237 c 4
 83 242 80 244 80 250 c 4
 80 256 80 257 93 263 c 4
 170 303 227 360 284 419 c 4
 290 425 302 430 311 430 c 4
 317 430 321 428 321 423 c 4
 321 422 321 421 320 419 c 4
 289.60546875 362.553710938 259.407226562 304.279296875 214 263 c 4
 205 255 204 247 214 237 c 4
 258.868164062 196.2109375 288.936523438 136.83203125 319 81 c 4
EndSplineSet
EndChar

StartChar: uni0094
Encoding: 148 148 147
Width: 1198
Flags: HW
LayerCount: 2
Fore
SplineSet
984 237 m 4
 993 245 994 253 984 263 c 4
 939.131835938 303.7890625 909.063476562 363.16796875 879 419 c 4
 876 425 880 430 888 430 c 4
 897 430 909 425 915 419 c 4
 972 360 1029 303 1106 263 c 4
 1115 258 1118 256 1118 250 c 4
 1118 244 1118 243 1105 237 c 4
 1028 197 971 140 914 81 c 4
 908 75 896 70 887 70 c 4
 881 70 877 72 877 77 c 4
 877 78 877 79 878 81 c 4
 908.39453125 137.446289062 938.592773438 195.720703125 984 237 c 4
923 148 m 5
 80 148 l 1
 80 200 l 1
 975 200 l 5
 923 148 l 5
975 300 m 5
 80 300 l 1
 80 352 l 1
 923 352 l 5
 975 300 l 5
EndSplineSet
EndChar

StartChar: uni0095
Encoding: 149 149 148
Width: 1412
Flags: HW
LayerCount: 2
Fore
SplineSet
1198 237 m 4
 1207 245 1208 253 1198 263 c 4
 1153.13183594 303.7890625 1123.06347656 363.16796875 1093 419 c 4
 1090 425 1094 430 1102 430 c 4
 1111 430 1123 425 1129 419 c 4
 1186 360 1243 303 1320 263 c 4
 1329 258 1332 256 1332 250 c 4
 1332 244 1332 243 1319 237 c 4
 1242 197 1185 140 1128 81 c 4
 1122 75 1110 70 1101 70 c 4
 1095 70 1091 72 1091 77 c 4
 1091 78 1091 79 1092 81 c 4
 1122.39453125 137.446289062 1152.59277344 195.720703125 1198 237 c 4
1137 148 m 5
 275 148 l 1
 223 200 l 1
 1189 200 l 5
 1137 148 l 5
1189 300 m 5
 223 300 l 1
 275 352 l 1
 1137 352 l 5
 1189 300 l 5
319 81 m 0
 322 75 318 70 310 70 c 0
 301 70 289 75 283 81 c 0
 226 140 169 197 92 237 c 0
 83 242 80 244 80 250 c 0
 80 256 80 257 93 263 c 0
 170 303 227 360 284 419 c 0
 290 425 302 430 311 430 c 0
 317 430 321 428 321 423 c 0
 321 422 321 421 320 419 c 0
 289.60546875 362.553710938 259.407226562 304.279296875 214 263 c 0
 205 255 204 247 214 237 c 0
 258.868164062 196.2109375 288.936523438 136.83203125 319 81 c 0
EndSplineSet
EndChar

StartChar: uni0096
Encoding: 150 150 149
Width: 1198
Flags: W
HStem: 224 52<199 1072>
VStem: 199 25<227 273> 1072 46<70 224 276 430>
LayerCount: 2
Fore
SplineSet
224 227 m 1
 257 193 294 143 314 93 c 0
 322 75 318 70 310 70 c 0
 301 70 289 75 283 81 c 0
 226 140 169 197 92 237 c 0
 83 242 80 244 80 250 c 0
 80 256 80 257 93 263 c 0
 170 303 227 360 284 419 c 0
 290 425 302 430 311 430 c 0
 317 430 321 428 321 423 c 0
 321 422 321 421 320 419 c 0
 296 357 258 309 224 273 c 1
 224 227 l 1
199 276 m 1
 1072 276 l 5
 1072 430 l 5
 1118 430 l 5
 1118 70 l 5
 1072 70 l 5
 1072 224 l 5
 199 224 l 1
 199 276 l 1
EndSplineSet
EndChar

StartChar: uni0097
Encoding: 151 151 150
Width: 1198
Flags: W
HStem: 224 52<126 999>
VStem: 80 46<70 224 276 430> 974 25<227 273>
LayerCount: 2
Fore
SplineSet
974 273 m 5
 941 307 904 357 884 407 c 4
 876 425 880 430 888 430 c 4
 897 430 909 425 915 419 c 4
 972 360 1029 303 1106 263 c 4
 1115 258 1118 256 1118 250 c 4
 1118 244 1118 243 1105 237 c 4
 1028 197 971 140 914 81 c 4
 908 75 896 70 887 70 c 4
 881 70 877 72 877 77 c 4
 877 78 877 79 878 81 c 4
 902 143 940 191 974 227 c 5
 974 273 l 5
999 224 m 5
 126 224 l 1
 126 70 l 1
 80 70 l 1
 80 430 l 1
 126 430 l 1
 126 276 l 1
 999 276 l 5
 999 224 l 5
EndSplineSet
EndChar

StartChar: uni0098
Encoding: 152 152 151
Width: 1378
Flags: W
HStem: 148 52<275 1252> 300 52<275 1252>
VStem: 1252 46<30 148 200 300 352 470>
LayerCount: 2
Fore
SplineSet
275 352 m 1
 1252 352 l 5
 1252 470 l 5
 1298 470 l 5
 1298 30 l 5
 1252 30 l 5
 1252 148 l 5
 275 148 l 1
 223 200 l 1
 1252 200 l 5
 1252 300 l 5
 223 300 l 1
 275 352 l 1
319 81 m 0
 322 75 318 70 310 70 c 0
 301 70 289 75 283 81 c 0
 226 140 169 197 92 237 c 0
 83 242 80 244 80 250 c 0
 80 256 80 257 93 263 c 0
 170 303 227 360 284 419 c 0
 290 425 302 430 311 430 c 0
 317 430 321 428 321 423 c 0
 321 422 321 421 320 419 c 0
 289.60546875 362.553710938 259.407226562 304.279296875 214 263 c 0
 205 255 204 247 214 237 c 0
 258.868164062 196.2109375 288.936523438 136.83203125 319 81 c 0
EndSplineSet
EndChar

StartChar: uni0099
Encoding: 153 153 152
Width: 1378
Flags: W
VStem: 80 46<30 148 200 300 352 470>
LayerCount: 2
Fore
SplineSet
1133 203 m 4
 1142 215 1153 227 1164 237 c 4
 1173 245 1174 253 1164 263 c 4
 1119.13183594 303.7890625 1089.06347656 363.16796875 1059 419 c 4
 1056 425 1060 430 1068 430 c 4
 1077 430 1089 425 1095 419 c 4
 1152 360 1209 303 1286 263 c 4
 1295 258 1298 256 1298 250 c 4
 1298 244 1298 243 1285 237 c 4
 1208 197 1151 140 1094 81 c 4
 1088 75 1076 70 1067 70 c 4
 1061 70 1057 72 1057 77 c 4
 1057 78 1057 79 1058 81 c 4
 1081.61035156 124.848632812 1105.86132812 163.987304688 1133 203 c 4
1155 300 m 5
 126 300 l 1
 126 200 l 1
 1155 200 l 5
 1103 148 l 5
 126 148 l 1
 126 30 l 1
 80 30 l 1
 80 470 l 1
 126 470 l 1
 126 352 l 1
 1103 352 l 5
 1155 300 l 5
EndSplineSet
EndChar

StartChar: uni009A
Encoding: 154 154 153
Width: 1198
Flags: W
HStem: 115 52<347.765 406.548 617.765 676.548> 224 52<80 156.578 868.706 999> 333 52<220.564 271.548 482.765 541.548 752.765 804.634>
VStem: 974 25<227 273>
LayerCount: 2
Fore
SplineSet
974 273 m 1
 941 307 904 357 884 407 c 0
 876 425 880 430 888 430 c 0
 897 430 909 425 915 419 c 0
 972 360 1029 303 1106 263 c 0
 1115 258 1118 256 1118 250 c 0
 1118 244 1118 243 1105 237 c 0
 1028 197 971 140 914 81 c 0
 908 75 896 70 887 70 c 0
 881 70 877 72 877 77 c 0
 877 78 877 79 878 81 c 0
 902 143 940 191 974 227 c 1
 974 273 l 1
999 224 m 1
 891 224 l 2
 860 224 841 241 827 265 c 0
 817 281 811 302 801 318 c 0
 797 326 792 333 783 333 c 0
 760 333 753 316 748 297 c 0
 740 264 740 224 733 192 c 0
 722 147 699 115 648 115 c 0
 596 115 573 147 562 192 c 0
 555 224 555 264 547 297 c 0
 542 316 535 333 513 333 c 0
 490 333 483 316 478 297 c 0
 470 264 470 224 463 192 c 0
 452 147 429 115 378 115 c 0
 326 115 303 147 292 192 c 0
 285 224 285 264 277 297 c 0
 272 316 265 333 243 333 c 0
 233 333 228 326 224 318 c 0
 214 302 208 281 198 265 c 0
 184 241 165 224 135 224 c 2
 80 224 l 1
 80 276 l 1
 135 276 l 2
 144 276 149 283 153 291 c 0
 163 307 169 328 179 344 c 0
 193 368 212 385 243 385 c 0
 294 385 317 353 328 308 c 0
 335 276 335 236 343 203 c 0
 348 184 355 167 378 167 c 0
 400 167 407 184 412 203 c 0
 420 236 420 276 427 308 c 0
 438 353 461 385 513 385 c 0
 564 385 587 353 598 308 c 0
 605 276 605 236 613 203 c 0
 618 184 625 167 648 167 c 0
 670 167 677 184 682 203 c 0
 690 236 690 276 697 308 c 0
 708 353 731 385 783 385 c 0
 813 385 832 368 846 344 c 0
 856 328 862 307 872 291 c 0
 876 283 881 276 891 276 c 2
 999 276 l 1
 999 224 l 1
EndSplineSet
EndChar

StartChar: uni009B
Encoding: 155 155 154
Width: 1058
Flags: W
HStem: 148 52<275 932> 300 52<275 932>
VStem: 932 46<30 148 200 300 352 470>
LayerCount: 2
Fore
SplineSet
275 352 m 5
 932 352 l 1
 932 470 l 1
 978 470 l 1
 978 30 l 1
 932 30 l 1
 932 148 l 1
 275 148 l 5
 223 200 l 5
 932 200 l 1
 932 300 l 1
 223 300 l 5
 275 352 l 5
319 81 m 4
 322 75 318 70 310 70 c 4
 301 70 289 75 283 81 c 4
 226 140 169 197 92 237 c 4
 83 242 80 244 80 250 c 4
 80 256 80 257 93 263 c 4
 170 303 227 360 284 419 c 4
 290 425 302 430 311 430 c 4
 317 430 321 428 321 423 c 4
 321 422 321 421 320 419 c 4
 289.60546875 362.553710938 259.407226562 304.279296875 214 263 c 4
 205 255 204 247 214 237 c 4
 258.868164062 196.2109375 288.936523438 136.83203125 319 81 c 4
EndSplineSet
EndChar

StartChar: uni009C
Encoding: 156 156 155
Width: 1058
Flags: W
VStem: 80 46<30 148 200 300 352 470>
LayerCount: 2
Fore
SplineSet
844 237 m 4
 853 245 854 253 844 263 c 4
 799.131835938 303.7890625 769.063476562 363.16796875 739 419 c 4
 736 425 740 430 748 430 c 4
 757 430 769 425 775 419 c 4
 832 360 889 303 966 263 c 4
 975 258 978 256 978 250 c 4
 978 244 978 243 965 237 c 4
 888 197 831 140 774 81 c 4
 768 75 756 70 747 70 c 4
 741 70 737 72 737 77 c 4
 737 78 737 79 738 81 c 4
 768.39453125 137.446289062 798.592773438 195.720703125 844 237 c 4
835 300 m 5
 126 300 l 1
 126 200 l 1
 835 200 l 5
 783 148 l 5
 126 148 l 1
 126 30 l 1
 80 30 l 1
 80 470 l 1
 126 470 l 1
 126 352 l 1
 783 352 l 5
 835 300 l 5
EndSplineSet
EndChar

StartChar: uni009D
Encoding: 157 157 156
Width: 1091
Flags: W
HStem: 156 36<343 747> 308 36<343 747>
VStem: 307 36<73 156 344 427> 747 36<73 156 344 427>
LayerCount: 2
Fore
SplineSet
1011 250 m 1
 791 30 l 1
 747 30 l 1
 747 156 l 1
 343 156 l 1
 343 30 l 1
 300 30 l 1
 80 250 l 1
 300 470 l 1
 344 470 l 1
 343 344 l 1
 747 344 l 1
 747 470 l 1
 791 470 l 1
 1011 250 l 1
960 250 m 1
 783 427 l 1
 783 308 l 1
 307 308 l 1
 307 427 l 1
 131 250 l 1
 307 73 l 1
 307 192 l 1
 783 192 l 1
 783 73 l 1
 960 250 l 1
EndSplineSet
EndChar

StartChar: uni009E
Encoding: 158 158 157
Width: 1030
Flags: W
HStem: 174 152<300 950>
LayerCount: 2
Fore
SplineSet
950 174 m 1
 300 174 l 1
 300 30 l 1
 80 250 l 1
 300 470 l 1
 300 326 l 1
 950 326 l 1
 950 174 l 1
EndSplineSet
EndChar

StartChar: uni009F
Encoding: 159 159 158
Width: 600
Flags: W
VStem: 224 152<-180 470>
LayerCount: 2
Fore
SplineSet
520 470 m 1
 376 470 l 1
 376 -180 l 1
 224 -180 l 1
 224 470 l 1
 80 470 l 1
 300 690 l 1
 520 470 l 1
EndSplineSet
EndChar

StartChar: uni00A0
Encoding: 160 160 159
Width: 600
Flags: W
VStem: 224 152<30 680>
LayerCount: 2
Fore
SplineSet
520 30 m 1
 300 -190 l 1
 80 30 l 1
 224 30 l 1
 224 680 l 1
 376 680 l 1
 376 30 l 1
 520 30 l 1
EndSplineSet
EndChar

StartChar: exclamdown
Encoding: 161 161 160
Width: 1040
Flags: W
HStem: 174 152<300 740>
LayerCount: 2
Fore
SplineSet
960 250 m 1
 740 30 l 1
 740 174 l 1
 300 174 l 1
 300 30 l 1
 80 250 l 1
 300 470 l 1
 300 326 l 1
 740 326 l 1
 740 470 l 1
 960 250 l 1
EndSplineSet
EndChar

StartChar: cent
Encoding: 162 162 161
Width: 600
Flags: W
VStem: 224 152<30 470>
LayerCount: 2
Fore
SplineSet
520 30 m 1
 300 -190 l 1
 80 30 l 1
 224 30 l 1
 224 470 l 1
 80 470 l 1
 300 690 l 1
 520 470 l 1
 376 470 l 1
 376 30 l 1
 520 30 l 1
EndSplineSet
EndChar

StartChar: sterling
Encoding: 163 163 162
Width: 878
Flags: W
HStem: -76 52<199 798> 224 52<199 798> 524 52<199 798>
VStem: 199 25<-73 -27 227 273 527 573>
LayerCount: 2
Fore
SplineSet
224 527 m 5
 257 493 294 443 314 393 c 4
 322 375 318 370 310 370 c 4
 301 370 289 375 283 381 c 4
 226 440 169 497 92 537 c 4
 83 542 80 544 80 550 c 4
 80 556 80 557 93 563 c 4
 170 603 227 660 284 719 c 4
 290 725 302 730 311 730 c 4
 317 730 321 728 321 723 c 4
 321 722 321 721 320 719 c 4
 296 657 258 609 224 573 c 5
 224 527 l 5
199 576 m 5
 798 576 l 5
 798 524 l 5
 199 524 l 5
 199 576 l 5
224 -73 m 1
 257 -107 294 -157 314 -207 c 0
 322 -225 318 -230 310 -230 c 0
 301 -230 289 -225 283 -219 c 0
 226 -160 169 -103 92 -63 c 0
 83 -58 80 -56 80 -50 c 0
 80 -44 80 -43 93 -37 c 0
 170 3 227 60 284 119 c 0
 290 125 302 130 311 130 c 0
 317 130 321 128 321 123 c 0
 321 122 321 121 320 119 c 0
 296 57 258 9 224 -27 c 1
 224 -73 l 1
199 -24 m 1
 798 -24 l 1
 798 -76 l 1
 199 -76 l 1
 199 -24 l 1
224 227 m 1
 257 193 294 143 314 93 c 0
 322 75 318 70 310 70 c 0
 301 70 289 75 283 81 c 0
 226 140 169 197 92 237 c 0
 83 242 80 244 80 250 c 0
 80 256 80 257 93 263 c 0
 170 303 227 360 284 419 c 0
 290 425 302 430 311 430 c 0
 317 430 321 428 321 423 c 0
 321 422 321 421 320 419 c 0
 296 357 258 309 224 273 c 1
 224 227 l 1
199 276 m 1
 798 276 l 1
 798 224 l 1
 199 224 l 1
 199 276 l 1
EndSplineSet
EndChar

StartChar: currency
Encoding: 164 164 163
Width: 1198
Flags: W
HStem: 115 52<520.765 579.548 790.765 849.548> 224 52<199 329.578 1041.71 1118> 333 52<393.564 444.548 655.765 714.548 925.765 977.634>
VStem: 199 25<227 273>
LayerCount: 2
Fore
SplineSet
224 227 m 5
 257 193 294 143 314 93 c 4
 322 75 318 70 310 70 c 4
 301 70 289 75 283 81 c 4
 226 140 169 197 92 237 c 4
 83 242 80 244 80 250 c 4
 80 256 80 257 93 263 c 4
 170 303 227 360 284 419 c 4
 290 425 302 430 311 430 c 4
 317 430 321 428 321 423 c 4
 321 422 321 421 320 419 c 4
 296 357 258 309 224 273 c 5
 224 227 l 5
199 276 m 1
 308 276 l 2
 317 276 322 283 326 291 c 0
 336 307 342 328 352 344 c 0
 366 368 385 385 416 385 c 0
 467 385 490 353 501 308 c 0
 508 276 508 236 516 203 c 0
 521 184 528 167 551 167 c 0
 573 167 580 184 585 203 c 0
 593 236 593 276 600 308 c 0
 611 353 634 385 686 385 c 0
 737 385 760 353 771 308 c 0
 778 276 778 236 786 203 c 0
 791 184 798 167 821 167 c 0
 843 167 850 184 855 203 c 0
 863 236 863 276 870 308 c 0
 881 353 904 385 956 385 c 0
 986 385 1005 368 1019 344 c 0
 1029 328 1035 307 1045 291 c 0
 1049 283 1054 276 1064 276 c 2
 1118 276 l 1
 1118 224 l 1
 1064 224 l 2
 1033 224 1014 241 1000 265 c 0
 990 281 984 302 974 318 c 0
 970 326 965 333 956 333 c 0
 933 333 926 316 921 297 c 0
 913 264 913 224 906 192 c 0
 895 147 872 115 821 115 c 0
 769 115 746 147 735 192 c 0
 728 224 728 264 720 297 c 0
 715 316 708 333 686 333 c 0
 663 333 656 316 651 297 c 0
 643 264 643 224 636 192 c 0
 625 147 602 115 551 115 c 0
 499 115 476 147 465 192 c 0
 458 224 458 264 450 297 c 0
 445 316 438 333 416 333 c 0
 406 333 401 326 397 318 c 0
 387 302 381 281 371 265 c 0
 357 241 338 224 308 224 c 2
 199 224 l 1
 199 276 l 1
EndSplineSet
EndChar

StartChar: yen
Encoding: 165 165 164
Width: 0
Flags: W
HStem: 600 44<159 518>
VStem: 116 52.7998<600 627>
LayerCount: 2
Fore
SplineSet
52 600 m 4
 52 604.799804688 54.400390625 617.400390625 61.599609375 621.400390625 c 4
 123.200195312 653.400390625 138.799804688 680 184.400390625 727.200195312 c 4
 189.200195312 732 198.799804688 736 206 736 c 4
 212.400390625 736 215.599609375 732 209.200195312 717.599609375 c 4
 193.200195312 677.599609375 195.200195312 669.200195312 168.799804688 642 c 5
 168.799804688 600 l 5
 52 600 l 4
116 600 m 5
 116 627 l 5
 159 644 l 5
 518 644 l 1
 518 600 l 1
 116 600 l 5
EndSplineSet
EndChar

StartChar: brokenbar
Encoding: 166 166 165
Width: 0
Flags: W
HStem: 600 44<80 463.136> 600 22<491.864 517>
LayerCount: 2
Fore
SplineSet
428.200195312 600 m 5x80
 428.200195312 642 l 5
 401.799804688 669.200195312 403.799804688 677.599609375 387.799804688 717.599609375 c 4
 381.400390625 732 384.599609375 736 391 736 c 4
 398.200195312 736 407.799804688 732 412.599609375 727.200195312 c 4
 458.200195312 680 473.799804688 653.400390625 535.400390625 621.400390625 c 4
 542.599609375 617.400390625 545 604.799804688 545 600 c 4x40
 428.200195312 600 l 5x80
517 622 m 5
 517 600 l 1x40
 80 600 l 1
 80 644 l 1
 438 644 l 5x80
 517 622 l 5
EndSplineSet
EndChar

StartChar: section
Encoding: 167 167 166
Width: 164
Flags: W
HStem: 600 44<107 164>
VStem: 90 26.7998<600 627>
LayerCount: 2
Fore
SplineSet
0 600 m 0
 0 604.799804688 2.400390625 617.400390625 9.599609375 621.400390625 c 0
 71.2001953125 653.400390625 86.7998046875 680 132.400390625 727.200195312 c 0
 137.200195312 732 146.799804688 736 154 736 c 0
 160.400390625 736 163.599609375 732 157.200195312 717.599609375 c 0
 141.200195312 677.599609375 143.200195312 669.200195312 116.799804688 642 c 1
 116.799804688 600 l 1
 0 600 l 0
164 644 m 1
 164 600 l 1
 90 600 l 1
 90 627 l 1
 107 644 l 1
 164 644 l 1
EndSplineSet
EndChar

StartChar: dieresis
Encoding: 168 168 167
Width: 109
Flags: W
HStem: 600 44<0 109>
VStem: 0 109<600 644>
LayerCount: 2
Fore
SplineSet
109 644 m 1
 109 600 l 1
 0 600 l 1
 0 644 l 1
 109 644 l 1
EndSplineSet
EndChar

StartChar: copyright
Encoding: 169 169 168
Width: 165
Flags: W
HStem: 600 44<0 165>
VStem: 0 165<600 644>
LayerCount: 2
Fore
SplineSet
165 600 m 1
 0 600 l 1
 0 644 l 1
 165 644 l 1
 165 600 l 1
EndSplineSet
EndChar

StartChar: ordfeminine
Encoding: 170 170 169
Width: 164
Flags: W
HStem: 600 44<0 164>
VStem: 0 164<600 644>
LayerCount: 2
Fore
SplineSet
164 644 m 1
 164 600 l 1
 0 600 l 1
 0 644 l 1
 164 644 l 1
EndSplineSet
EndChar

StartChar: guillemotleft
Encoding: 171 171 170
Width: 109
Flags: W
HStem: 600 44<0 109>
VStem: 0 109<600 644>
LayerCount: 2
Fore
SplineSet
109 644 m 1
 109 600 l 1
 0 600 l 1
 0 644 l 1
 109 644 l 1
EndSplineSet
EndChar

StartChar: logicalnot
Encoding: 172 172 171
Width: 165
Flags: W
HStem: 600 44<0 87.8182>
VStem: 0 165<600 604.8>
LayerCount: 2
Fore
SplineSet
48.2001953125 600 m 1
 48.2001953125 642 l 1
 21.7998046875 669.200195312 23.7998046875 677.599609375 7.7998046875 717.599609375 c 0
 1.400390625 732 4.599609375 736 11 736 c 0
 18.2001953125 736 27.7998046875 732 32.599609375 727.200195312 c 0
 78.2001953125 680 93.7998046875 653.400390625 155.400390625 621.400390625 c 0
 162.599609375 617.400390625 165 604.799804688 165 600 c 0
 48.2001953125 600 l 1
141 622 m 1
 165 600 l 1
 0 600 l 1
 0 644 l 1
 63 644 l 1
 141 622 l 1
EndSplineSet
EndChar

StartChar: uni00AD
Encoding: 173 173 172
Width: 0
Flags: W
HStem: 600 44<156 527>
VStem: 156 14.7998<602 642>
LayerCount: 2
Fore
SplineSet
170.799804688 642 m 5
 170.799804688 602 l 5
 198 573.200195312 196.799804688 566.400390625 216 516.799804688 c 4
 216.799804688 515.200195312 216.799804688 514.400390625 216.799804688 513.599609375 c 4
 216.799804688 509.599609375 213.599609375 508 208.799804688 508 c 4
 201.599609375 508 192 512 187.200195312 516.799804688 c 4
 141.599609375 564 126 579.599609375 64.400390625 611.599609375 c 4
 54 616.400390625 54 617.200195312 54 622 c 4
 54 626.799804688 56.400390625 628.400390625 63.599609375 632.400390625 c 4
 125.200195312 664.400390625 140.799804688 680 186.400390625 727.200195312 c 4
 191.200195312 732 200.799804688 736 208 736 c 4
 214.400390625 736 217.599609375 732 211.200195312 717.599609375 c 4
 195.200195312 677.599609375 197.200195312 669.200195312 170.799804688 642 c 5
156 644 m 5
 527 644 l 1
 527 600 l 1
 156 600 l 5
 156 644 l 5
EndSplineSet
EndChar

StartChar: registered
Encoding: 174 174 173
Width: 0
Flags: W
HStem: 600 44<80 446>
VStem: 431.2 14.7998<602 642>
LayerCount: 2
Fore
SplineSet
431.200195312 642 m 5
 404.799804688 669.200195312 406.799804688 677.599609375 390.799804688 717.599609375 c 4
 384.400390625 732 387.599609375 736 394 736 c 4
 401.200195312 736 410.799804688 732 415.599609375 727.200195312 c 4
 461.200195312 680 476.799804688 664.400390625 538.400390625 632.400390625 c 4
 545.599609375 628.400390625 548 626.799804688 548 622 c 4
 548 617.200195312 548 616.400390625 537.599609375 611.599609375 c 4
 476 579.599609375 460.400390625 564 414.799804688 516.799804688 c 4
 410 512 400.400390625 508 393.200195312 508 c 4
 388.400390625 508 385.200195312 509.599609375 385.200195312 513.599609375 c 4
 385.200195312 514.400390625 385.200195312 515.200195312 386 516.799804688 c 4
 405.200195312 566.400390625 404 573.200195312 431.200195312 602 c 5
 431.200195312 642 l 5
446 600 m 5
 80 600 l 1
 80 644 l 1
 446 644 l 5
 446 600 l 5
EndSplineSet
EndChar

